%FSTAX43Y43*%
%MOMM*%
G71*
G01*
G75*
G04 Layer_Physical_Order=4*
G04 Layer_Color=16711680*
%ADD10R,2.500X3.300*%
%ADD11R,1.500X1.900*%
%ADD12R,1.600X0.300*%
%ADD13R,3.400X9.700*%
%ADD14R,0.400X0.455*%
%ADD15R,1.050X1.100*%
%ADD16R,0.400X0.850*%
%ADD17C,1.500*%
%ADD18R,1.400X0.700*%
%ADD19R,3.800X4.500*%
%ADD20R,0.900X0.900*%
%ADD21R,1.700X1.700*%
%ADD22R,1.000X1.400*%
%ADD23R,1.700X1.700*%
%ADD24R,1.300X1.900*%
%ADD25R,0.650X1.600*%
%ADD26R,1.000X5.500*%
%ADD27R,1.600X3.000*%
%ADD28R,4.000X7.000*%
%ADD29R,0.300X0.800*%
%ADD30R,3.300X2.500*%
%ADD31R,1.000X1.500*%
%ADD32R,1.900X1.500*%
%ADD33R,3.000X2.500*%
%ADD34R,3.500X1.500*%
%ADD35R,0.900X1.200*%
%ADD36R,0.900X0.900*%
%ADD37R,0.455X0.400*%
%ADD38R,1.100X1.050*%
%ADD39R,0.850X0.400*%
%ADD40R,1.499X3.404*%
%ADD41R,0.600X0.600*%
%ADD42R,0.400X0.700*%
G04:AMPARAMS|DCode=43|XSize=2.51mm|YSize=2.55mm|CornerRadius=0.063mm|HoleSize=0mm|Usage=FLASHONLY|Rotation=270.000|XOffset=0mm|YOffset=0mm|HoleType=Round|Shape=RoundedRectangle|*
%AMROUNDEDRECTD43*
21,1,2.510,2.425,0,0,270.0*
21,1,2.385,2.550,0,0,270.0*
1,1,0.126,-1.212,-1.192*
1,1,0.126,-1.212,1.192*
1,1,0.126,1.212,1.192*
1,1,0.126,1.212,-1.192*
%
%ADD43ROUNDEDRECTD43*%
%ADD44R,0.753X3.600*%
%ADD45R,3.404X1.499*%
%ADD46R,0.700X0.400*%
G04:AMPARAMS|DCode=47|XSize=2.51mm|YSize=2.55mm|CornerRadius=0.063mm|HoleSize=0mm|Usage=FLASHONLY|Rotation=0.000|XOffset=0mm|YOffset=0mm|HoleType=Round|Shape=RoundedRectangle|*
%AMROUNDEDRECTD47*
21,1,2.510,2.425,0,0,0.0*
21,1,2.385,2.550,0,0,0.0*
1,1,0.126,1.192,-1.212*
1,1,0.126,-1.192,-1.212*
1,1,0.126,-1.192,1.212*
1,1,0.126,1.192,1.212*
%
%ADD47ROUNDEDRECTD47*%
%ADD48R,2.500X1.000*%
%ADD49R,1.400X1.000*%
%ADD50R,0.700X1.400*%
%ADD51R,4.500X3.800*%
%ADD52R,0.600X0.600*%
%ADD53R,4.700X1.250*%
%ADD54C,1.000*%
%ADD55C,0.600*%
%ADD56C,0.500*%
%ADD57C,0.300*%
%ADD58C,1.500*%
%ADD59C,0.900*%
%ADD60C,0.400*%
%ADD61C,1.700*%
%ADD62R,11.700X1.200*%
%ADD63R,4.000X11.800*%
%ADD64R,2.500X1.250*%
%ADD65R,2.500X7.100*%
%ADD66R,5.300X3.150*%
%ADD67R,6.100X1.000*%
%ADD68R,2.500X2.100*%
%ADD69R,13.900X1.900*%
%ADD70R,6.600X1.900*%
%ADD71R,3.200X8.500*%
%ADD72R,1.400X10.500*%
%ADD73R,3.300X1.500*%
%ADD74R,1.500X9.100*%
%ADD75R,1.100X3.875*%
%ADD76R,7.900X4.400*%
%ADD77R,3.200X0.600*%
%ADD78R,3.875X1.600*%
%ADD79R,15.400X1.900*%
%ADD80R,2.500X9.900*%
%ADD81R,3.400X4.200*%
%ADD82R,8.300X5.400*%
%ADD83R,24.000X2.700*%
%ADD84R,3.000X2.800*%
%ADD85R,2.900X11.200*%
%ADD86R,1.400X3.600*%
%ADD87R,4.200X1.450*%
%ADD88R,3.400X0.800*%
%ADD89R,1.000X9.300*%
%ADD90R,4.200X0.900*%
%ADD91R,3.400X5.700*%
%ADD92R,7.100X3.400*%
%ADD93R,4.400X8.250*%
%ADD94R,3.800X7.000*%
%ADD95R,4.400X13.600*%
%ADD96R,1.800X7.200*%
%ADD97R,5.100X10.400*%
%ADD98R,5.100X4.000*%
%ADD99R,7.200X5.500*%
%ADD100R,8.400X1.300*%
%ADD101R,6.100X3.100*%
%ADD102C,0.200*%
%ADD103R,2.000X2.000*%
%ADD104C,2.000*%
%ADD105C,0.500*%
%ADD106O,5.080X3.500*%
%ADD107O,3.000X4.000*%
%ADD108O,4.000X3.000*%
%ADD109C,0.700*%
%ADD110O,2.000X4.000*%
%ADD111C,1.700*%
%ADD112C,1.600*%
%ADD113R,1.600X1.600*%
%ADD114C,0.600*%
G04:AMPARAMS|DCode=115|XSize=14mm|YSize=4mm|CornerRadius=1mm|HoleSize=0mm|Usage=FLASHONLY|Rotation=0.000|XOffset=0mm|YOffset=0mm|HoleType=Round|Shape=RoundedRectangle|*
%AMROUNDEDRECTD115*
21,1,14.000,2.000,0,0,0.0*
21,1,12.000,4.000,0,0,0.0*
1,1,2.000,6.000,-1.000*
1,1,2.000,-6.000,-1.000*
1,1,2.000,-6.000,1.000*
1,1,2.000,6.000,1.000*
%
%ADD115ROUNDEDRECTD115*%
G04:AMPARAMS|DCode=116|XSize=14mm|YSize=4mm|CornerRadius=1mm|HoleSize=0mm|Usage=FLASHONLY|Rotation=270.000|XOffset=0mm|YOffset=0mm|HoleType=Round|Shape=RoundedRectangle|*
%AMROUNDEDRECTD116*
21,1,14.000,2.000,0,0,270.0*
21,1,12.000,4.000,0,0,270.0*
1,1,2.000,-1.000,-6.000*
1,1,2.000,-1.000,6.000*
1,1,2.000,1.000,6.000*
1,1,2.000,1.000,-6.000*
%
%ADD116ROUNDEDRECTD116*%
G04:AMPARAMS|DCode=117|XSize=8mm|YSize=8mm|CornerRadius=2mm|HoleSize=0mm|Usage=FLASHONLY|Rotation=270.000|XOffset=0mm|YOffset=0mm|HoleType=Round|Shape=RoundedRectangle|*
%AMROUNDEDRECTD117*
21,1,8.000,4.000,0,0,270.0*
21,1,4.000,8.000,0,0,270.0*
1,1,4.000,-2.000,-2.000*
1,1,4.000,-2.000,2.000*
1,1,4.000,2.000,2.000*
1,1,4.000,2.000,-2.000*
%
%ADD117ROUNDEDRECTD117*%
G04:AMPARAMS|DCode=118|XSize=9mm|YSize=4mm|CornerRadius=1mm|HoleSize=0mm|Usage=FLASHONLY|Rotation=270.000|XOffset=0mm|YOffset=0mm|HoleType=Round|Shape=RoundedRectangle|*
%AMROUNDEDRECTD118*
21,1,9.000,2.000,0,0,270.0*
21,1,7.000,4.000,0,0,270.0*
1,1,2.000,-1.000,-3.500*
1,1,2.000,-1.000,3.500*
1,1,2.000,1.000,3.500*
1,1,2.000,1.000,-3.500*
%
%ADD118ROUNDEDRECTD118*%
G04:AMPARAMS|DCode=119|XSize=3.5mm|YSize=5.5mm|CornerRadius=0.875mm|HoleSize=0mm|Usage=FLASHONLY|Rotation=270.000|XOffset=0mm|YOffset=0mm|HoleType=Round|Shape=RoundedRectangle|*
%AMROUNDEDRECTD119*
21,1,3.500,3.750,0,0,270.0*
21,1,1.750,5.500,0,0,270.0*
1,1,1.750,-1.875,-0.875*
1,1,1.750,-1.875,0.875*
1,1,1.750,1.875,0.875*
1,1,1.750,1.875,-0.875*
%
%ADD119ROUNDEDRECTD119*%
G04:AMPARAMS|DCode=120|XSize=3.5mm|YSize=3.5mm|CornerRadius=0.875mm|HoleSize=0mm|Usage=FLASHONLY|Rotation=270.000|XOffset=0mm|YOffset=0mm|HoleType=Round|Shape=RoundedRectangle|*
%AMROUNDEDRECTD120*
21,1,3.500,1.750,0,0,270.0*
21,1,1.750,3.500,0,0,270.0*
1,1,1.750,-0.875,-0.875*
1,1,1.750,-0.875,0.875*
1,1,1.750,0.875,0.875*
1,1,1.750,0.875,-0.875*
%
%ADD120ROUNDEDRECTD120*%
G04:AMPARAMS|DCode=121|XSize=6mm|YSize=5mm|CornerRadius=1.25mm|HoleSize=0mm|Usage=FLASHONLY|Rotation=270.000|XOffset=0mm|YOffset=0mm|HoleType=Round|Shape=RoundedRectangle|*
%AMROUNDEDRECTD121*
21,1,6.000,2.500,0,0,270.0*
21,1,3.500,5.000,0,0,270.0*
1,1,2.500,-1.250,-1.750*
1,1,2.500,-1.250,1.750*
1,1,2.500,1.250,1.750*
1,1,2.500,1.250,-1.750*
%
%ADD121ROUNDEDRECTD121*%
G04:AMPARAMS|DCode=122|XSize=6mm|YSize=7mm|CornerRadius=1.5mm|HoleSize=0mm|Usage=FLASHONLY|Rotation=270.000|XOffset=0mm|YOffset=0mm|HoleType=Round|Shape=RoundedRectangle|*
%AMROUNDEDRECTD122*
21,1,6.000,4.000,0,0,270.0*
21,1,3.000,7.000,0,0,270.0*
1,1,3.000,-2.000,-1.500*
1,1,3.000,-2.000,1.500*
1,1,3.000,2.000,1.500*
1,1,3.000,2.000,-1.500*
%
%ADD122ROUNDEDRECTD122*%
%ADD123C,2.000*%
%ADD124R,14.000X6.100*%
G36*
X0228078Y0236029D02*
X0228028Y0236029D01*
X0227978Y0236029D01*
X0227978Y0235979D01*
X0227777Y0235979D01*
X0227777Y0236481D01*
X0227727Y0236481D01*
X0227677Y0236481D01*
X0227626Y0236481D01*
X0227626Y0236431D01*
X0227576Y0236431D01*
X0227526Y0236431D01*
X0227476Y0236431D01*
X0227426Y0236431D01*
X0227426Y0236381D01*
X0227375Y0236381D01*
X0227225Y0236381D01*
X0227175Y0236381D01*
X0227175Y023633D01*
X0227124Y023633D01*
X0227074Y023633D01*
X0226924Y023633D01*
X0226924Y023628D01*
X0226723Y023628D01*
X0226723Y023623D01*
X0226673Y023623D01*
X0226622Y023623D01*
X0226572Y023623D01*
X0226522Y023623D01*
X0226472Y023623D01*
X0226472Y023618D01*
X0226422Y023618D01*
X0226371Y023618D01*
X0226321Y023618D01*
X0226321Y0236581D01*
X0226371Y0236581D01*
X0226422Y0236581D01*
X0226422Y0236632D01*
X0226522Y0236632D01*
X0226572Y0236632D01*
X0226622Y0236632D01*
X0226673Y0236632D01*
X0226673Y0236682D01*
X0226924Y0236682D01*
X0226924Y0236732D01*
X0227124Y0236732D01*
X0227124Y0236782D01*
X0227375Y0236782D01*
X0227375Y0236832D01*
X0227576Y0236832D01*
X0227626Y0236832D01*
X0227626Y0236883D01*
X0227777Y0236883D01*
X0227777Y0237435D01*
X0227978Y0237435D01*
X0227978Y0237485D01*
X0228078Y0237485D01*
X0228078Y0236029D01*
X0228078Y0236029D02*
G37*
G36*
X0301418Y0245771D02*
X0301427Y0245679D01*
X0301542Y0245302D01*
X0301728Y0244955D01*
X0301977Y024465D01*
X0302282Y02444D01*
X0302629Y0244214D01*
X0303006Y02441D01*
X0303398Y0244061D01*
X0304398Y0244061D01*
X0304791Y02441D01*
X0305168Y0244214D01*
X0305515Y02444D01*
X030582Y024465D01*
X0306069Y0244955D01*
X0306255Y0245302D01*
X030637Y0245679D01*
X0306379Y0245771D01*
X0308622Y0245771D01*
X0308705Y0245676D01*
X0308692Y0245571D01*
X0308719Y0245362D01*
X03088Y0245168D01*
X0308928Y0245D01*
X0309095Y0244872D01*
X030929Y0244792D01*
X0309499Y0244764D01*
X0309707Y0244792D01*
X0309902Y0244872D01*
X0309956Y0244914D01*
X0310899Y0243971D01*
X0310899Y0238571D01*
X0309499Y0237171D01*
X0281398Y0237171D01*
X0280299Y0238271D01*
X0280299Y0244371D01*
X0281699Y0245771D01*
X0301418Y0245771D01*
X0301418Y0245771D02*
G37*
G36*
X0225166Y0236481D02*
X0225166Y0236431D01*
X0225217Y0236431D01*
X0225267Y0236431D01*
X0225317Y0236431D01*
X0225367Y0236431D01*
X0225417Y0236431D01*
X0225417Y0236381D01*
X0225468Y0236381D01*
X0225518Y0236381D01*
X0225518Y023633D01*
X0225568Y023633D01*
X0225568Y023628D01*
X0225618Y023628D01*
X0225618Y023623D01*
X0225668Y023623D01*
X0225668Y023618D01*
X0225719Y023618D01*
X0225719Y0236079D01*
X0225769Y0236079D01*
X0225769Y0235929D01*
X0225819Y0235929D01*
X0225819Y0235527D01*
X0225769Y0235527D01*
X0225769Y0235326D01*
X0225719Y0235326D01*
X0225719Y0235226D01*
X0225668Y0235226D01*
X0225668Y0235125D01*
X0225618Y0235125D01*
X0225618Y0235075D01*
X0225568Y0235075D01*
X0225568Y0235025D01*
X0225518Y0235025D01*
X0225518Y0234975D01*
X0225468Y0234975D01*
X0225468Y0234925D01*
X0225367Y0234925D01*
X0225367Y0234874D01*
X0225317Y0234874D01*
X0225317Y0234824D01*
X0225217Y0234824D01*
X0225217Y0234774D01*
X0225016Y0234774D01*
X0225016Y0234724D01*
X0224966Y0234724D01*
X0224915Y0234724D01*
X0224865Y0234724D01*
X0224715Y0234724D01*
X0224715Y0234674D01*
X0224664Y0234674D01*
X0224614Y0234674D01*
X0224614Y0234724D01*
X0224464Y0234724D01*
X0224413Y0234724D01*
X0224363Y0234724D01*
X0224363Y0234774D01*
X0224263Y0234774D01*
X0224263Y0234824D01*
X0224162Y0234824D01*
X0224162Y0234874D01*
X0224112Y0234874D01*
X0224112Y0234925D01*
X0224062Y0234925D01*
X0224062Y0235025D01*
X0224012Y0235025D01*
X0224012Y0235125D01*
X0223961Y0235125D01*
X0223961Y0235376D01*
X0223911Y0235376D01*
X0223911Y0235527D01*
X0223961Y0235527D01*
X0223961Y0235778D01*
X0224012Y0235778D01*
X0224012Y0235879D01*
X0224062Y0235879D01*
X0224062Y0235979D01*
X0224112Y0235979D01*
X0224112Y0236079D01*
X0224162Y0236079D01*
X0224162Y023613D01*
X0224213Y023613D01*
X0224213Y023618D01*
X0224263Y023618D01*
X0224263Y023623D01*
X0224313Y023623D01*
X0224363Y023623D01*
X0224363Y023628D01*
X0224413Y023628D01*
X0224413Y023633D01*
X0224514Y023633D01*
X0224514Y0236381D01*
X0224614Y0236381D01*
X0224664Y0236381D01*
X0224715Y0236381D01*
X0224715Y0236431D01*
X0224765Y0236431D01*
X0224815Y0236431D01*
X0224865Y0236431D01*
X0224915Y0236431D01*
X0224966Y0236431D01*
X0224966Y0236481D01*
X0225016Y0236481D01*
X0225066Y0236481D01*
X0225116Y0236481D01*
X0225166Y0236481D01*
X0225166Y0236481D02*
G37*
G36*
X0226673Y0235628D02*
X0227124Y0235628D01*
X0227124Y0235577D01*
X0227175Y0235577D01*
X0227225Y0235577D01*
X0227275Y0235577D01*
X0227325Y0235577D01*
X0227476Y0235577D01*
X0227476Y0235527D01*
X0227526Y0235527D01*
X0227576Y0235527D01*
X0227777Y0235527D01*
X0227827Y0235527D01*
X0227877Y0235527D01*
X0227928Y0235527D01*
X0227928Y0235477D01*
X0228078Y0235477D01*
X0228078Y0235025D01*
X0228028Y0235025D01*
X0228028Y0234975D01*
X0227978Y0234975D01*
X0227928Y0234975D01*
X0227928Y0234925D01*
X0227827Y0234925D01*
X0227827Y0234874D01*
X0227777Y0234874D01*
X0227727Y0234874D01*
X0227727Y0234824D01*
X0227677Y0234824D01*
X0227677Y0234774D01*
X0227576Y0234774D01*
X0227576Y0234724D01*
X0227526Y0234724D01*
X0227476Y0234724D01*
X0227476Y0234674D01*
X0227426Y0234674D01*
X0227375Y0234674D01*
X0227375Y0234623D01*
X0227275Y0234623D01*
X0227275Y0234573D01*
X0227225Y0234573D01*
X0227225Y0234523D01*
X0227124Y0234523D01*
X0227124Y0234473D01*
X0227024Y0234473D01*
X0227024Y0234423D01*
X0226924Y0234423D01*
X0226924Y0234372D01*
X0226873Y0234372D01*
X0226823Y0234372D01*
X0226823Y0234322D01*
X0226723Y0234322D01*
X0226723Y0234272D01*
X0226673Y0234272D01*
X0226673Y0234222D01*
X0226622Y0234222D01*
X0226572Y0234222D01*
X0226572Y0234172D01*
X0226522Y0234172D01*
X0226472Y0234172D01*
X0226472Y0234121D01*
X0226371Y0234121D01*
X0226371Y0234071D01*
X0226321Y0234071D01*
X0226321Y0234473D01*
X0226371Y0234473D01*
X0226371Y0234523D01*
X0226422Y0234523D01*
X0226472Y0234523D01*
X0226472Y0234573D01*
X0226572Y0234573D01*
X0226572Y0234623D01*
X0226673Y0234623D01*
X0226673Y0235226D01*
X0226622Y0235226D01*
X0226622Y0235276D01*
X0226572Y0235276D01*
X0226522Y0235276D01*
X0226472Y0235276D01*
X0226422Y0235276D01*
X0226371Y0235276D01*
X0226321Y0235276D01*
X0226321Y0235678D01*
X0226371Y0235678D01*
X0226422Y0235678D01*
X0226673Y0235678D01*
X0226673Y0235628D01*
X0226673Y0235628D02*
G37*
G36*
X0225769Y0226038D02*
X0225719Y0226038D01*
X0225719Y0225988D01*
X0225668Y0225988D01*
X0225618Y0225988D01*
X0225568Y0225988D01*
X0225518Y0225988D01*
X0225367Y0225988D01*
X0225367Y0225938D01*
X0225016Y0225938D01*
X0225016Y0225888D01*
X0224865Y0225888D01*
X0224815Y0225888D01*
X0224765Y0225888D01*
X0224715Y0225888D01*
X0224715Y0225838D01*
X0224664Y0225838D01*
X0224614Y0225838D01*
X0224564Y0225838D01*
X0224514Y0225838D01*
X0224464Y0225838D01*
X0224413Y0225838D01*
X0224363Y0225838D01*
X0224313Y0225838D01*
X0224313Y0225787D01*
X0224012Y0225787D01*
X0224012Y0225737D01*
X0223961Y0225737D01*
X0223961Y0226942D01*
X0224062Y0226942D01*
X0224062Y0226992D01*
X0224263Y0226992D01*
X0224263Y0226239D01*
X0224564Y0226239D01*
X0224564Y0226289D01*
X0224664Y0226289D01*
X0224715Y0226289D01*
X0224765Y0226289D01*
X0224765Y0226992D01*
X0224815Y0226992D01*
X0224815Y0227042D01*
X0224865Y0227042D01*
X0224915Y0227042D01*
X0224966Y0227042D01*
X0225016Y0227042D01*
X0225066Y0227042D01*
X0225116Y0227042D01*
X0225116Y022634D01*
X0225267Y022634D01*
X0225267Y022639D01*
X0225317Y022639D01*
X0225367Y022639D01*
X0225468Y022639D01*
X0225468Y0227193D01*
X0225719Y0227193D01*
X0225719Y0227243D01*
X0225769Y0227243D01*
X0225769Y0226038D01*
X0225769Y0226038D02*
G37*
G36*
X0224062Y0224181D02*
X0224112Y0224181D01*
X0224162Y0224181D01*
X0224162Y0224131D01*
X0224213Y0224131D01*
X0224263Y0224131D01*
X0224263Y022408D01*
X0224363Y022408D01*
X0224363Y022403D01*
X0224413Y022403D01*
X0224413Y022398D01*
X0224514Y022398D01*
X0224514Y022393D01*
X0224564Y022393D01*
X0224614Y022393D01*
X0224614Y022388D01*
X0224664Y022388D01*
X0224715Y022388D01*
X0224715Y0223829D01*
X0224815Y0223829D01*
X0224815Y0223779D01*
X0224865Y0223779D01*
X0224915Y0223779D01*
X0224915Y0223729D01*
X0225016Y0223729D01*
X0225016Y0223679D01*
X0225116Y0223679D01*
X0225116Y0223629D01*
X0225166Y0223629D01*
X0225166Y0223578D01*
X0225217Y0223578D01*
X0225267Y0223578D01*
X0225267Y0223528D01*
X0225367Y0223528D01*
X0225367Y0223478D01*
X0225468Y0223478D01*
X0225468Y0223428D01*
X0225518Y0223428D01*
X0225568Y0223428D01*
X0225568Y0223378D01*
X0225668Y0223378D01*
X0225668Y0223327D01*
X0225719Y0223327D01*
X0225769Y0223327D01*
X0225769Y0223277D01*
X0225819Y0223277D01*
X0225869Y0223277D01*
X0225869Y0223227D01*
X0225919Y0223227D01*
X0225919Y0223177D01*
X022602Y0223177D01*
X022602Y0223127D01*
X022607Y0223127D01*
X022612Y0223127D01*
X022612Y0223076D01*
X0226221Y0223076D01*
X0226221Y0223026D01*
X0226321Y0223026D01*
X0226321Y0222976D01*
X0226422Y0222976D01*
X0226422Y0222926D01*
X0226472Y0222926D01*
X0226522Y0222926D01*
X0226522Y0222876D01*
X0226622Y0222876D01*
X0226622Y0222825D01*
X0226723Y0222825D01*
X0226723Y0222775D01*
X0226773Y0222775D01*
X0226773Y0222725D01*
X0226823Y0222725D01*
X0226873Y0222725D01*
X0226873Y0222675D01*
X0226974Y0222675D01*
X0226974Y0222624D01*
X0227024Y0222624D01*
X0227074Y0222624D01*
X0227074Y0222574D01*
X0227124Y0222574D01*
X0227175Y0222574D01*
X0227175Y0222524D01*
X0227275Y0222524D01*
X0227275Y0222474D01*
X0227375Y0222474D01*
X0227375Y0222424D01*
X0227426Y0222424D01*
X0227426Y0222373D01*
X0227476Y0222373D01*
X0227526Y0222373D01*
X0227526Y0222323D01*
X0227626Y0222323D01*
X0227626Y0222273D01*
X0227727Y0222273D01*
X0227727Y0222223D01*
X0227777Y0222223D01*
X0227827Y0222223D01*
X0227827Y0222173D01*
X0227928Y0222173D01*
X0227928Y0222122D01*
X0228028Y0222122D01*
X0228028Y0222072D01*
X0228078Y0222072D01*
X0228128Y0222072D01*
X0228128Y0222022D01*
X0228179Y0222022D01*
X0228229Y0222022D01*
X0228229Y0221972D01*
X0228279Y0221972D01*
X0228279Y0221922D01*
X022838Y0221922D01*
X022838Y0221871D01*
X0228329Y0221871D01*
X0228279Y0221871D01*
X0228279Y0221821D01*
X0228229Y0221821D01*
X0228179Y0221821D01*
X0228179Y0221771D01*
X0228078Y0221771D01*
X0228078Y0221721D01*
X0228028Y0221721D01*
X0228028Y0221771D01*
X0227928Y0221771D01*
X0227928Y0221821D01*
X0227877Y0221821D01*
X0227827Y0221821D01*
X0227827Y0221871D01*
X0227777Y0221871D01*
X0227727Y0221871D01*
X0227727Y0221922D01*
X0227677Y0221922D01*
X0227626Y0221922D01*
X0227626Y0221972D01*
X0227576Y0221972D01*
X0227526Y0221972D01*
X0227526Y0222022D01*
X0227476Y0222022D01*
X0227426Y0222022D01*
X0227426Y0222072D01*
X0227375Y0222072D01*
X0227325Y0222072D01*
X0227325Y0222122D01*
X0227275Y0222122D01*
X0227275Y0222173D01*
X0227225Y0222173D01*
X0227175Y0222173D01*
X0227175Y0222223D01*
X0227124Y0222223D01*
X0227074Y0222223D01*
X0227074Y0222273D01*
X0227024Y0222273D01*
X0226974Y0222273D01*
X0226974Y0222323D01*
X0226873Y0222323D01*
X0226873Y0222373D01*
X0226773Y0222373D01*
X0226773Y0222424D01*
X0226723Y0222424D01*
X0226673Y0222424D01*
X0226673Y0222474D01*
X0226572Y0222474D01*
X0226572Y0222524D01*
X0226522Y0222524D01*
X0226522Y0222574D01*
X0226472Y0222574D01*
X0226422Y0222574D01*
X0226422Y0222624D01*
X0226321Y0222624D01*
X0226321Y0222675D01*
X0226221Y0222675D01*
X0226221Y0222725D01*
X022617Y0222725D01*
X022612Y0222725D01*
X022612Y0222775D01*
X022602Y0222775D01*
X022602Y0222825D01*
X0225919Y0222825D01*
X0225919Y0222876D01*
X0225819Y0222876D01*
X0225819Y0222926D01*
X0225769Y0222926D01*
X0225719Y0222926D01*
X0225719Y0222976D01*
X0225668Y0222976D01*
X0225668Y0223026D01*
X0225568Y0223026D01*
X0225568Y0223076D01*
X0225468Y0223076D01*
X0225468Y0223127D01*
X0225367Y0223127D01*
X0225367Y0223177D01*
X0225267Y0223177D01*
X0225267Y0223227D01*
X0225166Y0223227D01*
X0225166Y0223277D01*
X0225116Y0223277D01*
X0225116Y0223327D01*
X0224966Y0223327D01*
X0224966Y0223378D01*
X0224915Y0223378D01*
X0224915Y0223428D01*
X0224865Y0223428D01*
X0224815Y0223428D01*
X0224815Y0223478D01*
X0224715Y0223478D01*
X0224715Y0223528D01*
X0224614Y0223528D01*
X0224614Y0223578D01*
X0224564Y0223578D01*
X0224514Y0223578D01*
X0224514Y0223629D01*
X0224413Y0223629D01*
X0224413Y0223679D01*
X0224313Y0223679D01*
X0224313Y0223729D01*
X0224213Y0223729D01*
X0224213Y0223779D01*
X0224162Y0223779D01*
X0224162Y0223829D01*
X0224112Y0223829D01*
X0224062Y0223829D01*
X0224062Y022388D01*
X0223961Y022388D01*
X0223961Y0224231D01*
X0224012Y0224231D01*
X0224062Y0224231D01*
X0224062Y0224181D01*
X0224062Y0224181D02*
G37*
G36*
X0225668Y0240999D02*
X0225719Y0240999D01*
X0225719Y0240899D01*
X0225769Y0240899D01*
X0225769Y0240698D01*
X0225819Y0240698D01*
X0225819Y0240297D01*
X0225769Y0240297D01*
X0225769Y0240146D01*
X0225719Y0240146D01*
X0225719Y0239995D01*
X0225668Y0239995D01*
X0225668Y0239945D01*
X0225618Y0239945D01*
X0225618Y0239845D01*
X0225568Y0239845D01*
X0225568Y0239794D01*
X0225518Y0239794D01*
X0225518Y0239744D01*
X0225468Y0239744D01*
X0225468Y0239694D01*
X0225367Y0239694D01*
X0225367Y0239644D01*
X0225317Y0239644D01*
X0225317Y0239594D01*
X0225217Y0239594D01*
X0225217Y0239543D01*
X0225116Y0239543D01*
X0225066Y0239543D01*
X0225066Y0239493D01*
X0225016Y0239493D01*
X0224966Y0239493D01*
X0224915Y0239493D01*
X0224865Y0239493D01*
X0224765Y0239493D01*
X0224765Y0239443D01*
X0224564Y0239443D01*
X0224564Y0239493D01*
X0224413Y0239493D01*
X0224363Y0239493D01*
X0224363Y0239543D01*
X0224263Y0239543D01*
X0224263Y0239594D01*
X0224162Y0239594D01*
X0224162Y0239644D01*
X0224112Y0239644D01*
X0224112Y0239694D01*
X0224062Y0239694D01*
X0224062Y0239794D01*
X0224012Y0239794D01*
X0224012Y0239895D01*
X0223961Y0239895D01*
X0223961Y0240196D01*
X0223911Y0240196D01*
X0223911Y0240297D01*
X0223961Y0240297D01*
X0223961Y0240598D01*
X0224012Y0240598D01*
X0224012Y0240698D01*
X0224062Y0240698D01*
X0224062Y0240849D01*
X0224313Y0240849D01*
X0224313Y0240899D01*
X0224363Y0240899D01*
X0224413Y0240899D01*
X0224464Y0240899D01*
X0224464Y0240849D01*
X0224413Y0240849D01*
X0224413Y0240748D01*
X0224363Y0240748D01*
X0224363Y0240698D01*
X0224313Y0240698D01*
X0224313Y0240598D01*
X0224263Y0240598D01*
X0224263Y0240146D01*
X0224313Y0240146D01*
X0224313Y0240046D01*
X0224363Y0240046D01*
X0224363Y0239995D01*
X0224413Y0239995D01*
X0224413Y0239945D01*
X0224464Y0239945D01*
X0224514Y0239945D01*
X0224564Y0239945D01*
X0224564Y0239895D01*
X0224664Y0239895D01*
X0224715Y0239895D01*
X0224765Y0239895D01*
X0224815Y0239895D01*
X0224865Y0239895D01*
X0224915Y0239895D01*
X0224915Y0239945D01*
X0225116Y0239945D01*
X0225116Y0239995D01*
X0225166Y0239995D01*
X0225166Y0240046D01*
X0225217Y0240046D01*
X0225267Y0240046D01*
X0225267Y0240096D01*
X0225317Y0240096D01*
X0225317Y0240146D01*
X0225367Y0240146D01*
X0225367Y0240196D01*
X0225417Y0240196D01*
X0225417Y0240246D01*
X0225468Y0240246D01*
X0225468Y0240397D01*
X0225518Y0240397D01*
X0225518Y0240598D01*
X0225468Y0240598D01*
X0225468Y0240748D01*
X0225417Y0240748D01*
X0225417Y0240849D01*
X0225367Y0240849D01*
X0225367Y0240899D01*
X0225317Y0240899D01*
X0225317Y0240949D01*
X0225267Y0240949D01*
X0225267Y0240999D01*
X0225367Y0240999D01*
X0225367Y024105D01*
X0225668Y024105D01*
X0225668Y0240999D01*
X0225668Y0240999D02*
G37*
G36*
X0224062Y0224733D02*
X0224162Y0224733D01*
X0224162Y0224683D01*
X0224213Y0224683D01*
X0224263Y0224683D01*
X0224263Y0224633D01*
X0224363Y0224633D01*
X0224363Y0224582D01*
X0224464Y0224582D01*
X0224464Y0224532D01*
X0224564Y0224532D01*
X0224564Y0224482D01*
X0224614Y0224482D01*
X0224614Y0224432D01*
X0224664Y0224432D01*
X0224715Y0224432D01*
X0224715Y0224382D01*
X0224765Y0224382D01*
X0224815Y0224382D01*
X0224815Y0224331D01*
X0224865Y0224331D01*
X0224915Y0224331D01*
X0224915Y0224281D01*
X0225016Y0224281D01*
X0225016Y0224231D01*
X0225066Y0224231D01*
X0225116Y0224231D01*
X0225116Y0224181D01*
X0225217Y0224181D01*
X0225217Y0224131D01*
X0225267Y0224131D01*
X0225317Y0224131D01*
X0225317Y022408D01*
X0225367Y022408D01*
X0225367Y022403D01*
X0225468Y022403D01*
X0225468Y022398D01*
X0225518Y022398D01*
X0225568Y022398D01*
X0225568Y022393D01*
X0225668Y022393D01*
X0225668Y022388D01*
X0225769Y022388D01*
X0225769Y0223829D01*
X0225819Y0223829D01*
X0225869Y0223829D01*
X0225869Y0223779D01*
X0225919Y0223779D01*
X022597Y0223779D01*
X022597Y0223729D01*
X022607Y0223729D01*
X022607Y0223679D01*
X022612Y0223679D01*
X022612Y0223629D01*
X022617Y0223629D01*
X0226221Y0223629D01*
X0226221Y0223578D01*
X0226321Y0223578D01*
X0226321Y0223528D01*
X0226422Y0223528D01*
X0226422Y0223478D01*
X0226522Y0223478D01*
X0226522Y0223428D01*
X0226622Y0223428D01*
X0226622Y0223378D01*
X0226723Y0223378D01*
X0226723Y0223327D01*
X0226773Y0223327D01*
X0226823Y0223327D01*
X0226823Y0223277D01*
X0226873Y0223277D01*
X0226924Y0223277D01*
X0226924Y0223227D01*
X0226974Y0223227D01*
X0226974Y0223177D01*
X0227074Y0223177D01*
X0227074Y0223127D01*
X0227124Y0223127D01*
X0227175Y0223127D01*
X0227175Y0223076D01*
X0227225Y0223076D01*
X0227275Y0223076D01*
X0227275Y0223026D01*
X0227375Y0223026D01*
X0227375Y0222976D01*
X0227426Y0222976D01*
X0227476Y0222976D01*
X0227476Y0222926D01*
X0227576Y0222926D01*
X0227576Y0222876D01*
X0227677Y0222876D01*
X0227677Y0222825D01*
X0227777Y0222825D01*
X0227777Y0222775D01*
X0227827Y0222775D01*
X0227827Y0222725D01*
X0227877Y0222725D01*
X0227928Y0222725D01*
X0227928Y0222675D01*
X0228028Y0222675D01*
X0228028Y0222624D01*
X0228078Y0222624D01*
X0228128Y0222624D01*
X0228128Y0222574D01*
X0228179Y0222574D01*
X0228229Y0222574D01*
X0228229Y0222524D01*
X0228279Y0222524D01*
X0228329Y0222524D01*
X0228329Y0222474D01*
X022843Y0222474D01*
X022843Y0222424D01*
X022848Y0222424D01*
X022848Y0222373D01*
X022858Y0222373D01*
X022858Y0222323D01*
X0228681Y0222323D01*
X0228681Y0222273D01*
X0228731Y0222273D01*
X0228781Y0222273D01*
X0228781Y0222223D01*
X0228831Y0222223D01*
X0228882Y0222223D01*
X0228882Y0222122D01*
X0228781Y0222122D01*
X0228781Y0222072D01*
X0228681Y0222072D01*
X0228681Y0222022D01*
X0228631Y0222022D01*
X022858Y0222022D01*
X022853Y0222022D01*
X022848Y0222022D01*
X022848Y0222072D01*
X022838Y0222072D01*
X022838Y0222122D01*
X0228279Y0222122D01*
X0228279Y0222173D01*
X0228229Y0222173D01*
X0228229Y0222223D01*
X0228179Y0222223D01*
X0228128Y0222223D01*
X0228128Y0222273D01*
X0228028Y0222273D01*
X0228028Y0222323D01*
X0227928Y0222323D01*
X0227928Y0222373D01*
X0227877Y0222373D01*
X0227827Y0222373D01*
X0227827Y0222424D01*
X0227727Y0222424D01*
X0227727Y0222474D01*
X0227626Y0222474D01*
X0227626Y0222524D01*
X0227526Y0222524D01*
X0227526Y0222574D01*
X0227476Y0222574D01*
X0227476Y0222624D01*
X0227426Y0222624D01*
X0227375Y0222624D01*
X0227375Y0222675D01*
X0227275Y0222675D01*
X0227275Y0222725D01*
X0227225Y0222725D01*
X0227175Y0222725D01*
X0227175Y0222775D01*
X0227074Y0222775D01*
X0227074Y0222825D01*
X0226974Y0222825D01*
X0226974Y0222876D01*
X0226924Y0222876D01*
X0226873Y0222876D01*
X0226873Y0222926D01*
X0226823Y0222926D01*
X0226823Y0222976D01*
X0226723Y0222976D01*
X0226723Y0223026D01*
X0226622Y0223026D01*
X0226622Y0223076D01*
X0226572Y0223076D01*
X0226522Y0223076D01*
X0226522Y0223127D01*
X0226472Y0223127D01*
X0226422Y0223127D01*
X0226422Y0223177D01*
X0226321Y0223177D01*
X0226321Y0223227D01*
X0226271Y0223227D01*
X0226221Y0223227D01*
X0226221Y0223277D01*
X022612Y0223277D01*
X022612Y0223327D01*
X022602Y0223327D01*
X022602Y0223378D01*
X022597Y0223378D01*
X022597Y0223428D01*
X0225919Y0223428D01*
X0225869Y0223428D01*
X0225869Y0223478D01*
X0225769Y0223478D01*
X0225769Y0223528D01*
X0225668Y0223528D01*
X0225668Y0223578D01*
X0225618Y0223578D01*
X0225568Y0223578D01*
X0225568Y0223629D01*
X0225468Y0223629D01*
X0225468Y0223679D01*
X0225367Y0223679D01*
X0225367Y0223729D01*
X0225267Y0223729D01*
X0225267Y0223779D01*
X0225217Y0223779D01*
X0225166Y0223779D01*
X0225166Y0223829D01*
X0225116Y0223829D01*
X0225116Y022388D01*
X0225016Y022388D01*
X0225016Y022393D01*
X0224915Y022393D01*
X0224915Y022398D01*
X0224815Y022398D01*
X0224815Y022403D01*
X0224765Y022403D01*
X0224715Y022403D01*
X0224715Y022408D01*
X0224664Y022408D01*
X0224614Y022408D01*
X0224614Y0224131D01*
X0224564Y0224131D01*
X0224514Y0224131D01*
X0224514Y0224181D01*
X0224464Y0224181D01*
X0224413Y0224181D01*
X0224413Y0224231D01*
X0224363Y0224231D01*
X0224363Y0224281D01*
X0224313Y0224281D01*
X0224263Y0224281D01*
X0224263Y0224331D01*
X0224213Y0224331D01*
X0224162Y0224331D01*
X0224162Y0224382D01*
X0224112Y0224382D01*
X0224062Y0224382D01*
X0224062Y0224432D01*
X0223961Y0224432D01*
X0223961Y0224783D01*
X0224062Y0224783D01*
X0224062Y0224733D01*
X0224062Y0224733D02*
G37*
G36*
X0224012Y0225235D02*
X0224112Y0225235D01*
X0224112Y0225185D01*
X0224162Y0225185D01*
X0224213Y0225185D01*
X0224213Y0225135D01*
X0224263Y0225135D01*
X0224313Y0225135D01*
X0224313Y0225085D01*
X0224413Y0225085D01*
X0224413Y0225034D01*
X0224464Y0225034D01*
X0224514Y0225034D01*
X0224514Y0224984D01*
X0224564Y0224984D01*
X0224614Y0224984D01*
X0224614Y0224934D01*
X0224715Y0224934D01*
X0224715Y0224884D01*
X0224765Y0224884D01*
X0224815Y0224884D01*
X0224815Y0224833D01*
X0224865Y0224833D01*
X0224865Y0224783D01*
X0224966Y0224783D01*
X0224966Y0224733D01*
X0225066Y0224733D01*
X0225066Y0224683D01*
X0225166Y0224683D01*
X0225166Y0224633D01*
X0225217Y0224633D01*
X0225267Y0224633D01*
X0225267Y0224582D01*
X0225367Y0224582D01*
X0225367Y0224532D01*
X0225468Y0224532D01*
X0225468Y0224482D01*
X0225518Y0224482D01*
X0225568Y0224482D01*
X0225568Y0224432D01*
X0225618Y0224432D01*
X0225618Y0224382D01*
X0225668Y0224382D01*
X0225719Y0224382D01*
X0225719Y0224331D01*
X0225769Y0224331D01*
X0225819Y0224331D01*
X0225819Y0224281D01*
X0225919Y0224281D01*
X0225919Y0224231D01*
X022597Y0224231D01*
X022602Y0224231D01*
X022602Y0224181D01*
X022612Y0224181D01*
X022612Y0224131D01*
X022617Y0224131D01*
X0226221Y0224131D01*
X0226221Y022408D01*
X0226271Y022408D01*
X0226321Y022408D01*
X0226321Y022403D01*
X0226422Y022403D01*
X0226422Y022398D01*
X0226472Y022398D01*
X0226472Y022393D01*
X0226572Y022393D01*
X0226622Y022393D01*
X0226622Y022388D01*
X0226673Y022388D01*
X0226673Y0223829D01*
X0226723Y0223829D01*
X0226773Y0223829D01*
X0226773Y0223779D01*
X0226823Y0223779D01*
X0226873Y0223779D01*
X0226873Y0223729D01*
X0226924Y0223729D01*
X0226974Y0223729D01*
X0226974Y0223679D01*
X0227074Y0223679D01*
X0227074Y0223629D01*
X0227124Y0223629D01*
X0227175Y0223629D01*
X0227175Y0223578D01*
X0227225Y0223578D01*
X0227275Y0223578D01*
X0227275Y0223528D01*
X0227375Y0223528D01*
X0227375Y0223478D01*
X0227426Y0223478D01*
X0227476Y0223478D01*
X0227476Y0223428D01*
X0227526Y0223428D01*
X0227526Y0223378D01*
X0227626Y0223378D01*
X0227626Y0223327D01*
X0227677Y0223327D01*
X0227727Y0223327D01*
X0227727Y0223277D01*
X0227777Y0223277D01*
X0227827Y0223277D01*
X0227827Y0223227D01*
X0227928Y0223227D01*
X0227928Y0223177D01*
X0228028Y0223177D01*
X0228028Y0223127D01*
X0228078Y0223127D01*
X0228128Y0223127D01*
X0228128Y0223076D01*
X0228179Y0223076D01*
X0228229Y0223076D01*
X0228229Y0223026D01*
X0228279Y0223026D01*
X0228329Y0223026D01*
X0228329Y0222976D01*
X022838Y0222976D01*
X022838Y0222926D01*
X022848Y0222926D01*
X022848Y0222876D01*
X022858Y0222876D01*
X022858Y0222825D01*
X0228681Y0222825D01*
X0228681Y0222775D01*
X0228781Y0222775D01*
X0228781Y0222725D01*
X0228882Y0222725D01*
X0228882Y0222675D01*
X0228932Y0222675D01*
X0228982Y0222675D01*
X0228982Y0222624D01*
X0229082Y0222624D01*
X0229082Y0222574D01*
X0229133Y0222574D01*
X0229183Y0222574D01*
X0229183Y0222524D01*
X0229233Y0222524D01*
X0229283Y0222524D01*
X0229283Y0222474D01*
X0229384Y0222474D01*
X0229384Y0222424D01*
X0229333Y0222424D01*
X0229333Y0222373D01*
X0229283Y0222373D01*
X0229233Y0222373D01*
X0229233Y0222323D01*
X0229133Y0222323D01*
X0229133Y0222273D01*
X0229082Y0222273D01*
X0229082Y0222323D01*
X0229032Y0222323D01*
X0228982Y0222323D01*
X0228982Y0222373D01*
X0228932Y0222373D01*
X0228882Y0222373D01*
X0228882Y0222424D01*
X0228781Y0222424D01*
X0228781Y0222474D01*
X0228681Y0222474D01*
X0228681Y0222524D01*
X022858Y0222524D01*
X022858Y0222574D01*
X022853Y0222574D01*
X022853Y0222624D01*
X022843Y0222624D01*
X022843Y0222675D01*
X0228329Y0222675D01*
X0228329Y0222725D01*
X0228229Y0222725D01*
X0228229Y0222775D01*
X0228128Y0222775D01*
X0228128Y0222825D01*
X0228028Y0222825D01*
X0228028Y0222876D01*
X0227978Y0222876D01*
X0227928Y0222876D01*
X0227928Y0222926D01*
X0227827Y0222926D01*
X0227827Y0222976D01*
X0227777Y0222976D01*
X0227777Y0223026D01*
X0227677Y0223026D01*
X0227677Y0223076D01*
X0227626Y0223076D01*
X0227576Y0223076D01*
X0227576Y0223127D01*
X0227526Y0223127D01*
X0227476Y0223127D01*
X0227476Y0223177D01*
X0227375Y0223177D01*
X0227375Y0223227D01*
X0227325Y0223227D01*
X0227275Y0223227D01*
X0227275Y0223277D01*
X0227225Y0223277D01*
X0227175Y0223277D01*
X0227175Y0223327D01*
X0227124Y0223327D01*
X0227074Y0223327D01*
X0227074Y0223378D01*
X0227024Y0223378D01*
X0227024Y0223428D01*
X0226924Y0223428D01*
X0226924Y0223478D01*
X0226873Y0223478D01*
X0226823Y0223478D01*
X0226823Y0223528D01*
X0226723Y0223528D01*
X0226723Y0223578D01*
X0226622Y0223578D01*
X0226622Y0223629D01*
X0226572Y0223629D01*
X0226522Y0223629D01*
X0226522Y0223679D01*
X0226422Y0223679D01*
X0226422Y0223729D01*
X0226321Y0223729D01*
X0226321Y0223779D01*
X0226271Y0223779D01*
X0226221Y0223779D01*
X0226221Y0223829D01*
X022617Y0223829D01*
X022617Y022388D01*
X022612Y022388D01*
X022607Y022388D01*
X022607Y022393D01*
X022602Y022393D01*
X022597Y022393D01*
X022597Y022398D01*
X0225869Y022398D01*
X0225869Y022403D01*
X0225769Y022403D01*
X0225769Y022408D01*
X0225719Y022408D01*
X0225668Y022408D01*
X0225668Y0224131D01*
X0225618Y0224131D01*
X0225568Y0224131D01*
X0225568Y0224181D01*
X0225468Y0224181D01*
X0225468Y0224231D01*
X0225417Y0224231D01*
X0225417Y0224281D01*
X0225367Y0224281D01*
X0225317Y0224281D01*
X0225317Y0224331D01*
X0225267Y0224331D01*
X0225217Y0224331D01*
X0225217Y0224382D01*
X0225166Y0224382D01*
X0225116Y0224382D01*
X0225116Y0224432D01*
X0225016Y0224432D01*
X0225016Y0224482D01*
X0224966Y0224482D01*
X0224915Y0224482D01*
X0224915Y0224532D01*
X0224815Y0224532D01*
X0224815Y0224582D01*
X0224715Y0224582D01*
X0224715Y0224633D01*
X0224664Y0224633D01*
X0224664Y0224683D01*
X0224564Y0224683D01*
X0224564Y0224733D01*
X0224464Y0224733D01*
X0224464Y0224783D01*
X0224363Y0224783D01*
X0224363Y0224833D01*
X0224263Y0224833D01*
X0224263Y0224884D01*
X0224162Y0224884D01*
X0224162Y0224934D01*
X0224112Y0224934D01*
X0224062Y0224934D01*
X0224062Y0224984D01*
X0223961Y0224984D01*
X0223961Y0225285D01*
X0224012Y0225285D01*
X0224012Y0225235D01*
X0224012Y0225235D02*
G37*
G36*
X0225769Y0237937D02*
X0225719Y0237937D01*
X0225668Y0237937D01*
X0225668Y0237887D01*
X0225317Y0237887D01*
X0225317Y0237837D01*
X0225066Y0237837D01*
X0225016Y0237837D01*
X0225016Y0237786D01*
X0224966Y0237786D01*
X0224915Y0237786D01*
X0224865Y0237786D01*
X0224765Y0237786D01*
X0224715Y0237786D01*
X0224715Y0237736D01*
X0224765Y0237736D01*
X0224765Y0237686D01*
X0224915Y0237686D01*
X0224915Y0237636D01*
X0225066Y0237636D01*
X0225066Y0237585D01*
X0225166Y0237585D01*
X0225166Y0237535D01*
X0225217Y0237535D01*
X0225267Y0237535D01*
X0225317Y0237535D01*
X0225317Y0237485D01*
X0225417Y0237485D01*
X0225417Y0237435D01*
X0225568Y0237435D01*
X0225568Y0237385D01*
X0225618Y0237385D01*
X0225668Y0237385D01*
X0225668Y0237334D01*
X0225769Y0237334D01*
X0225769Y0236782D01*
X0225719Y0236782D01*
X0225668Y0236782D01*
X0225618Y0236782D01*
X0225618Y0236732D01*
X0225468Y0236732D01*
X0225417Y0236732D01*
X0225367Y0236732D01*
X0225267Y0236732D01*
X0225267Y0236682D01*
X0224915Y0236682D01*
X0224915Y0236632D01*
X0224765Y0236632D01*
X0224715Y0236632D01*
X0224664Y0236632D01*
X0224614Y0236632D01*
X0224614Y0236581D01*
X0224564Y0236581D01*
X0224514Y0236581D01*
X0224464Y0236581D01*
X0224413Y0236581D01*
X0224363Y0236581D01*
X0224313Y0236581D01*
X0224213Y0236581D01*
X0224213Y0236531D01*
X0223961Y0236531D01*
X0223961Y0236883D01*
X0224012Y0236883D01*
X0224012Y0236933D01*
X0224062Y0236933D01*
X0224112Y0236933D01*
X0224162Y0236933D01*
X0224263Y0236933D01*
X0224313Y0236933D01*
X0224363Y0236933D01*
X0224363Y0236983D01*
X0224715Y0236983D01*
X0224715Y0237033D01*
X0225066Y0237033D01*
X0225066Y0237083D01*
X0225217Y0237083D01*
X0225217Y0237134D01*
X0225166Y0237134D01*
X0225166Y0237184D01*
X0225016Y0237184D01*
X0225016Y0237234D01*
X0224966Y0237234D01*
X0224915Y0237234D01*
X0224915Y0237284D01*
X0224765Y0237284D01*
X0224765Y0237334D01*
X0224664Y0237334D01*
X0224664Y0237385D01*
X0224614Y0237385D01*
X0224514Y0237385D01*
X0224514Y0237435D01*
X0224413Y0237435D01*
X0224413Y0237485D01*
X0224263Y0237485D01*
X0224263Y0237535D01*
X0224213Y0237535D01*
X0224162Y0237535D01*
X0224162Y0237585D01*
X0224112Y0237585D01*
X0224012Y0237585D01*
X0224012Y0237636D01*
X0223961Y0237636D01*
X0223961Y0238037D01*
X0224112Y0238037D01*
X0224112Y0238088D01*
X0224413Y0238088D01*
X0224413Y0238138D01*
X0224464Y0238138D01*
X0224514Y0238138D01*
X0224564Y0238138D01*
X0224614Y0238138D01*
X0224664Y0238138D01*
X0224715Y0238138D01*
X0224765Y0238138D01*
X0224765Y0238188D01*
X0225116Y0238188D01*
X0225116Y0238238D01*
X0225367Y0238238D01*
X0225417Y0238238D01*
X0225468Y0238238D01*
X0225468Y0238288D01*
X0225568Y0238288D01*
X0225618Y0238288D01*
X0225668Y0238288D01*
X0225719Y0238288D01*
X0225769Y0238288D01*
X0225769Y0237937D01*
X0225769Y0237937D02*
G37*
G36*
X0225769Y0238539D02*
X0225719Y0238539D01*
X0225668Y0238539D01*
X0225618Y0238539D01*
X0225618Y0238489D01*
X0225568Y0238489D01*
X0225518Y0238489D01*
X0225468Y0238489D01*
X0225468Y023874D01*
X0225417Y023874D01*
X0225367Y023874D01*
X0225166Y023874D01*
X0225166Y023869D01*
X0225116Y023869D01*
X0225066Y023869D01*
X0225016Y023869D01*
X0224966Y023869D01*
X0224915Y023869D01*
X0224865Y023869D01*
X0224865Y023864D01*
X0224715Y023864D01*
X0224664Y023864D01*
X0224614Y023864D01*
X0224514Y023864D01*
X0224514Y023859D01*
X0224263Y023859D01*
X0224263Y0238288D01*
X0224213Y0238288D01*
X0224162Y0238288D01*
X0224112Y0238288D01*
X0224062Y0238288D01*
X0224012Y0238288D01*
X0223961Y0238288D01*
X0223961Y0239242D01*
X0224012Y0239242D01*
X0224062Y0239242D01*
X0224263Y0239242D01*
X0224263Y0238991D01*
X0224363Y0238991D01*
X0224413Y0238991D01*
X0224413Y0239041D01*
X0224564Y0239041D01*
X0224614Y0239041D01*
X0224664Y0239041D01*
X0224715Y0239041D01*
X0224715Y0239092D01*
X0225116Y0239092D01*
X0225116Y0239142D01*
X0225166Y0239142D01*
X0225217Y0239142D01*
X0225417Y0239142D01*
X0225417Y0239192D01*
X0225468Y0239192D01*
X0225468Y0239443D01*
X0225668Y0239443D01*
X0225668Y0239493D01*
X0225719Y0239493D01*
X0225769Y0239493D01*
X0225769Y0238539D01*
X0225769Y0238539D02*
G37*
G36*
X0225769Y0231611D02*
X0225719Y0231611D01*
X0225668Y0231611D01*
X0225668Y0231511D01*
X0225719Y0231511D01*
X0225719Y023141D01*
X0225769Y023141D01*
X0225769Y0231209D01*
X0225819Y0231209D01*
X0225819Y0230808D01*
X0225769Y0230808D01*
X0225769Y0230607D01*
X0225719Y0230607D01*
X0225719Y0230507D01*
X0225668Y0230507D01*
X0225668Y0230456D01*
X0225618Y0230456D01*
X0225618Y0230356D01*
X0225568Y0230356D01*
X0225568Y0230306D01*
X0225518Y0230306D01*
X0225518Y0230256D01*
X0225468Y0230256D01*
X0225468Y0230205D01*
X0225417Y0230205D01*
X0225367Y0230205D01*
X0225367Y0230155D01*
X0225317Y0230155D01*
X0225317Y0230105D01*
X0225267Y0230105D01*
X0225217Y0230105D01*
X0225217Y0230055D01*
X0225066Y0230055D01*
X0225066Y0230005D01*
X0225016Y0230005D01*
X0224966Y0230005D01*
X0224915Y0230005D01*
X0224865Y0230005D01*
X0224815Y0230005D01*
X0224765Y0230005D01*
X0224715Y0230005D01*
X0224664Y0230005D01*
X0224664Y0229954D01*
X0224614Y0229954D01*
X0224614Y0230005D01*
X0224564Y0230005D01*
X0224514Y0230005D01*
X0224464Y0230005D01*
X0224413Y0230005D01*
X0224363Y0230005D01*
X0224363Y0230055D01*
X0224213Y0230055D01*
X0224213Y0230105D01*
X0224162Y0230105D01*
X0224162Y0230155D01*
X0224112Y0230155D01*
X0224112Y0230205D01*
X0224062Y0230205D01*
X0224062Y0230306D01*
X0224012Y0230306D01*
X0224012Y0230406D01*
X0223961Y0230406D01*
X0223961Y0230657D01*
X0223911Y0230657D01*
X0223911Y0230808D01*
X0223961Y0230808D01*
X0223961Y0231109D01*
X0224012Y0231109D01*
X0224012Y023126D01*
X0224062Y023126D01*
X0224062Y023136D01*
X0224313Y023136D01*
X0224313Y023141D01*
X0224464Y023141D01*
X0224464Y023136D01*
X0224413Y023136D01*
X0224413Y023126D01*
X0224363Y023126D01*
X0224363Y0231159D01*
X0224313Y0231159D01*
X0224313Y0231109D01*
X0224263Y0231109D01*
X0224263Y0230657D01*
X0224313Y0230657D01*
X0224313Y0230557D01*
X0224363Y0230557D01*
X0224363Y0230507D01*
X0224413Y0230507D01*
X0224464Y0230507D01*
X0224464Y0230456D01*
X0224564Y0230456D01*
X0224564Y0230406D01*
X0224664Y0230406D01*
X0224715Y0230406D01*
X0224765Y0230406D01*
X0224815Y0230406D01*
X0224865Y0230406D01*
X0224915Y0230406D01*
X0224915Y0230456D01*
X0225066Y0230456D01*
X0225066Y0230507D01*
X0225116Y0230507D01*
X0225166Y0230507D01*
X0225217Y0230507D01*
X0225217Y0230557D01*
X0225267Y0230557D01*
X0225267Y0230607D01*
X0225317Y0230607D01*
X0225317Y0230657D01*
X0225367Y0230657D01*
X0225367Y0230707D01*
X0225417Y0230707D01*
X0225417Y0230758D01*
X0225468Y0230758D01*
X0225468Y0230958D01*
X0225518Y0230958D01*
X0225518Y0231109D01*
X0225468Y0231109D01*
X0225468Y023126D01*
X0225417Y023126D01*
X0225417Y023136D01*
X0225367Y023136D01*
X0225367Y023141D01*
X0225317Y023141D01*
X0225317Y0231461D01*
X0225267Y0231461D01*
X0225267Y0231511D01*
X0225317Y0231511D01*
X0225317Y0231561D01*
X0225367Y0231561D01*
X0225417Y0231561D01*
X0225468Y0231561D01*
X0225468Y0232113D01*
X0225417Y0232113D01*
X0225317Y0232113D01*
X0225317Y0232063D01*
X0225166Y0232063D01*
X0225116Y0232063D01*
X0225066Y0232063D01*
X0224966Y0232063D01*
X0224966Y0232013D01*
X0224765Y0232013D01*
X0224715Y0232013D01*
X0224664Y0232013D01*
X0224664Y0231963D01*
X0224564Y0231963D01*
X0224514Y0231963D01*
X0224464Y0231963D01*
X0224413Y0231963D01*
X0224363Y0231963D01*
X0224313Y0231963D01*
X0224313Y0231912D01*
X0224263Y0231912D01*
X0224162Y0231912D01*
X0224112Y0231912D01*
X0224062Y0231912D01*
X0224012Y0231912D01*
X0223961Y0231912D01*
X0223961Y0232314D01*
X0224012Y0232314D01*
X0224062Y0232314D01*
X0224112Y0232314D01*
X0224162Y0232314D01*
X0224213Y0232314D01*
X0224213Y0232364D01*
X0224514Y0232364D01*
X0224514Y0232414D01*
X0224564Y0232414D01*
X0224614Y0232414D01*
X0224664Y0232414D01*
X0224715Y0232414D01*
X0224765Y0232414D01*
X0224815Y0232414D01*
X0224865Y0232414D01*
X0224865Y0232465D01*
X0224915Y0232465D01*
X0224966Y0232465D01*
X0225016Y0232465D01*
X0225066Y0232465D01*
X0225166Y0232465D01*
X0225166Y0232515D01*
X0225468Y0232515D01*
X0225468Y0233067D01*
X0225618Y0233067D01*
X0225618Y0233117D01*
X0225668Y0233117D01*
X0225719Y0233117D01*
X0225769Y0233117D01*
X0225769Y0231611D01*
X0225769Y0231611D02*
G37*
G36*
X0224012Y0234573D02*
X0224062Y0234573D01*
X0224062Y0234523D01*
X0224112Y0234523D01*
X0224112Y0234473D01*
X0224162Y0234473D01*
X0224213Y0234473D01*
X0224213Y0234423D01*
X0224313Y0234423D01*
X0224313Y0234372D01*
X0224363Y0234372D01*
X0224363Y0234322D01*
X0224413Y0234322D01*
X0224464Y0234322D01*
X0224464Y0234272D01*
X0224514Y0234272D01*
X0224514Y0234222D01*
X0224614Y0234222D01*
X0224614Y0234172D01*
X0224664Y0234172D01*
X0224664Y0234121D01*
X0224765Y0234121D01*
X0224765Y0234222D01*
X0224815Y0234222D01*
X0224815Y0234272D01*
X0224865Y0234272D01*
X0224865Y0234372D01*
X0224966Y0234372D01*
X0224966Y0234423D01*
X0225016Y0234423D01*
X0225016Y0234473D01*
X0225066Y0234473D01*
X0225116Y0234473D01*
X0225116Y0234523D01*
X0225166Y0234523D01*
X0225217Y0234523D01*
X0225267Y0234523D01*
X0225317Y0234523D01*
X0225317Y0234573D01*
X0225367Y0234573D01*
X0225417Y0234573D01*
X0225468Y0234573D01*
X0225468Y0234523D01*
X0225568Y0234523D01*
X0225568Y0234473D01*
X0225618Y0234473D01*
X0225618Y0234423D01*
X0225668Y0234423D01*
X0225668Y0234372D01*
X0225719Y0234372D01*
X0225719Y0234272D01*
X0225769Y0234272D01*
X0225769Y0233218D01*
X0225468Y0233218D01*
X0225468Y0233167D01*
X0225417Y0233167D01*
X0225367Y0233167D01*
X0225317Y0233167D01*
X0225166Y0233167D01*
X0225166Y0233117D01*
X0225116Y0233117D01*
X0225066Y0233117D01*
X0225016Y0233117D01*
X0224966Y0233117D01*
X0224915Y0233117D01*
X0224865Y0233117D01*
X0224815Y0233117D01*
X0224815Y0233067D01*
X0224564Y0233067D01*
X0224514Y0233067D01*
X0224464Y0233067D01*
X0224464Y0233017D01*
X0224363Y0233017D01*
X0224313Y0233017D01*
X0224263Y0233017D01*
X0224162Y0233017D01*
X0224112Y0233017D01*
X0224112Y0232967D01*
X0223961Y0232967D01*
X0223961Y0233368D01*
X0224012Y0233368D01*
X0224012Y0233418D01*
X0224263Y0233418D01*
X0224313Y0233419D01*
X0224363Y0233418D01*
X0224363Y0233469D01*
X0224413Y0233469D01*
X0224464Y0233469D01*
X0224514Y0233469D01*
X0224564Y0233469D01*
X0224614Y0233469D01*
X0224614Y0233519D01*
X0224664Y0233519D01*
X0224664Y023367D01*
X0224614Y023367D01*
X0224614Y023372D01*
X0224514Y023372D01*
X0224514Y023377D01*
X0224464Y023377D01*
X0224464Y023382D01*
X0224413Y023382D01*
X0224363Y023382D01*
X0224363Y023387D01*
X0224263Y023387D01*
X0224263Y0233921D01*
X0224213Y0233921D01*
X0224213Y0233971D01*
X0224162Y0233971D01*
X0224112Y0233971D01*
X0224112Y0234021D01*
X0224012Y0234021D01*
X0224012Y0234071D01*
X0223961Y0234071D01*
X0223961Y0234623D01*
X0224012Y0234623D01*
X0224012Y0234573D01*
X0224012Y0234573D02*
G37*
G36*
X0225769Y0230005D02*
X0225769Y02288D01*
X0225719Y02288D01*
X0225668Y02288D01*
X0225618Y02288D01*
X0225618Y0228749D01*
X0225568Y0228749D01*
X0225518Y0228749D01*
X0225317Y0228749D01*
X0225317Y0228699D01*
X0224966Y0228699D01*
X0224966Y0228649D01*
X0224865Y0228649D01*
X0224815Y0228649D01*
X0224765Y0228649D01*
X0224715Y0228649D01*
X0224664Y0228649D01*
X0224614Y0228649D01*
X0224614Y0228599D01*
X0224363Y0228599D01*
X0224313Y0228599D01*
X0224263Y0228599D01*
X0224263Y0228549D01*
X0223961Y0228549D01*
X0223961Y0229754D01*
X0224263Y0229754D01*
X0224263Y0229D01*
X0224313Y0229D01*
X0224363Y0229D01*
X0224514Y0229D01*
X0224514Y0229051D01*
X0224765Y0229051D01*
X0224765Y0229804D01*
X0224815Y0229804D01*
X0224865Y0229804D01*
X0224915Y0229804D01*
X0225066Y0229804D01*
X0225116Y0229804D01*
X0225116Y0229101D01*
X0225217Y0229101D01*
X0225217Y0229151D01*
X0225267Y0229151D01*
X0225317Y0229151D01*
X0225367Y0229151D01*
X0225468Y0229151D01*
X0225468Y0229954D01*
X0225518Y0229954D01*
X0225618Y0229954D01*
X0225668Y0229954D01*
X0225719Y0229954D01*
X0225719Y0230005D01*
X0225769Y0230005D01*
X0225769Y0230005D02*
G37*
G36*
X0227928Y0230958D02*
X0227978Y0230958D01*
X0227978Y0230908D01*
X0228028Y0230908D01*
X0228028Y0230707D01*
X0228078Y0230707D01*
X0228078Y0229804D01*
X0228028Y0229804D01*
X0227978Y0229804D01*
X0227928Y0229804D01*
X0227827Y0229804D01*
X0227827Y0229754D01*
X0227576Y0229754D01*
X0227576Y0229703D01*
X0227375Y0229703D01*
X0227375Y0229653D01*
X0227275Y0229653D01*
X0227225Y0229653D01*
X0227175Y0229653D01*
X0227124Y0229653D01*
X0227124Y0229603D01*
X0226924Y0229603D01*
X0226924Y0229553D01*
X0226622Y0229553D01*
X0226622Y0229503D01*
X0226572Y0229503D01*
X0226522Y0229503D01*
X0226472Y0229503D01*
X0226422Y0229503D01*
X0226422Y0229452D01*
X0226371Y0229452D01*
X0226321Y0229452D01*
X0226321Y0230507D01*
X0226371Y0230507D01*
X0226371Y0230607D01*
X0226422Y0230607D01*
X0226422Y0230707D01*
X0226472Y0230707D01*
X0226472Y0230758D01*
X0226522Y0230758D01*
X0226522Y0230808D01*
X0226572Y0230808D01*
X0226572Y0230858D01*
X0226622Y0230858D01*
X0226622Y0230908D01*
X0226673Y0230908D01*
X0226723Y0230908D01*
X0226773Y0230908D01*
X0226773Y0230958D01*
X0226823Y0230958D01*
X0227124Y0230958D01*
X0227124Y0230908D01*
X0227175Y0230908D01*
X0227175Y0230858D01*
X0227225Y0230858D01*
X0227225Y0230707D01*
X0227275Y0230707D01*
X0227325Y0230707D01*
X0227325Y0230808D01*
X0227375Y0230808D01*
X0227375Y0230858D01*
X0227426Y0230858D01*
X0227426Y0230908D01*
X0227476Y0230908D01*
X0227476Y0230958D01*
X0227576Y0230958D01*
X0227576Y0231009D01*
X0227777Y0231009D01*
X0227827Y0231009D01*
X0227877Y0231009D01*
X0227928Y0231009D01*
X0227928Y0230958D01*
X0227928Y0230958D02*
G37*
G36*
X0228078Y023136D02*
X0228028Y023136D01*
X0228028Y023131D01*
X0227777Y023131D01*
X0227777Y0231561D01*
X0227727Y0231561D01*
X0227727Y0231511D01*
X0227526Y0231511D01*
X0227526Y0231461D01*
X0227325Y0231461D01*
X0227275Y0231461D01*
X0227275Y023141D01*
X0227225Y023141D01*
X0227175Y023141D01*
X0227024Y023141D01*
X0227024Y023136D01*
X0226823Y023136D01*
X0226823Y023131D01*
X0226572Y023131D01*
X0226572Y0231009D01*
X0226472Y0231009D01*
X0226422Y0231009D01*
X0226371Y0231009D01*
X0226371Y0230958D01*
X0226321Y0230958D01*
X0226321Y0231912D01*
X0226371Y0231912D01*
X0226422Y0231912D01*
X0226522Y0231912D01*
X0226522Y0231963D01*
X0226572Y0231963D01*
X0226572Y0231712D01*
X0226622Y0231712D01*
X0226673Y0231712D01*
X0226723Y0231712D01*
X0226773Y0231712D01*
X0226773Y0231762D01*
X0226974Y0231762D01*
X0226974Y0231812D01*
X0227225Y0231812D01*
X0227225Y0231862D01*
X0227426Y0231862D01*
X0227426Y0231912D01*
X0227476Y0231912D01*
X0227526Y0231912D01*
X0227576Y0231912D01*
X0227626Y0231912D01*
X0227677Y0231912D01*
X0227677Y0231963D01*
X0227727Y0231963D01*
X0227777Y0231963D01*
X0227777Y0232214D01*
X0227928Y0232214D01*
X0227928Y0232264D01*
X0227978Y0232264D01*
X0228028Y0232264D01*
X0228078Y0232264D01*
X0228078Y023136D01*
X0228078Y023136D02*
G37*
G36*
X0228078Y0229D02*
X0227978Y0229D01*
X0227978Y022895D01*
X0227928Y022895D01*
X0227928Y02289D01*
X0227877Y02289D01*
X0227827Y02289D01*
X0227827Y022885D01*
X0227727Y022885D01*
X0227727Y02288D01*
X0227677Y02288D01*
X0227677Y0228749D01*
X0227626Y0228749D01*
X0227626Y0228699D01*
X0227526Y0228699D01*
X0227526Y0228649D01*
X0227476Y0228649D01*
X0227476Y0228599D01*
X0227375Y0228599D01*
X0227375Y0228549D01*
X0227325Y0228549D01*
X0227325Y0228498D01*
X0227225Y0228498D01*
X0227225Y0228448D01*
X0227175Y0228448D01*
X0227175Y0228398D01*
X0227375Y0228398D01*
X0227375Y0228348D01*
X0227426Y0228348D01*
X0227476Y0228348D01*
X0227526Y0228348D01*
X0227576Y0228348D01*
X0227576Y0228298D01*
X0227626Y0228298D01*
X0227677Y0228298D01*
X0227727Y0228298D01*
X0227777Y0228298D01*
X0227827Y0228298D01*
X0227827Y0228247D01*
X0227877Y0228247D01*
X0227928Y0228247D01*
X0227978Y0228247D01*
X0228028Y0228247D01*
X0228028Y0228197D01*
X0228078Y0228197D01*
X0228078Y0227745D01*
X0228028Y0227745D01*
X0228028Y0227695D01*
X0227978Y0227695D01*
X0227928Y0227695D01*
X0227877Y0227695D01*
X0227827Y0227695D01*
X0227827Y0227645D01*
X0227576Y0227645D01*
X0227576Y0227595D01*
X0227526Y0227595D01*
X0227476Y0227595D01*
X0227426Y0227595D01*
X0227375Y0227595D01*
X0227325Y0227595D01*
X0227325Y0227545D01*
X0227275Y0227545D01*
X0227225Y0227545D01*
X0227175Y0227545D01*
X0227124Y0227545D01*
X0227124Y0227494D01*
X0226873Y0227494D01*
X0226873Y0227444D01*
X0226823Y0227444D01*
X0226773Y0227444D01*
X0226723Y0227444D01*
X0226622Y0227444D01*
X0226622Y0227394D01*
X0226522Y0227394D01*
X0226472Y0227394D01*
X0226422Y0227394D01*
X0226371Y0227394D01*
X0226371Y0227344D01*
X0226321Y0227344D01*
X0226321Y0227745D01*
X0226422Y0227745D01*
X0226472Y0227745D01*
X0226472Y0227796D01*
X0226723Y0227796D01*
X0226723Y0227846D01*
X0226773Y0227846D01*
X0226823Y0227846D01*
X0226974Y0227846D01*
X0226974Y0227896D01*
X0227024Y0227896D01*
X0227074Y0227896D01*
X0227124Y0227896D01*
X0227175Y0227896D01*
X0227175Y0227946D01*
X0227225Y0227946D01*
X0227275Y0227946D01*
X0227325Y0227946D01*
X0227426Y0227946D01*
X0227426Y0227996D01*
X0227476Y0227996D01*
X0227476Y0228047D01*
X0227275Y0228047D01*
X0227225Y0228047D01*
X0227225Y0228097D01*
X0227074Y0228097D01*
X0227024Y0228097D01*
X0227024Y0228147D01*
X0226974Y0228147D01*
X0226924Y0228147D01*
X0226723Y0228147D01*
X0226723Y0228498D01*
X0226823Y0228498D01*
X0226823Y0228549D01*
X0226924Y0228549D01*
X0226924Y0228599D01*
X0226974Y0228599D01*
X0226974Y0228649D01*
X0227024Y0228649D01*
X0227074Y0228649D01*
X0227074Y0228699D01*
X0227124Y0228699D01*
X0227124Y0228749D01*
X0227175Y0228749D01*
X0227225Y0228749D01*
X0227225Y02288D01*
X0227275Y02288D01*
X0227325Y02288D01*
X0227325Y022885D01*
X0227375Y022885D01*
X0227375Y02289D01*
X0227426Y02289D01*
X0227476Y02289D01*
X0227476Y022895D01*
X0227275Y022895D01*
X0227225Y022895D01*
X0227225Y02289D01*
X0227175Y02289D01*
X0227124Y02289D01*
X0227024Y02289D01*
X0226974Y02289D01*
X0226974Y022885D01*
X0226773Y022885D01*
X0226773Y02288D01*
X0226673Y02288D01*
X0226622Y02288D01*
X0226572Y02288D01*
X0226522Y02288D01*
X0226522Y0228749D01*
X0226472Y0228749D01*
X0226422Y0228749D01*
X0226371Y0228749D01*
X0226321Y0228749D01*
X0226321Y0229151D01*
X0226371Y0229151D01*
X0226422Y0229151D01*
X0226472Y0229151D01*
X0226472Y0229201D01*
X0226723Y0229201D01*
X0226723Y0229251D01*
X0226974Y0229251D01*
X0226974Y0229302D01*
X0227024Y0229302D01*
X0227074Y0229302D01*
X0227124Y0229302D01*
X0227175Y0229302D01*
X0227175Y0229352D01*
X0227375Y0229352D01*
X0227426Y0229352D01*
X0227426Y0229402D01*
X0227476Y0229402D01*
X0227526Y0229402D01*
X0227677Y0229402D01*
X0227677Y0229452D01*
X0227727Y0229452D01*
X0227777Y0229452D01*
X0227928Y0229452D01*
X0227928Y0229503D01*
X0228078Y0229503D01*
X0228078Y0229D01*
X0228078Y0229D02*
G37*
G36*
X0289936Y0235871D02*
X0290014Y0235744D01*
X0289992Y0235571D01*
X0290019Y0235362D01*
X02901Y0235168D01*
X0290228Y0235D01*
X0290395Y0234872D01*
X029059Y0234792D01*
X0290799Y0234764D01*
X0291007Y0234792D01*
X0291202Y0234872D01*
X0291369Y0235D01*
X0291497Y0235168D01*
X0291578Y0235362D01*
X0291605Y0235571D01*
X0291583Y0235744D01*
X0291661Y0235871D01*
X0298598Y0235871D01*
X0299799Y0234671D01*
X0299799Y0234645D01*
X0299791Y0234571D01*
X0299791Y0227345D01*
X0299676Y0227291D01*
X0299636Y0227324D01*
X0299375Y0227464D01*
X0299093Y0227549D01*
X0298799Y0227578D01*
X0295599Y0227578D01*
X0295304Y0227549D01*
X0295022Y0227464D01*
X0294761Y0227324D01*
X0294533Y0227137D01*
X0294345Y0226908D01*
X0294206Y0226648D01*
X029412Y0226365D01*
X0294091Y0226071D01*
X0294091Y0218071D01*
X029412Y0217777D01*
X0294206Y0217494D01*
X0294345Y0217234D01*
X0294533Y0217005D01*
X0294761Y0216818D01*
X0295022Y0216678D01*
X0295304Y0216593D01*
X0295599Y0216564D01*
X0298799Y0216564D01*
X0299093Y0216593D01*
X0299375Y0216678D01*
X0299636Y0216818D01*
X0299684Y0216857D01*
X0299799Y0216803D01*
X0299799Y0207571D01*
X0297605Y0205378D01*
X0296349Y0205378D01*
X0296349Y0207346D01*
X0295104Y0207346D01*
X0293401Y0209049D01*
X0293203Y0209201D01*
X0292971Y0209297D01*
X0292724Y0209329D01*
X0285259Y0209329D01*
X028501Y0209297D01*
X0284875Y020924D01*
X0284779Y0209201D01*
X0284581Y0209049D01*
X0282953Y0207421D01*
X0281609Y0207421D01*
X0281609Y0206946D01*
X0281482Y0206903D01*
X0281381Y0207034D01*
X0281099Y020725D01*
X0280771Y0207386D01*
X0280419Y0207433D01*
X0280066Y0207386D01*
X0279738Y020725D01*
X0279456Y0207034D01*
X0279239Y0206752D01*
X0279212Y0206686D01*
X0279085Y0206686D01*
X0279058Y0206752D01*
X0278841Y0207034D01*
X0278559Y020725D01*
X0278231Y0207386D01*
X0277879Y0207433D01*
X0277526Y0207386D01*
X0277198Y020725D01*
X0276916Y0207034D01*
X0276699Y0206752D01*
X0276672Y0206686D01*
X0276545Y0206686D01*
X0276518Y0206752D01*
X0276301Y0207034D01*
X0276019Y020725D01*
X0275691Y0207386D01*
X0275339Y0207433D01*
X0274986Y0207386D01*
X0274658Y020725D01*
X0274376Y0207034D01*
X0274159Y0206752D01*
X0274132Y0206686D01*
X0274005Y0206686D01*
X0273978Y0206752D01*
X0273761Y0207034D01*
X0273479Y020725D01*
X0273151Y0207386D01*
X0272799Y0207433D01*
X0272446Y0207386D01*
X0272118Y020725D01*
X0271836Y0207034D01*
X0271619Y0206752D01*
X0271592Y0206686D01*
X0271465Y0206686D01*
X0271438Y0206752D01*
X0271221Y0207034D01*
X0270939Y020725D01*
X0270611Y0207386D01*
X0270259Y0207433D01*
X0269906Y0207386D01*
X0269578Y020725D01*
X0269296Y0207034D01*
X0269079Y0206752D01*
X0269052Y0206686D01*
X0268925Y0206686D01*
X0268898Y0206752D01*
X0268681Y0207034D01*
X0268399Y020725D01*
X0268071Y0207386D01*
X0267719Y0207433D01*
X0267366Y0207386D01*
X0267038Y020725D01*
X0266756Y0207034D01*
X0266539Y0206752D01*
X0266512Y0206686D01*
X0266385Y0206686D01*
X0266358Y0206752D01*
X0266141Y0207034D01*
X0265859Y020725D01*
X0265531Y0207386D01*
X0265178Y0207433D01*
X0264826Y0207386D01*
X0264498Y020725D01*
X0264216Y0207034D01*
X0263999Y0206752D01*
X0263972Y0206686D01*
X0263845Y0206686D01*
X0263818Y0206752D01*
X0263601Y0207034D01*
X0263319Y020725D01*
X0262991Y0207386D01*
X0262639Y0207433D01*
X0262286Y0207386D01*
X0261958Y020725D01*
X0261676Y0207034D01*
X0261459Y0206752D01*
X0261323Y0206423D01*
X0261277Y0206071D01*
X0261323Y0205719D01*
X0261412Y0205505D01*
X0261327Y0205378D01*
X0226391Y0205378D01*
X0224498Y0207271D01*
X0224499Y0217321D01*
X0225641Y0218463D01*
X0225761Y0218423D01*
X0225769Y0218362D01*
X022585Y0218168D01*
X0225978Y0218D01*
X0226145Y0217872D01*
X022634Y0217792D01*
X0226515Y0217769D01*
X0226555Y0217674D01*
X0226557Y021764D01*
X0226428Y0217542D01*
X02263Y0217374D01*
X0226219Y021718D01*
X0226192Y0216971D01*
X0226219Y0216762D01*
X0226298Y0216571D01*
X0226219Y021638D01*
X0226192Y0216171D01*
X0226219Y0215962D01*
X02263Y0215768D01*
X0226428Y02156D01*
X0226595Y0215472D01*
X022679Y0215392D01*
X0226999Y0215364D01*
X0227207Y0215392D01*
X0227402Y0215472D01*
X0227569Y02156D01*
X0227697Y0215768D01*
X0227778Y0215962D01*
X0227805Y0216171D01*
X0227778Y021638D01*
X0227699Y0216571D01*
X0227778Y0216762D01*
X0227805Y0216971D01*
X0227778Y021718D01*
X0227697Y0217374D01*
X0227569Y0217542D01*
X0227402Y021767D01*
X0227207Y021775D01*
X0227032Y0217774D01*
X0226992Y0217868D01*
X022699Y0217902D01*
X0227119Y0218D01*
X0227247Y0218168D01*
X0227328Y0218362D01*
X0227355Y0218571D01*
X0227355Y0218575D01*
X0227439Y0218671D01*
X0232215Y0218671D01*
X0232299Y0218575D01*
X0232292Y0218521D01*
X0232319Y0218312D01*
X02324Y0218118D01*
X0232528Y021795D01*
X0232695Y0217822D01*
X023289Y0217742D01*
X0233099Y0217714D01*
X0233307Y0217742D01*
X0233502Y0217822D01*
X0233558Y0217865D01*
X0240215Y0217865D01*
X024024Y0217738D01*
X0240195Y021772D01*
X0240028Y0217592D01*
X02399Y0217424D01*
X0239819Y021723D01*
X0239792Y0217021D01*
X0239819Y0216812D01*
X02399Y0216618D01*
X0240028Y021645D01*
X0240195Y0216322D01*
X0240205Y0216299D01*
X0240084Y0216007D01*
X0240037Y0215648D01*
X0240037Y0213898D01*
X0240084Y0213539D01*
X0240222Y0213205D01*
X0240443Y0212917D01*
X024073Y0212697D01*
X0241065Y0212558D01*
X0241424Y0212511D01*
X0243174Y0212511D01*
X0243532Y0212558D01*
X0243867Y0212697D01*
X0244154Y0212917D01*
X0244375Y0213205D01*
X0244513Y0213539D01*
X024456Y0213898D01*
X024456Y0215648D01*
X0244513Y0216007D01*
X0244375Y0216341D01*
X0244154Y0216629D01*
X0243867Y0216849D01*
X0243532Y0216988D01*
X0243526Y0216988D01*
X0243535Y0217115D01*
X0245274Y0217115D01*
X0245443Y0217138D01*
X0245509Y0217165D01*
X0245601Y0217203D01*
X0245675Y021726D01*
X0245794Y0217191D01*
X0245792Y0217171D01*
X0245819Y0216962D01*
X02459Y0216768D01*
X0246028Y02166D01*
X0246195Y0216472D01*
X024639Y0216392D01*
X0246599Y0216364D01*
X0246807Y0216392D01*
X0247002Y0216472D01*
X0247049Y0216508D01*
X0247095Y0216472D01*
X024729Y0216392D01*
X0247499Y0216364D01*
X0247707Y0216392D01*
X0247902Y0216472D01*
X0248069Y02166D01*
X0248197Y0216768D01*
X0248278Y0216962D01*
X0248305Y0217171D01*
X0248278Y021738D01*
X0248197Y0217574D01*
X0248069Y0217742D01*
X0247902Y021787D01*
X0247707Y021795D01*
X0247499Y0217978D01*
X024729Y021795D01*
X0247095Y021787D01*
X0247049Y0217834D01*
X0247002Y021787D01*
X0246807Y021795D01*
X0246599Y0217978D01*
X0246585Y0217976D01*
X0246526Y0218096D01*
X0246637Y0218207D01*
X0246707Y0218217D01*
X0246902Y0218297D01*
X0247069Y0218425D01*
X0247197Y0218593D01*
X024723Y0218671D01*
X0248352Y0218671D01*
X0248406Y0218494D01*
X0248545Y0218234D01*
X0248733Y0218005D01*
X0248961Y0217818D01*
X0249222Y0217678D01*
X0249504Y0217593D01*
X0249799Y0217564D01*
X0251679Y0217564D01*
X0251721Y0217459D01*
X0251724Y0217437D01*
X02516Y0217274D01*
X0251519Y021708D01*
X0251492Y0216871D01*
X0251519Y0216662D01*
X0251578Y0216521D01*
X0251519Y021638D01*
X0251492Y0216171D01*
X0251519Y0215962D01*
X02516Y0215768D01*
X0251728Y02156D01*
X0251895Y0215472D01*
X025209Y0215392D01*
X0252299Y0215364D01*
X0252507Y0215392D01*
X0252702Y0215472D01*
X0252869Y02156D01*
X0252997Y0215768D01*
X0253078Y0215962D01*
X0253105Y0216171D01*
X0253078Y021638D01*
X0253019Y0216521D01*
X0253078Y0216662D01*
X0253083Y0216697D01*
X0253205Y021673D01*
X0253228Y02167D01*
X0253395Y0216572D01*
X025359Y0216492D01*
X0253799Y0216464D01*
X0254007Y0216492D01*
X0254202Y0216572D01*
X0254369Y02167D01*
X0254497Y0216868D01*
X0254578Y0217062D01*
X0254605Y0217271D01*
X0254578Y021748D01*
X0254555Y0217535D01*
X0254555Y0217633D01*
X0255593Y0218671D01*
X0260424Y0218671D01*
X0260478Y02186D01*
X0260517Y021857D01*
X0260517Y021841D01*
X0260428Y0218342D01*
X02603Y0218174D01*
X0260219Y021798D01*
X0260192Y0217771D01*
X0260219Y0217562D01*
X02603Y0217368D01*
X0260428Y02172D01*
X0260595Y0217072D01*
X026079Y0216992D01*
X0260999Y0216964D01*
X0261207Y0216992D01*
X0261402Y0217072D01*
X0261569Y02172D01*
X0261697Y0217368D01*
X0261778Y0217562D01*
X0261805Y0217771D01*
X0261778Y021798D01*
X0261697Y0218174D01*
X0261569Y0218342D01*
X026153Y0218372D01*
X026153Y0218532D01*
X0261619Y02186D01*
X0261673Y0218671D01*
X0282899Y0218671D01*
X0285299Y0221071D01*
X0285299Y0222059D01*
X0285426Y0222137D01*
X0285599Y0222114D01*
X0285807Y0222142D01*
X0286002Y0222222D01*
X0286169Y022235D01*
X0286218Y0222415D01*
X0286379Y0222415D01*
X0286428Y022235D01*
X0286595Y0222222D01*
X028679Y0222142D01*
X0286999Y0222114D01*
X0287207Y0222142D01*
X0287402Y0222222D01*
X0287569Y022235D01*
X0287697Y0222518D01*
X0287778Y0222712D01*
X0287805Y0222921D01*
X0287778Y022313D01*
X0287697Y0223324D01*
X0287569Y0223492D01*
X0287402Y022362D01*
X0287207Y02237D01*
X0286999Y0223728D01*
X028679Y02237D01*
X0286595Y022362D01*
X0286428Y0223492D01*
X0286379Y0223427D01*
X0286218Y0223427D01*
X0286169Y0223492D01*
X0286002Y022362D01*
X0285807Y02237D01*
X0285599Y0223728D01*
X0285426Y0223705D01*
X0285299Y0223783D01*
X0285298Y0228593D01*
X0285305Y0228646D01*
X0285298Y0228699D01*
X0285298Y0233471D01*
X0287699Y0235871D01*
X0289936Y0235871D01*
X0289936Y0235871D02*
G37*
G36*
X0226371Y0227193D02*
X0226422Y0227193D01*
X0226723Y0227193D01*
X0226723Y0227143D01*
X0227175Y0227143D01*
X0227175Y0227093D01*
X0227375Y0227093D01*
X0227426Y0227093D01*
X0227476Y0227093D01*
X0227526Y0227093D01*
X0227526Y0227042D01*
X0227576Y0227042D01*
X0227626Y0227042D01*
X0227677Y0227042D01*
X0227727Y0227042D01*
X0227777Y0227042D01*
X0227827Y0227042D01*
X0227928Y0227042D01*
X0227978Y0227042D01*
X0227978Y0226992D01*
X0228078Y0226992D01*
X0228078Y022654D01*
X0228028Y022654D01*
X0228028Y022649D01*
X0227978Y022649D01*
X0227928Y022649D01*
X0227928Y022644D01*
X0227827Y022644D01*
X0227827Y022639D01*
X0227727Y022639D01*
X0227727Y022634D01*
X0227677Y022634D01*
X0227626Y022634D01*
X0227626Y0226289D01*
X0227526Y0226289D01*
X0227526Y0226239D01*
X0227476Y0226239D01*
X0227476Y0226189D01*
X0227375Y0226189D01*
X0227375Y0226139D01*
X0227275Y0226139D01*
X0227275Y0226089D01*
X0227175Y0226089D01*
X0227175Y0226038D01*
X0227124Y0226038D01*
X0227074Y0226038D01*
X0227074Y0225988D01*
X0227024Y0225988D01*
X0227024Y0225938D01*
X0226924Y0225938D01*
X0226924Y0225888D01*
X0226823Y0225888D01*
X0226823Y0225838D01*
X0226773Y0225838D01*
X0226723Y0225838D01*
X0226723Y0225787D01*
X0226622Y0225787D01*
X0226622Y0225737D01*
X0226572Y0225737D01*
X0226572Y0225687D01*
X0226472Y0225687D01*
X0226472Y0225637D01*
X0226422Y0225637D01*
X0226371Y0225637D01*
X0226371Y0225587D01*
X0226321Y0225587D01*
X0226321Y0225988D01*
X0226371Y0225988D01*
X0226371Y0226038D01*
X0226422Y0226038D01*
X0226472Y0226038D01*
X0226472Y0226089D01*
X0226572Y0226089D01*
X0226572Y0226139D01*
X0226622Y0226139D01*
X0226673Y0226139D01*
X0226673Y0226741D01*
X0226622Y0226741D01*
X0226622Y0226791D01*
X0226321Y0226791D01*
X0226321Y0227243D01*
X0226371Y0227243D01*
X0226371Y0227193D01*
X0226371Y0227193D02*
G37*
G36*
X0224263Y0227695D02*
X0224313Y0227695D01*
X0224313Y0227645D01*
X0224363Y0227645D01*
X0224363Y0227695D01*
X0224413Y0227695D01*
X0224464Y0227695D01*
X0224514Y0227695D01*
X0224564Y0227695D01*
X0224664Y0227695D01*
X0224664Y0227745D01*
X0224715Y0227745D01*
X0224765Y0227745D01*
X0224815Y0227745D01*
X0224865Y0227745D01*
X0225016Y0227745D01*
X0225016Y0227796D01*
X0225317Y0227796D01*
X0225367Y0227796D01*
X0225367Y0227846D01*
X0225417Y0227846D01*
X0225468Y0227846D01*
X0225568Y0227846D01*
X0225618Y0227846D01*
X0225668Y0227846D01*
X0225719Y0227846D01*
X0225719Y0227896D01*
X0225769Y0227896D01*
X0225769Y0227444D01*
X0225719Y0227444D01*
X0225568Y0227444D01*
X0225518Y0227444D01*
X0225518Y0227394D01*
X0225468Y0227394D01*
X0225417Y0227394D01*
X0225367Y0227394D01*
X0225317Y0227394D01*
X0225267Y0227394D01*
X0225217Y0227394D01*
X0225166Y0227394D01*
X0225116Y0227394D01*
X0225116Y0227344D01*
X0224815Y0227344D01*
X0224815Y0227294D01*
X0224564Y0227294D01*
X0224514Y0227294D01*
X0224464Y0227294D01*
X0224464Y0227243D01*
X0224413Y0227243D01*
X0224363Y0227243D01*
X0224213Y0227243D01*
X0224162Y0227243D01*
X0224112Y0227243D01*
X0224112Y0227193D01*
X0224062Y0227193D01*
X0224012Y0227193D01*
X0223961Y0227193D01*
X0223961Y0228398D01*
X0224263Y0228398D01*
X0224263Y0227695D01*
X0224263Y0227695D02*
G37*
G36*
X0263194Y0244671D02*
X0264099Y0243766D01*
X0264099Y0234871D01*
X0263099Y0233871D01*
X0258898Y0233871D01*
X0258099Y0234671D01*
X0258099Y0243871D01*
X0258898Y0244671D01*
X0263194Y0244671D01*
X0263194Y0244671D02*
G37*
G36*
X0228078Y023382D02*
X0228028Y023382D01*
X0228028Y023377D01*
X0227978Y023377D01*
X0227978Y023372D01*
X0227877Y023372D01*
X0227877Y023367D01*
X0227827Y023367D01*
X0227827Y0233619D01*
X0227727Y0233619D01*
X0227727Y0233569D01*
X0227626Y0233569D01*
X0227626Y0233519D01*
X0227576Y0233519D01*
X0227576Y0233469D01*
X0227526Y0233469D01*
X0227526Y0233418D01*
X0227476Y0233418D01*
X0227426Y0233418D01*
X0227426Y0233368D01*
X0227375Y0233368D01*
X0227325Y0233368D01*
X0227325Y0233318D01*
X0227275Y0233318D01*
X0227275Y0233268D01*
X0227225Y0233268D01*
X0227175Y0233268D01*
X0227175Y0233218D01*
X0227225Y0233218D01*
X0227225Y0233167D01*
X0227275Y0233167D01*
X0227325Y0233167D01*
X0227375Y0233167D01*
X0227426Y0233167D01*
X0227426Y0233117D01*
X0227476Y0233117D01*
X0227526Y0233117D01*
X0227576Y0233117D01*
X0227626Y0233117D01*
X0227677Y0233117D01*
X0227677Y0233067D01*
X0227877Y0233067D01*
X0227877Y0233017D01*
X0227928Y0233017D01*
X0228028Y0233017D01*
X0228078Y0233017D01*
X0228078Y0232515D01*
X0227978Y0232515D01*
X0227978Y0232465D01*
X0227827Y0232465D01*
X0227777Y0232465D01*
X0227727Y0232465D01*
X0227727Y0232414D01*
X0227677Y0232414D01*
X0227626Y0232414D01*
X0227576Y0232414D01*
X0227526Y0232414D01*
X0227476Y0232414D01*
X0227476Y0232364D01*
X0227426Y0232364D01*
X0227375Y0232364D01*
X0227275Y0232364D01*
X0227275Y0232314D01*
X0227225Y0232314D01*
X0227175Y0232314D01*
X0227024Y0232314D01*
X0227024Y0232264D01*
X0226974Y0232264D01*
X0226924Y0232264D01*
X0226873Y0232264D01*
X0226823Y0232264D01*
X0226773Y0232264D01*
X0226773Y0232214D01*
X0226723Y0232214D01*
X0226572Y0232214D01*
X0226572Y0232163D01*
X0226321Y0232163D01*
X0226321Y0232515D01*
X0226422Y0232515D01*
X0226422Y0232565D01*
X0226622Y0232565D01*
X0226622Y0232615D01*
X0226673Y0232615D01*
X0226723Y0232615D01*
X0226773Y0232615D01*
X0226823Y0232615D01*
X0226873Y0232615D01*
X0226873Y0232665D01*
X0226924Y0232665D01*
X0226974Y0232665D01*
X0227024Y0232665D01*
X0227074Y0232665D01*
X0227124Y0232665D01*
X0227124Y0232716D01*
X0227175Y0232716D01*
X0227225Y0232716D01*
X0227275Y0232716D01*
X0227325Y0232716D01*
X0227325Y0232766D01*
X0227375Y0232766D01*
X0227426Y0232766D01*
X0227476Y0232766D01*
X0227476Y0232816D01*
X0227325Y0232816D01*
X0227325Y0232866D01*
X0227225Y0232866D01*
X0227175Y0232866D01*
X0227124Y0232866D01*
X0227074Y0232866D01*
X0227074Y0232916D01*
X0227024Y0232916D01*
X0226974Y0232916D01*
X0226924Y0232916D01*
X0226823Y0232916D01*
X0226823Y0232967D01*
X0226723Y0232967D01*
X0226723Y0233268D01*
X0226773Y0233268D01*
X0226773Y0233318D01*
X0226823Y0233318D01*
X0226873Y0233318D01*
X0226873Y0233368D01*
X0226974Y0233368D01*
X0226974Y0233418D01*
X0227024Y0233418D01*
X0227024Y0233469D01*
X0227074Y0233469D01*
X0227124Y0233469D01*
X0227124Y0233519D01*
X0227175Y0233519D01*
X0227175Y0233569D01*
X0227275Y0233569D01*
X0227275Y0233619D01*
X0227325Y0233619D01*
X0227375Y0233619D01*
X0227375Y023367D01*
X0227426Y023367D01*
X0227426Y023372D01*
X0227476Y023372D01*
X0227476Y023377D01*
X0227426Y023377D01*
X0227375Y023377D01*
X0227375Y023372D01*
X0227124Y023372D01*
X0227124Y023367D01*
X0227074Y023367D01*
X0226924Y023367D01*
X0226924Y0233619D01*
X0226823Y0233619D01*
X0226773Y0233619D01*
X0226723Y0233619D01*
X0226673Y0233619D01*
X0226673Y0233569D01*
X0226422Y0233569D01*
X0226422Y0233519D01*
X0226321Y0233519D01*
X0226321Y0233921D01*
X0226371Y0233921D01*
X0226422Y0233921D01*
X0226422Y0233971D01*
X0226472Y0233971D01*
X0226522Y0233971D01*
X0226572Y0233971D01*
X0226622Y0233971D01*
X0226673Y0233971D01*
X0226673Y0234021D01*
X0226873Y0234021D01*
X0226873Y0234071D01*
X0227074Y0234071D01*
X0227124Y0234071D01*
X0227124Y0234121D01*
X0227325Y0234121D01*
X0227325Y0234172D01*
X0227375Y0234172D01*
X0227426Y0234172D01*
X0227476Y0234172D01*
X0227526Y0234172D01*
X0227576Y0234172D01*
X0227576Y0234222D01*
X0227626Y0234222D01*
X0227677Y0234222D01*
X0227727Y0234222D01*
X0227827Y0234222D01*
X0227827Y0234272D01*
X0228078Y0234272D01*
X0228078Y023382D01*
X0228078Y023382D02*
G37*
G36*
X0224062Y0220817D02*
X0224112Y0220817D01*
X0224162Y0220817D01*
X0224162Y0220767D01*
X0224062Y0220767D01*
X0224062Y0220717D01*
X0223961Y0220717D01*
X0223961Y0220867D01*
X0224012Y0220867D01*
X0224062Y0220867D01*
X0224062Y0220817D01*
X0224062Y0220817D02*
G37*
G36*
X0225869Y0220968D02*
X0225919Y0220968D01*
X022597Y0220968D01*
X022597Y0220918D01*
X022607Y0220918D01*
X022607Y0220867D01*
X022612Y0220867D01*
X022617Y0220867D01*
X022617Y0220817D01*
X0226271Y0220817D01*
X0226271Y0220767D01*
X0226221Y0220767D01*
X0226221Y0220717D01*
X022607Y0220717D01*
X022607Y0220667D01*
X022602Y0220667D01*
X022602Y0220616D01*
X0225869Y0220616D01*
X0225869Y0220667D01*
X0225819Y0220667D01*
X0225769Y0220667D01*
X0225769Y0220717D01*
X0225668Y0220717D01*
X0225668Y0220767D01*
X0225618Y0220767D01*
X0225618Y0220817D01*
X0225518Y0220817D01*
X0225518Y0220867D01*
X0225618Y0220867D01*
X0225618Y0220918D01*
X0225719Y0220918D01*
X0225719Y0220968D01*
X0225819Y0220968D01*
X0225819Y0221018D01*
X0225869Y0221018D01*
X0225869Y0220968D01*
X0225869Y0220968D02*
G37*
G36*
X0226472Y0221219D02*
X0226522Y0221219D01*
X0226572Y0221219D01*
X0226572Y0221169D01*
X0226622Y0221169D01*
X0226673Y0221169D01*
X0226673Y0221118D01*
X0226723Y0221118D01*
X0226723Y0221068D01*
X0226773Y0221068D01*
X0226773Y0221018D01*
X0226673Y0221018D01*
X0226673Y0220968D01*
X0226572Y0220968D01*
X0226572Y0220918D01*
X0226371Y0220918D01*
X0226371Y0220968D01*
X0226321Y0220968D01*
X0226271Y0220968D01*
X0226271Y0221018D01*
X022617Y0221018D01*
X022617Y0221068D01*
X022607Y0221068D01*
X022607Y0221169D01*
X022612Y0221169D01*
X022617Y0221169D01*
X0226171Y0221219D01*
X0226271Y0221219D01*
X0226271Y0221269D01*
X0226472Y0221269D01*
X0226472Y0221219D01*
X0226472Y0221219D02*
G37*
G36*
X0224012Y022142D02*
X0224062Y022142D01*
X0224062Y0221369D01*
X0224162Y0221369D01*
X0224162Y0221319D01*
X0224263Y0221319D01*
X0224263Y0221269D01*
X0224363Y0221269D01*
X0224363Y0221219D01*
X0224464Y0221219D01*
X0224464Y0221169D01*
X0224514Y0221169D01*
X0224564Y0221169D01*
X0224564Y0221118D01*
X0224614Y0221118D01*
X0224664Y0221118D01*
X0224664Y0221018D01*
X0224614Y0221018D01*
X0224564Y0221018D01*
X0224564Y0220968D01*
X0224464Y0220968D01*
X0224464Y0220918D01*
X0224263Y0220918D01*
X0224263Y0220968D01*
X0224162Y0220968D01*
X0224162Y0221018D01*
X0224112Y0221018D01*
X0224062Y0221018D01*
X0224062Y0221068D01*
X0224012Y0221068D01*
X0223961Y0221068D01*
X0223961Y022147D01*
X0224012Y022147D01*
X0224012Y022142D01*
X0224012Y022142D02*
G37*
G36*
X0225417Y0220667D02*
X0225468Y0220667D01*
X0225468Y0220616D01*
X0225518Y0220616D01*
X0225568Y0220616D01*
X0225568Y0220566D01*
X0225668Y0220566D01*
X0225668Y0220516D01*
X0225719Y0220516D01*
X0225719Y0220466D01*
X0225618Y0220466D01*
X0225618Y0220415D01*
X0225518Y0220415D01*
X0225518Y0220365D01*
X0225417Y0220365D01*
X0225417Y0220315D01*
X0225367Y0220315D01*
X0225367Y0220365D01*
X0225317Y0220365D01*
X0225317Y0220415D01*
X0225217Y0220415D01*
X0225217Y0220466D01*
X0225116Y0220466D01*
X0225116Y0220516D01*
X0225016Y0220516D01*
X0225016Y0220566D01*
X0225066Y0220566D01*
X0225066Y0220616D01*
X0225116Y0220616D01*
X0225166Y0220616D01*
X0225166Y0220667D01*
X0225217Y0220667D01*
X0225217Y0220717D01*
X0225417Y0220717D01*
X0225417Y0220667D01*
X0225417Y0220667D02*
G37*
G36*
X0267699Y0231671D02*
X0267699Y0220871D01*
X0266599Y0219771D01*
X0257199Y0219771D01*
X0256298Y0220671D01*
X0253396Y0220671D01*
X0253306Y0220761D01*
X0253306Y0222321D01*
X0248291Y0222321D01*
X0248291Y0221144D01*
X0248174Y0221096D01*
X0247799Y0221471D01*
X0247798Y0226471D01*
X0243599Y0230671D01*
X0243599Y0232371D01*
X0244199Y0232971D01*
X0266399Y0232971D01*
X0267699Y0231671D01*
X0267699Y0231671D02*
G37*
G36*
X0224062Y0219763D02*
X0224062Y0219713D01*
X0224112Y0219713D01*
X0224162Y0219713D01*
X0224162Y0219662D01*
X0224112Y0219662D01*
X0224112Y0219612D01*
X0224012Y0219612D01*
X0224012Y0219562D01*
X0223961Y0219562D01*
X0223961Y0219763D01*
X0224012Y0219763D01*
X0224062Y0219763D01*
X0224062Y0219763D02*
G37*
G36*
X0224815Y0220415D02*
X0224915Y0220415D01*
X0224915Y0220365D01*
X0225016Y0220365D01*
X0225016Y0220315D01*
X0225066Y0220315D01*
X0225116Y0220315D01*
X0225116Y0220265D01*
X0225166Y0220265D01*
X0225217Y0220265D01*
X0225217Y0220215D01*
X0225166Y0220215D01*
X0225166Y0220164D01*
X0225066Y0220164D01*
X0225066Y0220114D01*
X0225016Y0220114D01*
X0224966Y0220114D01*
X0224966Y0220064D01*
X0224815Y0220064D01*
X0224815Y0220114D01*
X0224765Y0220114D01*
X0224715Y0220114D01*
X0224715Y0220164D01*
X0224664Y0220164D01*
X0224614Y0220164D01*
X0224614Y0220215D01*
X0224514Y0220215D01*
X0224514Y0220265D01*
X0224464Y0220265D01*
X0224464Y0220315D01*
X0224514Y0220315D01*
X0224564Y0220315D01*
X0224564Y0220365D01*
X0224614Y0220365D01*
X0224664Y0220365D01*
X0224664Y0220415D01*
X0224765Y0220415D01*
X0224765Y0220466D01*
X0224815Y0220466D01*
X0224815Y0220415D01*
X0224815Y0220415D02*
G37*
G36*
X0224313Y0220164D02*
X0224313Y0220114D01*
X0224363Y0220114D01*
X0224413Y0220114D01*
X0224413Y0220064D01*
X0224514Y0220064D01*
X0224514Y0220014D01*
X0224614Y0220014D01*
X0224614Y0219964D01*
X0224664Y0219964D01*
X0224664Y0219913D01*
X0224564Y0219913D01*
X0224564Y0219863D01*
X0224464Y0219863D01*
X0224464Y0219813D01*
X0224413Y0219813D01*
X0224413Y0219763D01*
X0224363Y0219763D01*
X0224313Y0219763D01*
X0224313Y0219813D01*
X0224263Y0219813D01*
X0224263Y0219863D01*
X0224112Y0219863D01*
X0224112Y0219913D01*
X0224062Y0219913D01*
X0224062Y0219964D01*
X0224012Y0219964D01*
X0223961Y0219964D01*
X0223961Y0220014D01*
X0224012Y0220014D01*
X0224012Y0220064D01*
X0224112Y0220064D01*
X0224112Y0220114D01*
X0224162Y0220114D01*
X0224213Y0220114D01*
X0224213Y0220164D01*
X0224263Y0220164D01*
X0224313Y0220164D01*
X0224313Y0220164D02*
G37*
G36*
X0224062Y0222022D02*
X0224062Y0221972D01*
X0224112Y0221972D01*
X0224162Y0221972D01*
X0224162Y0221922D01*
X0224263Y0221922D01*
X0224263Y0221871D01*
X0224313Y0221871D01*
X0224363Y0221871D01*
X0224363Y0221821D01*
X0224464Y0221821D01*
X0224464Y0221771D01*
X0224614Y0221771D01*
X0224614Y0221721D01*
X0224664Y0221721D01*
X0224664Y0221671D01*
X0224815Y0221671D01*
X0224815Y022162D01*
X0224865Y022162D01*
X0224865Y022157D01*
X0224915Y022157D01*
X0224966Y022157D01*
X0225016Y022157D01*
X0225016Y022152D01*
X0225066Y022152D01*
X0225116Y022152D01*
X0225116Y022147D01*
X0225166Y022147D01*
X0225217Y022147D01*
X0225217Y022142D01*
X0225317Y022142D01*
X0225317Y0221369D01*
X0225267Y0221369D01*
X0225267Y0221319D01*
X0225217Y0221319D01*
X0225166Y0221319D01*
X0225166Y0221269D01*
X0225066Y0221269D01*
X0225066Y0221219D01*
X0225016Y0221219D01*
X0224966Y0221219D01*
X0224966Y0221169D01*
X0224915Y0221169D01*
X0224865Y0221169D01*
X0224815Y0221169D01*
X0224815Y0221219D01*
X0224765Y0221219D01*
X0224765Y0221269D01*
X0224664Y0221269D01*
X0224664Y0221319D01*
X0224564Y0221319D01*
X0224564Y0221369D01*
X0224464Y0221369D01*
X0224464Y022142D01*
X0224363Y022142D01*
X0224363Y022147D01*
X0224263Y022147D01*
X0224263Y022152D01*
X0224162Y022152D01*
X0224162Y022157D01*
X0224112Y022157D01*
X0224062Y022157D01*
X0224062Y022162D01*
X0224012Y022162D01*
X0224012Y0221671D01*
X0223961Y0221671D01*
X0223961Y0222022D01*
X0224012Y0222022D01*
X0224062Y0222022D01*
X0224062Y0222022D02*
G37*
G36*
X0225719Y0242506D02*
X0225719Y0242355D01*
X0225769Y0242355D01*
X0225769Y0242154D01*
X0225819Y0242154D01*
X0225819Y0241752D01*
X0225769Y0241752D01*
X0225769Y0241602D01*
X0225719Y0241602D01*
X0225719Y0241451D01*
X0225668Y0241451D01*
X0225668Y0241401D01*
X0225618Y0241401D01*
X0225618Y0241301D01*
X0225568Y0241301D01*
X0225568Y024125D01*
X0225518Y024125D01*
X0225518Y02412D01*
X0225417Y02412D01*
X0225417Y024115D01*
X0225267Y024115D01*
X0225217Y024115D01*
X0225217Y02411D01*
X0225166Y02411D01*
X0225116Y02411D01*
X0225066Y02411D01*
X0225066Y024115D01*
X0224915Y024115D01*
X0224915Y02412D01*
X0224865Y02412D01*
X0224865Y024125D01*
X0224815Y024125D01*
X0224815Y0241301D01*
X0224765Y0241301D01*
X0224765Y0241451D01*
X0224715Y0241451D01*
X0224715Y0241602D01*
X0224664Y0241602D01*
X0224664Y0241803D01*
X0224614Y0241803D01*
X0224614Y0241903D01*
X0224564Y0241903D01*
X0224564Y0241953D01*
X0224514Y0241953D01*
X0224514Y0242003D01*
X0224413Y0242003D01*
X0224413Y0241953D01*
X0224363Y0241953D01*
X0224313Y0241953D01*
X0224313Y0241853D01*
X0224263Y0241853D01*
X0224263Y0241652D01*
X0224213Y0241652D01*
X0224213Y0241552D01*
X0224263Y0241552D01*
X0224263Y0241301D01*
X0224313Y0241301D01*
X0224313Y02412D01*
X0224363Y02412D01*
X0224363Y024115D01*
X0224413Y024115D01*
X0224413Y024105D01*
X0224464Y024105D01*
X0224464Y0240999D01*
X0224263Y0240999D01*
X0224263Y0240949D01*
X0224162Y0240949D01*
X0224112Y0240949D01*
X0224062Y0240949D01*
X0224062Y0240999D01*
X0224012Y0240999D01*
X0224012Y02412D01*
X0223961Y02412D01*
X0223961Y0241903D01*
X0224012Y0241903D01*
X0224012Y0242054D01*
X0224062Y0242054D01*
X0224062Y0242154D01*
X0224112Y0242154D01*
X0224112Y0242204D01*
X0224162Y0242204D01*
X0224162Y0242255D01*
X0224213Y0242255D01*
X0224213Y0242305D01*
X0224263Y0242305D01*
X0224263Y0242355D01*
X0224363Y0242355D01*
X0224363Y0242405D01*
X0224564Y0242405D01*
X0224564Y0242455D01*
X0224614Y0242455D01*
X0224664Y0242455D01*
X0224664Y0242405D01*
X0224815Y0242405D01*
X0224815Y0242355D01*
X0224865Y0242355D01*
X0224865Y0242305D01*
X0224915Y0242305D01*
X0224915Y0242255D01*
X0224966Y0242255D01*
X0224966Y0242154D01*
X0225016Y0242154D01*
X0225016Y0242003D01*
X0225066Y0242003D01*
X0225066Y0241803D01*
X0225116Y0241803D01*
X0225116Y0241652D01*
X0225166Y0241652D01*
X0225166Y0241602D01*
X0225217Y0241602D01*
X0225217Y0241552D01*
X0225267Y0241552D01*
X0225367Y0241552D01*
X0225367Y0241602D01*
X0225417Y0241602D01*
X0225417Y0241652D01*
X0225468Y0241652D01*
X0225468Y0241752D01*
X0225518Y0241752D01*
X0225518Y0242054D01*
X0225468Y0242054D01*
X0225468Y0242255D01*
X0225417Y0242255D01*
X0225417Y0242305D01*
X0225367Y0242305D01*
X0225367Y0242405D01*
X0225317Y0242405D01*
X0225317Y0242455D01*
X0225367Y0242455D01*
X0225417Y0242455D01*
X0225417Y0242506D01*
X0225518Y0242506D01*
X0225568Y0242506D01*
X0225618Y0242506D01*
X0225668Y0242506D01*
X0225719Y0242506D01*
X0225719Y0242506D02*
G37*
G36*
X0295099Y0251471D02*
X0295099Y0247671D01*
X0294098Y0246671D01*
X0259798Y0246671D01*
X0257299Y0244171D01*
X0257299Y0241696D01*
X0257172Y0241611D01*
X0257078Y024165D01*
X0256869Y0241678D01*
X025666Y024165D01*
X0256465Y024157D01*
X0256298Y0241442D01*
X025617Y0241274D01*
X0256089Y024108D01*
X0256062Y0240871D01*
X0256089Y0240662D01*
X025617Y0240468D01*
X0256298Y02403D01*
X0256465Y0240172D01*
X025666Y0240092D01*
X0256869Y0240064D01*
X0257078Y0240092D01*
X0257172Y0240131D01*
X0257299Y0240046D01*
X0257299Y0236771D01*
X0255398Y0234871D01*
X0231299Y0234871D01*
X0228898Y0237271D01*
X0228899Y0248771D01*
X0231892Y0251764D01*
X0294805Y0251764D01*
X0295099Y0251471D01*
X0295099Y0251471D02*
G37*
G36*
X0224062Y0223629D02*
X0224112Y0223629D01*
X0224112Y0223578D01*
X0224162Y0223578D01*
X0224213Y0223578D01*
X0224213Y0223528D01*
X0224313Y0223528D01*
X0224313Y0223478D01*
X0224413Y0223478D01*
X0224413Y0223428D01*
X0224464Y0223428D01*
X0224514Y0223428D01*
X0224514Y0223378D01*
X0224614Y0223378D01*
X0224614Y0223327D01*
X0224664Y0223327D01*
X0224715Y0223327D01*
X0224715Y0223277D01*
X0224815Y0223277D01*
X0224815Y0223227D01*
X0224865Y0223227D01*
X0224915Y0223227D01*
X0224915Y0223177D01*
X0224966Y0223177D01*
X0224966Y0223127D01*
X0225016Y0223127D01*
X0225066Y0223127D01*
X0225066Y0223076D01*
X0225116Y0223076D01*
X0225166Y0223076D01*
X0225166Y0223026D01*
X0225217Y0223026D01*
X0225267Y0223026D01*
X0225267Y0222976D01*
X0225367Y0222976D01*
X0225367Y0222926D01*
X0225417Y0222926D01*
X0225468Y0222926D01*
X0225468Y0222876D01*
X0225518Y0222876D01*
X0225568Y0222876D01*
X0225568Y0222825D01*
X0225668Y0222825D01*
X0225668Y0222775D01*
X0225719Y0222775D01*
X0225719Y0222725D01*
X0225769Y0222725D01*
X0225819Y0222725D01*
X0225819Y0222675D01*
X0225869Y0222675D01*
X0225919Y0222675D01*
X0225919Y0222624D01*
X022597Y0222624D01*
X022602Y0222624D01*
X022602Y0222574D01*
X022607Y0222574D01*
X022612Y0222574D01*
X022612Y0222524D01*
X0226221Y0222524D01*
X0226221Y0222474D01*
X0226321Y0222474D01*
X0226321Y0222424D01*
X0226371Y0222424D01*
X0226422Y0222424D01*
X0226422Y0222373D01*
X0226522Y0222373D01*
X0226522Y0222323D01*
X0226572Y0222323D01*
X0226572Y0222273D01*
X0226622Y0222273D01*
X0226673Y0222273D01*
X0226673Y0222223D01*
X0226723Y0222223D01*
X0226773Y0222223D01*
X0226773Y0222173D01*
X0226823Y0222173D01*
X0226873Y0222173D01*
X0226873Y0222122D01*
X0226974Y0222122D01*
X0226974Y0222072D01*
X0227074Y0222072D01*
X0227074Y0222022D01*
X0227124Y0222022D01*
X0227175Y0222022D01*
X0227175Y0221972D01*
X0227225Y0221972D01*
X0227225Y0221922D01*
X0227275Y0221922D01*
X0227325Y0221922D01*
X0227325Y0221871D01*
X0227375Y0221871D01*
X0227426Y0221871D01*
X0227426Y0221821D01*
X0227476Y0221821D01*
X0227526Y0221821D01*
X0227526Y0221771D01*
X0227626Y0221771D01*
X0227626Y0221721D01*
X0227727Y0221721D01*
X0227727Y0221671D01*
X0227777Y0221671D01*
X0227827Y0221671D01*
X0227827Y022157D01*
X0227777Y022157D01*
X0227727Y022157D01*
X0227727Y022152D01*
X0227677Y022152D01*
X0227626Y022152D01*
X0227626Y022147D01*
X0227476Y022147D01*
X0227426Y022147D01*
X0227426Y022152D01*
X0227325Y022152D01*
X0227325Y022157D01*
X0227275Y022157D01*
X0227225Y022157D01*
X0227225Y022162D01*
X0227175Y022162D01*
X0227175Y0221671D01*
X0227124Y0221671D01*
X0227074Y0221671D01*
X0227024Y0221671D01*
X0227024Y0221721D01*
X0226974Y0221721D01*
X0226974Y0221771D01*
X0226924Y0221771D01*
X0226873Y0221771D01*
X0226873Y0221821D01*
X0226823Y0221821D01*
X0226773Y0221821D01*
X0226773Y0221871D01*
X0226723Y0221871D01*
X0226673Y0221871D01*
X0226673Y0221922D01*
X0226572Y0221922D01*
X0226572Y0221972D01*
X0226522Y0221972D01*
X0226472Y0221972D01*
X0226472Y0222022D01*
X0226422Y0222022D01*
X0226371Y0222022D01*
X0226371Y0222072D01*
X0226321Y0222072D01*
X0226321Y0222122D01*
X0226221Y0222122D01*
X0226221Y0222173D01*
X022612Y0222173D01*
X022612Y0222223D01*
X022607Y0222223D01*
X022602Y0222223D01*
X022602Y0222273D01*
X0225919Y0222273D01*
X0225919Y0222323D01*
X0225869Y0222323D01*
X0225819Y0222323D01*
X0225819Y0222373D01*
X0225719Y0222373D01*
X0225719Y0222424D01*
X0225618Y0222424D01*
X0225618Y0222474D01*
X0225518Y0222474D01*
X0225518Y0222524D01*
X0225468Y0222524D01*
X0225468Y0222574D01*
X0225417Y0222574D01*
X0225367Y0222574D01*
X0225367Y0222624D01*
X0225267Y0222624D01*
X0225267Y0222675D01*
X0225166Y0222675D01*
X0225166Y0222725D01*
X0225116Y0222725D01*
X0225066Y0222725D01*
X0225066Y0222775D01*
X0224966Y0222775D01*
X0224966Y0222825D01*
X0224865Y0222825D01*
X0224865Y0222876D01*
X0224765Y0222876D01*
X0224765Y0222926D01*
X0224715Y0222926D01*
X0224715Y0222976D01*
X0224614Y0222976D01*
X0224614Y0223026D01*
X0224514Y0223026D01*
X0224514Y0223076D01*
X0224464Y0223076D01*
X0224413Y0223076D01*
X0224413Y0223127D01*
X0224363Y0223127D01*
X0224313Y0223127D01*
X0224313Y0223177D01*
X0224213Y0223177D01*
X0224213Y0223227D01*
X0224162Y0223227D01*
X0224112Y0223227D01*
X0224112Y0223277D01*
X0224062Y0223277D01*
X0224012Y0223277D01*
X0224012Y0223327D01*
X0223961Y0223327D01*
X0223961Y0223679D01*
X0224062Y0223679D01*
X0224062Y0223629D01*
X0224062Y0223629D02*
G37*
G36*
X0224012Y0223076D02*
X0224062Y0223076D01*
X0224112Y0223076D01*
X0224112Y0223026D01*
X0224213Y0223026D01*
X0224213Y0222976D01*
X0224313Y0222976D01*
X0224313Y0222926D01*
X0224363Y0222926D01*
X0224413Y0222926D01*
X0224413Y0222876D01*
X0224514Y0222876D01*
X0224514Y0222825D01*
X0224614Y0222825D01*
X0224614Y0222775D01*
X0224664Y0222775D01*
X0224664Y0222725D01*
X0224715Y0222725D01*
X0224765Y0222725D01*
X0224765Y0222675D01*
X0224865Y0222675D01*
X0224865Y0222624D01*
X0224966Y0222624D01*
X0224966Y0222574D01*
X0225016Y0222574D01*
X0225066Y0222574D01*
X0225066Y0222524D01*
X0225166Y0222524D01*
X0225166Y0222474D01*
X0225217Y0222474D01*
X0225267Y0222474D01*
X0225267Y0222424D01*
X0225367Y0222424D01*
X0225367Y0222373D01*
X0225468Y0222373D01*
X0225468Y0222323D01*
X0225518Y0222323D01*
X0225518Y0222273D01*
X0225618Y0222273D01*
X0225618Y0222223D01*
X0225668Y0222223D01*
X0225719Y0222223D01*
X0225719Y0222173D01*
X0225769Y0222173D01*
X0225819Y0222173D01*
X0225819Y0222122D01*
X0225919Y0222122D01*
X0225919Y0222072D01*
X022597Y0222072D01*
X022602Y0222072D01*
X022602Y0222022D01*
X022607Y0222022D01*
X022612Y0222022D01*
X022612Y0221972D01*
X0226221Y0221972D01*
X0226221Y0221922D01*
X0226271Y0221922D01*
X0226271Y0221871D01*
X0226371Y0221871D01*
X0226371Y0221821D01*
X0226422Y0221821D01*
X0226472Y0221821D01*
X0226472Y0221771D01*
X0226522Y0221771D01*
X0226572Y0221771D01*
X0226572Y0221721D01*
X0226673Y0221721D01*
X0226673Y0221671D01*
X0226773Y0221671D01*
X0226773Y022162D01*
X0226873Y022162D01*
X0226873Y022157D01*
X0226974Y022157D01*
X0226974Y022152D01*
X0227024Y022152D01*
X0227024Y022147D01*
X0227074Y022147D01*
X0227124Y022147D01*
X0227124Y022142D01*
X0227225Y022142D01*
X0227225Y0221369D01*
X0227325Y0221369D01*
X0227325Y0221319D01*
X0227275Y0221319D01*
X0227225Y0221319D01*
X0227225Y0221269D01*
X0227175Y0221269D01*
X0227124Y0221269D01*
X0227124Y0221219D01*
X0227074Y0221219D01*
X0227074Y0221169D01*
X0227024Y0221169D01*
X0226974Y0221169D01*
X0226924Y0221169D01*
X0226924Y0221219D01*
X0226873Y0221219D01*
X0226823Y0221219D01*
X0226823Y0221269D01*
X0226773Y0221269D01*
X0226773Y0221319D01*
X0226673Y0221319D01*
X0226673Y0221369D01*
X0226622Y0221369D01*
X0226572Y0221369D01*
X0226572Y022142D01*
X0226472Y022142D01*
X0226472Y022147D01*
X0226371Y022147D01*
X0226371Y022152D01*
X0226321Y022152D01*
X0226271Y022152D01*
X0226271Y022157D01*
X0226221Y022157D01*
X022617Y022157D01*
X0226171Y022162D01*
X022612Y022162D01*
X022612Y0221671D01*
X022602Y0221671D01*
X022602Y0221721D01*
X0225919Y0221721D01*
X0225919Y0221771D01*
X0225819Y0221771D01*
X0225819Y0221821D01*
X0225719Y0221821D01*
X0225719Y0221871D01*
X0225668Y0221871D01*
X0225618Y0221871D01*
X0225618Y0221922D01*
X0225518Y0221922D01*
X0225518Y0221972D01*
X0225417Y0221972D01*
X0225417Y0222022D01*
X0225367Y0222022D01*
X0225317Y0222022D01*
X0225317Y0222072D01*
X0225267Y0222072D01*
X0225267Y0222122D01*
X0225217Y0222122D01*
X0225166Y0222122D01*
X0225166Y0222173D01*
X0225066Y0222173D01*
X0225066Y0222223D01*
X0225016Y0222223D01*
X0224966Y0222223D01*
X0224966Y0222273D01*
X0224865Y0222273D01*
X0224865Y0222323D01*
X0224765Y0222323D01*
X0224765Y0222373D01*
X0224715Y0222373D01*
X0224664Y0222373D01*
X0224664Y0222424D01*
X0224564Y0222424D01*
X0224564Y0222474D01*
X0224514Y0222474D01*
X0224514Y0222524D01*
X0224413Y0222524D01*
X0224413Y0222574D01*
X0224363Y0222574D01*
X0224313Y0222574D01*
X0224313Y0222624D01*
X0224263Y0222624D01*
X0224213Y0222624D01*
X0224213Y0222675D01*
X0224162Y0222675D01*
X0224112Y0222675D01*
X0224112Y0222725D01*
X0224012Y0222725D01*
X0224012Y0222775D01*
X0223961Y0222775D01*
X0223961Y0223127D01*
X0224012Y0223127D01*
X0224012Y0223076D01*
X0224012Y0223076D02*
G37*
G36*
X0279699Y0245371D02*
X0279698Y0243821D01*
X0279048Y0243171D01*
X0266898Y0243171D01*
X0266299Y0243771D01*
X0266299Y0245271D01*
X0266798Y0245771D01*
X0279299Y0245771D01*
X0279699Y0245371D01*
X0279699Y0245371D02*
G37*
%LPC*%
G36*
X0267699Y0214625D02*
X026749Y0214598D01*
X0267295Y0214517D01*
X0267128Y0214389D01*
X0267Y0214222D01*
X0266919Y0214027D01*
X0266892Y0213818D01*
X0266919Y0213609D01*
X0267Y0213415D01*
X0267128Y0213248D01*
X0267295Y021312D01*
X026749Y0213039D01*
X0267699Y0213011D01*
X0267907Y0213039D01*
X0267975Y0213067D01*
X0268132Y0212994D01*
X0268139Y0212973D01*
X02681Y0212922D01*
X0268019Y0212727D01*
X0267992Y0212518D01*
X0268019Y0212309D01*
X02681Y0212115D01*
X0268228Y0211948D01*
X0268395Y021182D01*
X026859Y0211739D01*
X0268799Y0211711D01*
X0269007Y0211739D01*
X0269202Y021182D01*
X0269299Y0211894D01*
X0269395Y021182D01*
X026959Y0211739D01*
X0269799Y0211711D01*
X0270007Y0211739D01*
X0270202Y021182D01*
X0270369Y0211948D01*
X0270497Y0212115D01*
X0270578Y0212309D01*
X0270605Y0212518D01*
X0270578Y0212727D01*
X0270497Y0212922D01*
X0270369Y0213089D01*
X0270202Y0213217D01*
X0270007Y0213298D01*
X0269799Y0213325D01*
X026959Y0213298D01*
X0269395Y0213217D01*
X0269299Y0213143D01*
X0269202Y0213217D01*
X0269007Y0213298D01*
X0268799Y0213325D01*
X026859Y0213298D01*
X0268522Y021327D01*
X0268365Y0213342D01*
X0268358Y0213364D01*
X0268397Y0213415D01*
X0268478Y0213609D01*
X0268505Y0213818D01*
X0268478Y0214027D01*
X0268397Y0214222D01*
X0268269Y0214389D01*
X0268102Y0214517D01*
X0267907Y0214598D01*
X0267699Y0214625D01*
X0267699Y0214625D02*
G37*
G36*
X0226974Y0230557D02*
X0226823Y0230557D01*
X0226823Y0230507D01*
X0226723Y0230507D01*
X0226723Y0230456D01*
X0226673Y0230456D01*
X0226673Y0230406D01*
X0226622Y0230406D01*
X0226622Y0230256D01*
X0226572Y0230256D01*
X0226572Y0229954D01*
X0226873Y0229954D01*
X0226873Y0230005D01*
X0227074Y0230005D01*
X0227074Y0230456D01*
X0227024Y0230456D01*
X0227024Y0230507D01*
X0226974Y0230507D01*
X0226974Y0230557D01*
X0226974Y0230557D02*
G37*
G36*
X0285299Y0212878D02*
X028509Y021285D01*
X0284895Y021277D01*
X0284728Y0212642D01*
X02846Y0212474D01*
X0284519Y021228D01*
X0284492Y0212071D01*
X0284519Y0211862D01*
X02846Y0211668D01*
X0284674Y0211571D01*
X02846Y0211474D01*
X0284519Y021128D01*
X0284492Y0211071D01*
X0284519Y0210862D01*
X02846Y0210668D01*
X0284728Y02105D01*
X0284895Y0210372D01*
X028509Y0210292D01*
X0285299Y0210264D01*
X0285507Y0210292D01*
X0285702Y0210372D01*
X0285869Y02105D01*
X0285997Y0210668D01*
X0286078Y0210862D01*
X0286105Y0211071D01*
X0286078Y021128D01*
X0285997Y0211474D01*
X0285923Y0211571D01*
X0285997Y0211668D01*
X0286078Y0211862D01*
X0286105Y0212071D01*
X0286078Y021228D01*
X0285997Y0212474D01*
X0285869Y0212642D01*
X0285702Y021277D01*
X0285507Y021285D01*
X0285299Y0212878D01*
X0285299Y0212878D02*
G37*
G36*
X0299106Y0232321D02*
X0297849Y0232321D01*
X0297849Y0230088D01*
X0297893Y0230093D01*
X0298175Y0230178D01*
X0298436Y0230318D01*
X0298664Y0230505D01*
X0298852Y0230734D01*
X0298991Y0230994D01*
X0299077Y0231277D01*
X0299106Y0231571D01*
X0299106Y0232321D01*
X0299106Y0232321D02*
G37*
G36*
X0297349Y0232321D02*
X0296091Y0232321D01*
X0296091Y0231571D01*
X029612Y0231277D01*
X0296206Y0230994D01*
X0296345Y0230734D01*
X0296533Y0230505D01*
X0296761Y0230318D01*
X0297022Y0230178D01*
X0297304Y0230093D01*
X0297349Y0230088D01*
X0297349Y0232321D01*
X0297349Y0232321D02*
G37*
G36*
X0250799Y0210878D02*
X025059Y021085D01*
X0250395Y021077D01*
X0250228Y0210642D01*
X02501Y0210474D01*
X0250019Y021028D01*
X0249992Y0210071D01*
X0250019Y0209862D01*
X02501Y0209668D01*
X0250136Y0209621D01*
X025009Y0209525D01*
X0249959Y0209524D01*
X0249869Y0209642D01*
X0249702Y020977D01*
X0249507Y020985D01*
X0249299Y0209878D01*
X024909Y020985D01*
X0248895Y020977D01*
X0248728Y0209642D01*
X02486Y0209474D01*
X0248519Y020928D01*
X0248492Y0209071D01*
X0248519Y0208862D01*
X02486Y0208668D01*
X0248674Y0208571D01*
X02486Y0208474D01*
X0248519Y020828D01*
X0248492Y0208071D01*
X0248519Y0207862D01*
X02486Y0207668D01*
X0248728Y02075D01*
X0248895Y0207372D01*
X024909Y0207292D01*
X0249299Y0207264D01*
X0249507Y0207292D01*
X0249702Y0207372D01*
X0249869Y02075D01*
X0249975Y0207638D01*
X0250022Y0207649D01*
X0250075Y0207649D01*
X0250122Y0207638D01*
X0250228Y02075D01*
X0250395Y0207372D01*
X025059Y0207292D01*
X0250799Y0207264D01*
X0251007Y0207292D01*
X0251202Y0207372D01*
X0251369Y02075D01*
X0251497Y0207668D01*
X0251578Y0207862D01*
X0251605Y0208071D01*
X0251578Y020828D01*
X0251497Y0208474D01*
X0251423Y0208571D01*
X0251497Y0208668D01*
X0251578Y0208862D01*
X0251605Y0209071D01*
X0251578Y020928D01*
X0251497Y0209474D01*
X0251423Y0209571D01*
X0251497Y0209668D01*
X0251578Y0209862D01*
X0251605Y0210071D01*
X0251578Y021028D01*
X0251497Y0210474D01*
X0251369Y0210642D01*
X0251202Y021077D01*
X0251007Y021085D01*
X0250799Y0210878D01*
X0250799Y0210878D02*
G37*
G36*
X0278299Y0213708D02*
X027809Y021368D01*
X0277895Y02136D01*
X0277728Y0213471D01*
X02776Y0213304D01*
X0277519Y021311D01*
X0277492Y0212901D01*
X0277519Y0212692D01*
X02776Y0212497D01*
X0277728Y021233D01*
X0277895Y0212202D01*
X027809Y0212121D01*
X0278299Y0212094D01*
X0278507Y0212121D01*
X0278702Y0212202D01*
X0278869Y021233D01*
X0278997Y0212497D01*
X0279078Y0212692D01*
X0279105Y0212901D01*
X0279078Y021311D01*
X0278997Y0213304D01*
X0278869Y0213471D01*
X0278702Y02136D01*
X0278507Y021368D01*
X0278299Y0213708D01*
X0278299Y0213708D02*
G37*
G36*
X0250549Y0227578D02*
X0249799Y0227578D01*
X0249504Y0227549D01*
X0249222Y0227464D01*
X0248961Y0227324D01*
X0248733Y0227137D01*
X0248545Y0226908D01*
X0248406Y0226648D01*
X024832Y0226365D01*
X0248291Y0226071D01*
X0248291Y0222821D01*
X0250549Y0222821D01*
X0250549Y0227578D01*
X0250549Y0227578D02*
G37*
G36*
X0251799Y0227578D02*
X0251049Y0227578D01*
X0251049Y0222821D01*
X0253306Y0222821D01*
X0253306Y0226071D01*
X0253277Y0226365D01*
X0253191Y0226648D01*
X0253052Y0226908D01*
X0252864Y0227137D01*
X0252636Y0227324D01*
X0252375Y0227464D01*
X0252093Y0227549D01*
X0251799Y0227578D01*
X0251799Y0227578D02*
G37*
G36*
X0227175Y0226741D02*
X0226974Y0226741D01*
X0226974Y022634D01*
X0227024Y022634D01*
X0227024Y022639D01*
X0227124Y022639D01*
X0227124Y022644D01*
X0227225Y022644D01*
X0227225Y022649D01*
X0227325Y022649D01*
X0227325Y022654D01*
X0227426Y022654D01*
X0227426Y0226591D01*
X0227526Y0226591D01*
X0227526Y0226641D01*
X0227576Y0226641D01*
X0227576Y0226691D01*
X0227175Y0226691D01*
X0227175Y0226741D01*
X0227175Y0226741D02*
G37*
G36*
X0270951Y0214625D02*
X0270742Y0214598D01*
X0270548Y0214517D01*
X0270381Y0214389D01*
X0270252Y0214222D01*
X0270172Y0214027D01*
X0270144Y0213818D01*
X0270172Y0213609D01*
X0270252Y0213415D01*
X0270381Y0213248D01*
X0270548Y021312D01*
X0270742Y0213039D01*
X0270951Y0213011D01*
X027116Y0213039D01*
X0271355Y021312D01*
X0271522Y0213248D01*
X027165Y0213415D01*
X0271731Y0213609D01*
X0271758Y0213818D01*
X0271731Y0214027D01*
X027165Y0214222D01*
X0271522Y0214389D01*
X0271355Y0214517D01*
X027116Y0214598D01*
X0270951Y0214625D01*
X0270951Y0214625D02*
G37*
G36*
X0257999Y0214778D02*
X025779Y021475D01*
X0257595Y021467D01*
X0257428Y0214542D01*
X0257379Y0214477D01*
X0257218Y0214477D01*
X0257169Y0214542D01*
X0257002Y021467D01*
X0256807Y021475D01*
X0256599Y0214778D01*
X025639Y021475D01*
X0256195Y021467D01*
X0256028Y0214542D01*
X02559Y0214374D01*
X0255819Y021418D01*
X0255792Y0213971D01*
X0255819Y0213762D01*
X02559Y0213568D01*
X0256028Y02134D01*
X0256195Y0213272D01*
X025639Y0213192D01*
X0256599Y0213164D01*
X0256807Y0213192D01*
X0257002Y0213272D01*
X0257169Y02134D01*
X0257218Y0213465D01*
X0257379Y0213465D01*
X0257428Y02134D01*
X0257595Y0213272D01*
X025779Y0213192D01*
X0257999Y0213164D01*
X0258207Y0213192D01*
X0258402Y0213272D01*
X0258569Y02134D01*
X0258697Y0213568D01*
X0258778Y0213762D01*
X0258805Y0213971D01*
X0258778Y021418D01*
X0258697Y0214374D01*
X0258569Y0214542D01*
X0258402Y021467D01*
X0258207Y021475D01*
X0257999Y0214778D01*
X0257999Y0214778D02*
G37*
G36*
X0290049Y0231778D02*
X028984Y023175D01*
X0289645Y023167D01*
X0289478Y0231542D01*
X028935Y0231374D01*
X0289269Y023118D01*
X0289242Y0230971D01*
X0289269Y0230762D01*
X028935Y0230568D01*
X0289478Y02304D01*
X0289542Y0230351D01*
X0289542Y0230191D01*
X0289478Y0230142D01*
X028935Y0229974D01*
X0289269Y022978D01*
X0289242Y0229571D01*
X0289269Y0229362D01*
X028935Y0229168D01*
X0289478Y0229D01*
X0289542Y0228951D01*
X0289542Y0228791D01*
X0289478Y0228742D01*
X028935Y0228574D01*
X0289269Y022838D01*
X0289242Y0228171D01*
X0289269Y0227962D01*
X028935Y0227768D01*
X0289478Y02276D01*
X0289542Y0227551D01*
X0289542Y0227391D01*
X0289478Y0227342D01*
X028935Y0227174D01*
X0289269Y022698D01*
X0289242Y0226771D01*
X0289269Y0226562D01*
X028935Y0226368D01*
X0289478Y02262D01*
X0289645Y0226072D01*
X028984Y0225992D01*
X0290012Y0225969D01*
X0290047Y0225932D01*
X0290071Y0225889D01*
X0290086Y0225841D01*
X0290019Y022568D01*
X0289992Y0225471D01*
X0290019Y0225262D01*
X0290098Y0225071D01*
X0290019Y022488D01*
X0289992Y0224671D01*
X0290019Y0224462D01*
X02901Y0224268D01*
X0290228Y02241D01*
X0290228Y0224042D01*
X02901Y0223874D01*
X0290019Y022368D01*
X0289992Y0223471D01*
X0290019Y0223262D01*
X0290098Y0223071D01*
X0290019Y022288D01*
X0289992Y0222671D01*
X0290019Y0222462D01*
X02901Y0222268D01*
X0290228Y02221D01*
X0290395Y0221972D01*
X029059Y0221892D01*
X0290799Y0221864D01*
X0291007Y0221892D01*
X0291202Y0221972D01*
X0291369Y02221D01*
X0291497Y0222268D01*
X0291578Y0222462D01*
X0291605Y0222671D01*
X0291578Y022288D01*
X0291499Y0223071D01*
X0291578Y0223262D01*
X0291605Y0223471D01*
X0291578Y022368D01*
X0291497Y0223874D01*
X0291369Y0224042D01*
X0291369Y02241D01*
X0291497Y0224268D01*
X0291578Y0224462D01*
X0291605Y0224671D01*
X0291578Y022488D01*
X0291499Y0225071D01*
X0291578Y0225262D01*
X0291605Y0225471D01*
X0291578Y022568D01*
X0291497Y0225874D01*
X0291446Y0225942D01*
X0291446Y0225947D01*
X0291506Y0226072D01*
X0291657Y0226092D01*
X0291852Y0226172D01*
X0292019Y02263D01*
X0292147Y0226468D01*
X0292228Y0226662D01*
X0292255Y0226871D01*
X0292228Y022708D01*
X0292147Y0227274D01*
X0292019Y0227442D01*
X0291852Y022757D01*
X0291657Y022765D01*
X0291449Y0227678D01*
X029124Y022765D01*
X0291045Y022757D01*
X0290878Y0227442D01*
X029079Y0227327D01*
X0290651Y0227316D01*
X0290555Y0227404D01*
X0290555Y0227551D01*
X0290619Y02276D01*
X0290747Y0227768D01*
X0290828Y0227962D01*
X0290855Y0228171D01*
X0290828Y022838D01*
X0290747Y0228574D01*
X0290619Y0228742D01*
X0290555Y0228791D01*
X0290555Y0228951D01*
X0290619Y0229D01*
X0290747Y0229168D01*
X0290828Y0229362D01*
X0290855Y0229571D01*
X0290828Y022978D01*
X0290747Y0229974D01*
X0290619Y0230142D01*
X0290555Y0230191D01*
X0290555Y0230351D01*
X0290619Y02304D01*
X0290747Y0230568D01*
X0290828Y0230762D01*
X0290855Y0230971D01*
X0290828Y023118D01*
X0290747Y0231374D01*
X0290619Y0231542D01*
X0290452Y023167D01*
X0290257Y023175D01*
X0290049Y0231778D01*
X0290049Y0231778D02*
G37*
G36*
X0264549Y0251471D02*
X0261549Y0251471D01*
X0261549Y0248471D01*
X0264549Y0248471D01*
X0264549Y0251471D01*
X0264549Y0251471D02*
G37*
G36*
X0289549Y0251478D02*
X0289254Y0251449D01*
X0288972Y0251364D01*
X0288711Y0251224D01*
X0288483Y0251037D01*
X0288295Y0250808D01*
X0288156Y0250548D01*
X028807Y0250265D01*
X0288041Y0249971D01*
X028807Y0249677D01*
X0288156Y0249394D01*
X0288295Y0249134D01*
X0288483Y0248905D01*
X0288711Y0248718D01*
X0288972Y0248579D01*
X0289254Y0248493D01*
X0289549Y0248464D01*
X0289843Y0248493D01*
X0290125Y0248579D01*
X0290386Y0248718D01*
X0290614Y0248905D01*
X0290802Y0249134D01*
X0290941Y0249394D01*
X0291027Y0249677D01*
X0291056Y0249971D01*
X0291027Y0250265D01*
X0290941Y0250548D01*
X0290802Y0250808D01*
X0290614Y0251037D01*
X0290386Y0251224D01*
X0290125Y0251364D01*
X0289843Y0251449D01*
X0289549Y0251478D01*
X0289549Y0251478D02*
G37*
G36*
X0282799Y0249721D02*
X0281549Y0249721D01*
X0281549Y0248471D01*
X0282799Y0248471D01*
X0282799Y0249721D01*
X0282799Y0249721D02*
G37*
G36*
X0274549Y0251471D02*
X0271549Y0251471D01*
X0271549Y0248471D01*
X0274549Y0248471D01*
X0274549Y0251471D01*
X0274549Y0251471D02*
G37*
G36*
X0259549Y0251478D02*
X0259254Y0251449D01*
X0258972Y0251364D01*
X0258711Y0251224D01*
X0258483Y0251037D01*
X0258295Y0250808D01*
X0258156Y0250548D01*
X025807Y0250265D01*
X0258041Y0249971D01*
X025807Y0249677D01*
X0258156Y0249394D01*
X0258295Y0249134D01*
X0258483Y0248905D01*
X0258711Y0248718D01*
X0258972Y0248579D01*
X0259254Y0248493D01*
X0259549Y0248464D01*
X0259843Y0248493D01*
X0260125Y0248579D01*
X0260386Y0248718D01*
X0260614Y0248905D01*
X0260802Y0249134D01*
X0260941Y0249394D01*
X0261027Y0249677D01*
X0261056Y0249971D01*
X0261027Y0250265D01*
X0260941Y0250548D01*
X0260802Y0250808D01*
X0260614Y0251037D01*
X0260386Y0251224D01*
X0260125Y0251364D01*
X0259843Y0251449D01*
X0259549Y0251478D01*
X0259549Y0251478D02*
G37*
G36*
X0251299Y0248878D02*
X025109Y024885D01*
X0250895Y024877D01*
X0250728Y0248642D01*
X02506Y0248474D01*
X0250519Y024828D01*
X0250492Y0248071D01*
X0250519Y0247862D01*
X02506Y0247668D01*
X0250728Y02475D01*
X0250895Y0247372D01*
X025109Y0247292D01*
X0251299Y0247264D01*
X0251507Y0247292D01*
X0251702Y0247372D01*
X0251869Y02475D01*
X0251997Y0247668D01*
X0252078Y0247862D01*
X0252105Y0248071D01*
X0252078Y024828D01*
X0251997Y0248474D01*
X0251869Y0248642D01*
X0251702Y024877D01*
X0251507Y024885D01*
X0251299Y0248878D01*
X0251299Y0248878D02*
G37*
G36*
X0279549Y0251478D02*
X0279254Y0251449D01*
X0278972Y0251364D01*
X0278711Y0251224D01*
X0278483Y0251037D01*
X0278295Y0250808D01*
X0278156Y0250548D01*
X027807Y0250265D01*
X0278041Y0249971D01*
X027807Y0249677D01*
X0278156Y0249394D01*
X0278295Y0249134D01*
X0278483Y0248905D01*
X0278711Y0248718D01*
X0278972Y0248579D01*
X0279254Y0248493D01*
X0279549Y0248464D01*
X0279843Y0248493D01*
X0280125Y0248579D01*
X0280386Y0248718D01*
X0280614Y0248905D01*
X0280802Y0249134D01*
X0280941Y0249394D01*
X0281027Y0249677D01*
X0281056Y0249971D01*
X0281027Y0250265D01*
X0280941Y0250548D01*
X0280802Y0250808D01*
X0280614Y0251037D01*
X0280386Y0251224D01*
X0280125Y0251364D01*
X0279843Y0251449D01*
X0279549Y0251478D01*
X0279549Y0251478D02*
G37*
G36*
X0269549Y0251478D02*
X0269254Y0251449D01*
X0268972Y0251364D01*
X0268711Y0251224D01*
X0268483Y0251037D01*
X0268295Y0250808D01*
X0268156Y0250548D01*
X026807Y0250265D01*
X0268041Y0249971D01*
X026807Y0249677D01*
X0268156Y0249394D01*
X0268295Y0249134D01*
X0268483Y0248905D01*
X0268711Y0248718D01*
X0268972Y0248579D01*
X0269254Y0248493D01*
X0269549Y0248464D01*
X0269843Y0248493D01*
X0270125Y0248579D01*
X0270386Y0248718D01*
X0270614Y0248905D01*
X0270802Y0249134D01*
X0270941Y0249394D01*
X0271027Y0249677D01*
X0271056Y0249971D01*
X0271027Y0250265D01*
X0270941Y0250548D01*
X0270802Y0250808D01*
X0270614Y0251037D01*
X0270386Y0251224D01*
X0270125Y0251364D01*
X0269843Y0251449D01*
X0269549Y0251478D01*
X0269549Y0251478D02*
G37*
G36*
X0284549Y0249721D02*
X0283299Y0249721D01*
X0283299Y0248471D01*
X0284549Y0248471D01*
X0284549Y0249721D01*
X0284549Y0249721D02*
G37*
G36*
X0284549Y0251471D02*
X0283299Y0251471D01*
X0283299Y0250221D01*
X0284549Y0250221D01*
X0284549Y0251471D01*
X0284549Y0251471D02*
G37*
G36*
X0282799Y0251471D02*
X0281549Y0251471D01*
X0281549Y0250221D01*
X0282799Y0250221D01*
X0282799Y0251471D01*
X0282799Y0251471D02*
G37*
G36*
X0294549Y0251471D02*
X0293299Y0251471D01*
X0293299Y0250221D01*
X0294549Y0250221D01*
X0294549Y0251471D01*
X0294549Y0251471D02*
G37*
G36*
X0292799Y0251471D02*
X0291549Y0251471D01*
X0291549Y0250221D01*
X0292799Y0250221D01*
X0292799Y0251471D01*
X0292799Y0251471D02*
G37*
G36*
X0294549Y0249721D02*
X0293299Y0249721D01*
X0293299Y0248471D01*
X0294549Y0248471D01*
X0294549Y0249721D01*
X0294549Y0249721D02*
G37*
G36*
X0292799Y0249721D02*
X0291549Y0249721D01*
X0291549Y0248471D01*
X0292799Y0248471D01*
X0292799Y0249721D01*
X0292799Y0249721D02*
G37*
G36*
X0252299Y0250548D02*
X025209Y0250521D01*
X0251895Y025044D01*
X0251728Y0250312D01*
X02516Y0250145D01*
X0251519Y024995D01*
X0251492Y0249741D01*
X0251519Y0249532D01*
X02516Y0249338D01*
X0251728Y0249171D01*
X0251895Y0249042D01*
X025209Y0248962D01*
X0252299Y0248934D01*
X0252507Y0248962D01*
X0252702Y0249042D01*
X0252869Y0249171D01*
X0252997Y0249338D01*
X0253078Y0249532D01*
X0253105Y0249741D01*
X0253078Y024995D01*
X0252997Y0250145D01*
X0252869Y0250312D01*
X0252702Y025044D01*
X0252507Y0250521D01*
X0252299Y0250548D01*
X0252299Y0250548D02*
G37*
G36*
X0247299Y0248878D02*
X024709Y024885D01*
X0246895Y024877D01*
X0246799Y0248696D01*
X0246702Y024877D01*
X0246507Y024885D01*
X0246299Y0248878D01*
X024609Y024885D01*
X0245895Y024877D01*
X0245728Y0248642D01*
X02456Y0248474D01*
X0245519Y024828D01*
X0245492Y0248071D01*
X0245519Y0247862D01*
X02456Y0247668D01*
X0245728Y02475D01*
X0245895Y0247372D01*
X024609Y0247292D01*
X0246299Y0247264D01*
X0246507Y0247292D01*
X0246702Y0247372D01*
X0246799Y0247446D01*
X0246895Y0247372D01*
X024709Y0247292D01*
X0247299Y0247264D01*
X0247507Y0247292D01*
X0247702Y0247372D01*
X0247869Y02475D01*
X0247997Y0247668D01*
X0248078Y0247862D01*
X0248105Y0248071D01*
X0248078Y024828D01*
X0247997Y0248474D01*
X0247869Y0248642D01*
X0247702Y024877D01*
X0247507Y024885D01*
X0247299Y0248878D01*
X0247299Y0248878D02*
G37*
G36*
X0292449Y0234678D02*
X029224Y023465D01*
X0292045Y023457D01*
X0291928Y023448D01*
X0291757Y023455D01*
X0291549Y0234578D01*
X029134Y023455D01*
X0291145Y023447D01*
X0290978Y0234342D01*
X029085Y0234174D01*
X0290769Y023398D01*
X0290742Y0233771D01*
X0290769Y0233562D01*
X029085Y0233368D01*
X0290915Y0233283D01*
X0290898Y0233157D01*
X0290878Y0233142D01*
X029075Y0232974D01*
X0290669Y023278D01*
X0290642Y0232571D01*
X0290669Y0232362D01*
X029075Y0232168D01*
X0290878Y0232D01*
X0291045Y0231872D01*
X029124Y0231792D01*
X0291449Y0231764D01*
X0291541Y0231776D01*
X0291654Y0231663D01*
X0291642Y0231571D01*
X0291669Y0231362D01*
X029175Y0231168D01*
X0291878Y0231D01*
X0292045Y0230872D01*
X029224Y0230792D01*
X0292449Y0230764D01*
X0292657Y0230792D01*
X0292852Y0230872D01*
X0293019Y0231D01*
X0293147Y0231168D01*
X0293228Y0231362D01*
X0293255Y0231571D01*
X0293228Y023178D01*
X0293147Y0231974D01*
X0293019Y0232142D01*
X0292852Y023227D01*
X0292657Y023235D01*
X0292449Y0232378D01*
X0292356Y0232366D01*
X0292243Y0232479D01*
X0292255Y0232571D01*
X0292228Y023278D01*
X0292147Y0232974D01*
X0292127Y0233001D01*
X0292207Y0233105D01*
X029224Y0233092D01*
X0292449Y0233064D01*
X0292657Y0233092D01*
X0292852Y0233172D01*
X0293019Y02333D01*
X0293147Y0233468D01*
X0293228Y0233662D01*
X0293255Y0233871D01*
X0293228Y023408D01*
X0293147Y0234274D01*
X0293019Y0234442D01*
X0292852Y023457D01*
X0292657Y023465D01*
X0292449Y0234678D01*
X0292449Y0234678D02*
G37*
G36*
X0225317Y0234121D02*
X0225166Y0234121D01*
X0225166Y0234071D01*
X0225066Y0234071D01*
X0225066Y0234021D01*
X0225016Y0234021D01*
X0225016Y0233971D01*
X0224966Y0233971D01*
X0224966Y023377D01*
X0224915Y023377D01*
X0224915Y0233619D01*
X0224966Y0233619D01*
X0224966Y0233519D01*
X0225016Y0233519D01*
X0225016Y0233569D01*
X0225417Y0233569D01*
X0225417Y0233619D01*
X0225468Y0233619D01*
X0225468Y0234021D01*
X0225417Y0234021D01*
X0225417Y0234071D01*
X0225317Y0234071D01*
X0225317Y0234121D01*
X0225317Y0234121D02*
G37*
G36*
X0225568Y0235125D02*
X0225518Y0235125D01*
X0225518Y0235075D01*
X0225568Y0235075D01*
X0225568Y0235125D01*
X0225568Y0235125D02*
G37*
G36*
X0227124Y0235226D02*
X0226974Y0235226D01*
X0226974Y0234824D01*
X0227074Y0234824D01*
X0227074Y0234874D01*
X0227124Y0234874D01*
X0227124Y0234925D01*
X0227225Y0234925D01*
X0227225Y0234975D01*
X0227325Y0234975D01*
X0227325Y0235025D01*
X0227426Y0235025D01*
X0227426Y0235075D01*
X0227526Y0235075D01*
X0227526Y0235125D01*
X0227576Y0235125D01*
X0227576Y0235176D01*
X0227124Y0235176D01*
X0227124Y0235226D01*
X0227124Y0235226D02*
G37*
G36*
X0227124Y0230858D02*
X0227074Y0230858D01*
X0227074Y0230808D01*
X0227124Y0230808D01*
X0227124Y0230858D01*
X0227124Y0230858D02*
G37*
G36*
X0227626Y0230607D02*
X0227576Y0230607D01*
X0227576Y0230557D01*
X0227476Y0230557D01*
X0227476Y0230507D01*
X0227426Y0230507D01*
X0227426Y0230456D01*
X0227375Y0230456D01*
X0227375Y0230105D01*
X0227576Y0230105D01*
X0227576Y0230155D01*
X0227777Y0230155D01*
X0227777Y0230507D01*
X0227727Y0230507D01*
X0227727Y0230557D01*
X0227626Y0230557D01*
X0227626Y0230607D01*
X0227626Y0230607D02*
G37*
G36*
X0297849Y0235054D02*
X0297849Y0232821D01*
X0299106Y0232821D01*
X0299106Y0233571D01*
X0299077Y0233865D01*
X0298991Y0234148D01*
X0298852Y0234408D01*
X0298664Y0234637D01*
X0298436Y0234824D01*
X0298175Y0234964D01*
X0297893Y0235049D01*
X0297849Y0235054D01*
X0297849Y0235054D02*
G37*
G36*
X0297349Y0235054D02*
X0297304Y0235049D01*
X0297022Y0234964D01*
X0296761Y0234824D01*
X0296533Y0234637D01*
X0296345Y0234408D01*
X0296206Y0234148D01*
X029612Y0233865D01*
X0296091Y0233571D01*
X0296091Y0232821D01*
X0297349Y0232821D01*
X0297349Y0235054D01*
X0297349Y0235054D02*
G37*
G36*
X0225217Y0236029D02*
X0224865Y0236029D01*
X0224865Y0235979D01*
X0224614Y0235979D01*
X0224614Y0235929D01*
X0224514Y0235929D01*
X0224514Y0235879D01*
X0224464Y0235879D01*
X0224464Y0235828D01*
X0224363Y0235828D01*
X0224363Y0235879D01*
X0224313Y0235879D01*
X0224313Y0235828D01*
X0224363Y0235828D01*
X0224363Y0235778D01*
X0224313Y0235778D01*
X0224313Y0235678D01*
X0224263Y0235678D01*
X0224263Y0235326D01*
X0224313Y0235326D01*
X0224313Y0235276D01*
X0224363Y0235276D01*
X0224363Y0235226D01*
X0224413Y0235226D01*
X0224413Y0235176D01*
X0224514Y0235176D01*
X0224514Y0235125D01*
X0224865Y0235125D01*
X0224865Y0235176D01*
X0225116Y0235176D01*
X0225116Y0235226D01*
X0225217Y0235226D01*
X0225217Y0235276D01*
X0225317Y0235276D01*
X0225317Y0235326D01*
X0225367Y0235326D01*
X0225367Y0235376D01*
X0225417Y0235376D01*
X0225417Y0235427D01*
X0225468Y0235427D01*
X0225468Y0235577D01*
X0225518Y0235577D01*
X0225518Y0235728D01*
X0225468Y0235728D01*
X0225468Y0235879D01*
X0225417Y0235879D01*
X0225417Y0235929D01*
X0225367Y0235929D01*
X0225367Y0235979D01*
X0225217Y0235979D01*
X0225217Y0236029D01*
X0225217Y0236029D02*
G37*
G36*
X0303648Y0242332D02*
X0303109Y0242332D01*
X0302667Y0242288D01*
X0302243Y024216D01*
X0301852Y0241951D01*
X030151Y024167D01*
X0301229Y0241327D01*
X030102Y0240936D01*
X0300891Y0240512D01*
X0300872Y0240321D01*
X0303648Y0240321D01*
X0303648Y0242332D01*
X0303648Y0242332D02*
G37*
G36*
X0237469Y0241328D02*
X023726Y02413D01*
X0237065Y024122D01*
X0236898Y0241092D01*
X023677Y0240924D01*
X0236689Y024073D01*
X0236662Y0240521D01*
X0236689Y0240312D01*
X023677Y0240118D01*
X0236898Y023995D01*
X0237065Y0239822D01*
X023726Y0239742D01*
X0237469Y0239714D01*
X0237678Y0239742D01*
X0237872Y0239822D01*
X0238039Y023995D01*
X0238168Y0240118D01*
X0238248Y0240312D01*
X0238276Y0240521D01*
X0238248Y024073D01*
X0238168Y0240924D01*
X0238039Y0241092D01*
X0237872Y024122D01*
X0237678Y02413D01*
X0237469Y0241328D01*
X0237469Y0241328D02*
G37*
G36*
X0299099Y0245581D02*
X0298706Y0245542D01*
X0298329Y0245428D01*
X0297982Y0245242D01*
X0297677Y0244992D01*
X0297428Y0244688D01*
X0297242Y024434D01*
X0297127Y0243963D01*
X0297089Y0243571D01*
X0297089Y0242571D01*
X0297127Y0242179D01*
X0297242Y0241802D01*
X0297428Y0241454D01*
X0297677Y024115D01*
X0297982Y02409D01*
X0298329Y0240714D01*
X0298706Y02406D01*
X0299099Y0240561D01*
X0299491Y02406D01*
X0299868Y0240714D01*
X0300215Y02409D01*
X030052Y024115D01*
X030077Y0241454D01*
X0300955Y0241802D01*
X030107Y0242179D01*
X0301108Y0242571D01*
X0301108Y0243571D01*
X030107Y0243963D01*
X0300955Y024434D01*
X030077Y0244688D01*
X030052Y0244992D01*
X0300215Y0245242D01*
X0299868Y0245428D01*
X0299491Y0245542D01*
X0299099Y0245581D01*
X0299099Y0245581D02*
G37*
G36*
X0304689Y0242332D02*
X0304148Y0242332D01*
X0304148Y0240321D01*
X0306925Y0240321D01*
X0306906Y0240512D01*
X0306777Y0240936D01*
X0306568Y0241327D01*
X0306287Y024167D01*
X0305945Y0241951D01*
X0305554Y024216D01*
X030513Y0242288D01*
X0304689Y0242332D01*
X0304689Y0242332D02*
G37*
G36*
X0306925Y0239821D02*
X0304148Y0239821D01*
X0304148Y023781D01*
X0304689Y023781D01*
X030513Y0237854D01*
X0305554Y0237982D01*
X0305945Y0238191D01*
X0306287Y0238472D01*
X0306568Y0238815D01*
X0306777Y0239206D01*
X0306906Y023963D01*
X0306925Y0239821D01*
X0306925Y0239821D02*
G37*
G36*
X0303648Y0239821D02*
X0300872Y0239821D01*
X0300891Y023963D01*
X030102Y0239206D01*
X0301229Y0238815D01*
X030151Y0238472D01*
X0301852Y0238191D01*
X0302243Y0237982D01*
X0302667Y0237854D01*
X0303109Y023781D01*
X0303648Y023781D01*
X0303648Y0239821D01*
X0303648Y0239821D02*
G37*
G36*
X0286299Y0239678D02*
X028609Y023965D01*
X0285895Y023957D01*
X0285799Y0239496D01*
X0285702Y023957D01*
X0285507Y023965D01*
X0285299Y0239678D01*
X028509Y023965D01*
X0284895Y023957D01*
X0284728Y0239442D01*
X02846Y0239274D01*
X0284519Y023908D01*
X0284492Y0238871D01*
X0284519Y0238662D01*
X02846Y0238468D01*
X0284728Y02383D01*
X0284895Y0238172D01*
X028509Y0238092D01*
X0285299Y0238064D01*
X0285507Y0238092D01*
X0285702Y0238172D01*
X0285799Y0238246D01*
X0285895Y0238172D01*
X028609Y0238092D01*
X0286299Y0238064D01*
X0286507Y0238092D01*
X0286702Y0238172D01*
X0286869Y02383D01*
X0286997Y0238468D01*
X0287078Y0238662D01*
X0287105Y0238871D01*
X0287078Y023908D01*
X0286997Y0239274D01*
X0286869Y0239442D01*
X0286702Y023957D01*
X0286507Y023965D01*
X0286299Y0239678D01*
X0286299Y0239678D02*
G37*
G36*
X0283499Y0239678D02*
X028329Y023965D01*
X0283095Y023957D01*
X0282999Y0239496D01*
X0282902Y023957D01*
X0282707Y023965D01*
X0282499Y0239678D01*
X028229Y023965D01*
X0282095Y023957D01*
X0281928Y0239442D01*
X02818Y0239274D01*
X0281719Y023908D01*
X0281692Y0238871D01*
X0281719Y0238662D01*
X02818Y0238468D01*
X0281928Y02383D01*
X0282095Y0238172D01*
X028229Y0238092D01*
X0282499Y0238064D01*
X0282707Y0238092D01*
X0282902Y0238172D01*
X0282999Y0238246D01*
X0283095Y0238172D01*
X028329Y0238092D01*
X0283499Y0238064D01*
X0283707Y0238092D01*
X0283902Y0238172D01*
X0284069Y02383D01*
X0284197Y0238468D01*
X0284278Y0238662D01*
X0284305Y0238871D01*
X0284278Y023908D01*
X0284197Y0239274D01*
X0284069Y0239442D01*
X0283902Y023957D01*
X0283707Y023965D01*
X0283499Y0239678D01*
X0283499Y0239678D02*
G37*
%LPD*%
D23*
X0282958Y0206071D02*
D03*
D54*
X0307773Y0228846D02*
X0309299Y0230371D01*
X0234049Y0226796D02*
X0234954Y0226796D01*
X0235279Y0226471D01*
X0242774Y0226471D01*
X0244299Y0224946D01*
X0235274Y0227996D02*
X0236799Y0226471D01*
X0303898Y0237671D02*
X0303898Y0242571D01*
X0300499Y0240071D02*
X0307398Y0240071D01*
D55*
X0309714Y0252562D02*
G03*
X031529Y0246987I0003584J-0001991D01*
G01*
X031529Y0210155D02*
G03*
X0309714Y020458I-0001991J-0003584D01*
G01*
X0222883Y020458D02*
G03*
X0217307Y0210155I-0003584J0001991D01*
G01*
X0217307Y0246987D02*
G03*
X0222883Y0252562I0001991J0003584D01*
G01*
X0222799Y0252571D02*
X0309799Y0252571D01*
X0315299Y0210071D02*
X0315299Y0247071D01*
X0222799Y0204571D02*
X0309799Y0204571D01*
X0217299Y0210071D02*
X0217299Y0246971D01*
X0263599Y0235171D02*
X0264599Y0234171D01*
X0262299Y0234171D02*
X0273273Y0234171D01*
X0273499Y0233946D01*
X0263799Y0234171D02*
X0263799Y0237371D01*
X0295799Y0223071D02*
X0297599Y0223071D01*
X0295799Y0219471D02*
X0295799Y0223071D01*
X0295799Y0224071D02*
X0297599Y0224071D01*
X0295799Y0225071D02*
X0297599Y0225071D01*
X0297599Y0224571D02*
X0297599Y0226071D01*
X0295799Y0226071D02*
X0297599Y0226071D01*
X0295799Y0223071D02*
X0295799Y0226071D01*
X0262799Y0237371D02*
X0263799Y0237371D01*
X0262799Y0237371D02*
X0263799Y0236371D01*
D56*
X0240699Y0220471D02*
X0240699Y0222496D01*
X0239599Y0219371D02*
X0240699Y0220471D01*
X0245599Y0222496D02*
X0246499Y0221596D01*
X0240699Y0222496D02*
X0245599Y0222496D01*
X0239749Y0223446D02*
X0240699Y0222496D01*
X0270299Y0229571D02*
X0270299Y0230771D01*
X0269699Y0231371D02*
X0270299Y0230771D01*
X0269648Y0231371D02*
X0269699Y0231371D01*
X0270299Y0230596D02*
X0275499Y0230596D01*
X0240699Y0221871D02*
X0241311Y0222484D01*
X0270299Y0229971D02*
X0270898Y0230571D01*
X0253799Y0217271D02*
X0253799Y0217946D01*
X0255499Y0219646D01*
X0282799Y0226271D02*
X0282799Y0226946D01*
X0284499Y0228646D01*
D57*
X0219299Y0225921D02*
X0222799Y0222421D01*
X0219299Y0225921D02*
X0219299Y0242371D01*
X0271299Y0242471D02*
X0275499Y0238271D01*
X0266321Y0242471D02*
X0271299Y0242471D01*
X0263299Y0245494D02*
X0266321Y0242471D01*
X0270749Y0241821D02*
X0274699Y0237871D01*
X0267299Y0241821D02*
X0270749Y0241821D01*
X0275499Y0233196D02*
X0275499Y0238271D01*
X0274699Y0232696D02*
X0274699Y0237871D01*
X0244724Y0218521D02*
X0246499Y0220296D01*
X0233099Y0218521D02*
X0244724Y0218521D01*
X0270299Y0229571D02*
X0270299Y0230596D01*
X0273773Y0227571D02*
X0275499Y0229296D01*
X0268699Y0227571D02*
X0273773Y0227571D01*
X0240599Y0217021D02*
X0241349Y0217771D01*
X0245274Y0217771D01*
X0246499Y0218996D01*
X0274273Y0226771D02*
X0275499Y0227996D01*
X0274699Y0232696D02*
X0275499Y0231896D01*
X0245699Y0223696D02*
X0246499Y0222896D01*
X0238649Y0230601D02*
X0240779Y0228471D01*
X0236749Y0229541D02*
X0238519Y0227771D01*
X0240779Y0228471D02*
X0244599Y0228471D01*
X0246499Y0226571D01*
X0246499Y0224196D02*
X0246499Y0226571D01*
X0238519Y0227771D02*
X0244199Y0227771D01*
X0245699Y0226271D01*
X0245699Y0223696D02*
X0245699Y0226271D01*
X0271499Y0226071D02*
X0272199Y0226771D01*
X0274273Y0226771D01*
D58*
X0231549Y0232071D02*
X0239999Y0232071D01*
X0231549Y0232071D02*
X0231549Y0233371D01*
X0239999Y0233371D01*
D59*
X0292724Y0208371D02*
X0295049Y0206046D01*
X0285259Y0208371D02*
X0292724Y0208371D01*
X0282958Y0206071D02*
X0285259Y0208371D01*
D102*
X0313299Y0203571D02*
G03*
X0316299Y0206571I0J0003D01*
G01*
X0316299Y0250571D02*
G03*
X0313299Y0253571I-0003J0D01*
G01*
X0219299Y0253571D02*
G03*
X0216299Y0250571I0J-0003D01*
G01*
X0216299Y0206571D02*
G03*
X0219299Y0203571I0003J0D01*
G01*
X0219299Y0253571D02*
X0313299Y0253571D01*
X0316299Y0206571D02*
X0316299Y0250571D01*
X0219299Y0203571D02*
X0313299Y0203571D01*
X0216299Y0206571D02*
X0216299Y0250571D01*
D103*
X0263049Y0249971D02*
D03*
X0273049Y0249971D02*
D03*
X0283049Y0249971D02*
D03*
X0293049Y0249971D02*
D03*
D104*
X0259549Y0249971D02*
D03*
X0269549Y0249971D02*
D03*
X0279549Y0249971D02*
D03*
X0289549Y0249971D02*
D03*
D105*
X0279799Y0231571D02*
D03*
X0279799Y0230271D02*
D03*
X0279799Y0228971D02*
D03*
X0279799Y0227671D02*
D03*
X0279799Y0232871D02*
D03*
X0279799Y0234171D02*
D03*
X0279799Y0235471D02*
D03*
X0281099Y0227671D02*
D03*
X0278499Y0227671D02*
D03*
X0281099Y0228971D02*
D03*
X0278499Y0228971D02*
D03*
X0278499Y0230271D02*
D03*
X0281099Y0230271D02*
D03*
X0281099Y0231571D02*
D03*
X0278499Y0231571D02*
D03*
X0281099Y0232871D02*
D03*
X0278499Y0232871D02*
D03*
X0281099Y0234171D02*
D03*
X0278499Y0234171D02*
D03*
X0281099Y0235471D02*
D03*
X0278499Y0235471D02*
D03*
X0219299Y0206571D02*
D03*
X0313299Y0206571D02*
D03*
X0313299Y0250571D02*
D03*
X0219299Y0250571D02*
D03*
X0250799Y0222571D02*
D03*
X0250799Y0221271D02*
D03*
X0250799Y0219971D02*
D03*
X0250799Y0218671D02*
D03*
X0250799Y0223871D02*
D03*
X0250799Y0225171D02*
D03*
X0250799Y0226471D02*
D03*
X0252099Y0218671D02*
D03*
X0249499Y0218671D02*
D03*
X0252099Y0219971D02*
D03*
X0249499Y0219971D02*
D03*
X0249499Y0221271D02*
D03*
X0252099Y0221271D02*
D03*
X0252099Y0222571D02*
D03*
X0249499Y0222571D02*
D03*
X0252099Y0223871D02*
D03*
X0249499Y0223871D02*
D03*
X0252099Y0225171D02*
D03*
X0249499Y0225171D02*
D03*
X0252099Y0226471D02*
D03*
X0249499Y0226471D02*
D03*
X0241324Y0214321D02*
D03*
X0241324Y0215226D02*
D03*
X0243274Y0215226D02*
D03*
X0243274Y0214321D02*
D03*
X0242299Y0213868D02*
D03*
X0242299Y0214773D02*
D03*
X0242299Y0215678D02*
D03*
X0241349Y0231396D02*
D03*
X0240444Y0231396D02*
D03*
X0240444Y0233346D02*
D03*
X0241349Y0233346D02*
D03*
X0241802Y0232371D02*
D03*
X0240897Y0232371D02*
D03*
X0239992Y0232371D02*
D03*
X0234049Y0228746D02*
D03*
X0234954Y0228746D02*
D03*
X0234954Y0226796D02*
D03*
X0234049Y0226796D02*
D03*
X0233596Y0227771D02*
D03*
X0234501Y0227771D02*
D03*
X0235406Y0227771D02*
D03*
D106*
X0303898Y0240071D02*
D03*
X0303898Y0217071D02*
D03*
D107*
X0299099Y0243071D02*
D03*
X0308699Y0214071D02*
D03*
D108*
X0303898Y0246071D02*
D03*
X0303898Y0211071D02*
D03*
D109*
X0303898Y0250271D02*
D03*
X0303898Y0206871D02*
D03*
D110*
X0306999Y0232571D02*
D03*
X0297599Y0232571D02*
D03*
X0302299Y0232571D02*
D03*
X0306999Y0224571D02*
D03*
X0297599Y0224571D02*
D03*
X0302299Y0224571D02*
D03*
D111*
X0262639Y0206071D02*
D03*
X0280419Y0206071D02*
D03*
X0277879Y0206071D02*
D03*
X0275339Y0206071D02*
D03*
X0270259Y0206071D02*
D03*
X0272799Y0206071D02*
D03*
X0267719Y0206071D02*
D03*
X0265178Y0206071D02*
D03*
D112*
X0290049Y0206046D02*
D03*
X0287549Y0206046D02*
D03*
X0292549Y0206046D02*
D03*
D113*
X0295049Y0206046D02*
D03*
D114*
X0270951Y0213818D02*
D03*
X0267699Y0213818D02*
D03*
X0269799Y0212518D02*
D03*
X0268799Y0212518D02*
D03*
X0217299Y0242071D02*
D03*
X0217299Y0238071D02*
D03*
X0217299Y0234071D02*
D03*
X0217299Y0230071D02*
D03*
X0217299Y0226071D02*
D03*
X0217299Y0222071D02*
D03*
X0217299Y0218071D02*
D03*
X0217299Y0214071D02*
D03*
X0217299Y0246971D02*
D03*
X0226799Y0252571D02*
D03*
X0222799Y0252571D02*
D03*
X0217299Y0210071D02*
D03*
X0250799Y0252571D02*
D03*
X0241799Y0252571D02*
D03*
X0246799Y0252571D02*
D03*
X0261799Y0252571D02*
D03*
X0254299Y0252571D02*
D03*
X0257799Y0252571D02*
D03*
X0273799Y0252571D02*
D03*
X0265799Y0252571D02*
D03*
X0269799Y0252571D02*
D03*
X0285799Y0252571D02*
D03*
X0277799Y0252571D02*
D03*
X0281799Y0252571D02*
D03*
X0297799Y0252571D02*
D03*
X0289799Y0252571D02*
D03*
X0293799Y0252571D02*
D03*
X0309799Y0252571D02*
D03*
X0301799Y0252571D02*
D03*
X0305799Y0252571D02*
D03*
X0315299Y0238071D02*
D03*
X0315299Y0247071D02*
D03*
X0315299Y0242071D02*
D03*
X0315299Y0226071D02*
D03*
X0315299Y0234071D02*
D03*
X0315299Y0214071D02*
D03*
X0315299Y0222071D02*
D03*
X0315299Y0218071D02*
D03*
X0309799Y0204571D02*
D03*
X0315299Y0210071D02*
D03*
X0298798Y0204571D02*
D03*
X0306798Y0204571D02*
D03*
X0302798Y0204571D02*
D03*
X0286798Y0204571D02*
D03*
X0294798Y0204571D02*
D03*
X0290798Y0204571D02*
D03*
X0274798Y0204571D02*
D03*
X0282798Y0204571D02*
D03*
X0278798Y0204571D02*
D03*
X0262798Y0204571D02*
D03*
X0270798Y0204571D02*
D03*
X0266798Y0204571D02*
D03*
X0250798Y0204571D02*
D03*
X0258798Y0204571D02*
D03*
X0254798Y0204571D02*
D03*
X0238799Y0204571D02*
D03*
X0246798Y0204571D02*
D03*
X0242799Y0204571D02*
D03*
X0230799Y0204571D02*
D03*
X0234799Y0204571D02*
D03*
X0226799Y0204571D02*
D03*
X0222799Y0204571D02*
D03*
X0267298Y0243571D02*
D03*
X0268798Y0243571D02*
D03*
X0270298Y0243571D02*
D03*
X0267298Y0245071D02*
D03*
X0268798Y0245071D02*
D03*
X0270298Y0245071D02*
D03*
X0271798Y0245071D02*
D03*
X0273298Y0245071D02*
D03*
X0274799Y0245071D02*
D03*
X0276299Y0245071D02*
D03*
X0277799Y0245071D02*
D03*
X0279299Y0245071D02*
D03*
X0259299Y0239571D02*
D03*
X0259299Y0241071D02*
D03*
X0259299Y0242571D02*
D03*
X0262299Y0244071D02*
D03*
X0260799Y0244071D02*
D03*
X0259299Y0244071D02*
D03*
X0261199Y0236971D02*
D03*
X0259299Y0236971D02*
D03*
X0309799Y0219871D02*
D03*
X0308299Y0219871D02*
D03*
X0306799Y0219871D02*
D03*
X0305299Y0219871D02*
D03*
X0297799Y0221471D02*
D03*
X0297799Y0219471D02*
D03*
X0295799Y0217471D02*
D03*
X0295799Y0219071D02*
D03*
X0295799Y0221071D02*
D03*
X0295799Y0226071D02*
D03*
X0295799Y0223071D02*
D03*
X0295799Y0224071D02*
D03*
X0295799Y0225071D02*
D03*
X0309299Y0230071D02*
D03*
X0309299Y0232071D02*
D03*
X0309299Y0234071D02*
D03*
X0311299Y0230071D02*
D03*
X0311299Y0232071D02*
D03*
X0311299Y0234071D02*
D03*
X0307299Y0227071D02*
D03*
X0308299Y0227071D02*
D03*
X0307299Y0228071D02*
D03*
X0308299Y0228071D02*
D03*
X0308299Y0229071D02*
D03*
X0307299Y0229071D02*
D03*
X0306299Y0229071D02*
D03*
X0306299Y0228071D02*
D03*
X0306299Y0227071D02*
D03*
X0303799Y0225571D02*
D03*
X0303799Y0224071D02*
D03*
X0303799Y0222571D02*
D03*
X0303799Y0231571D02*
D03*
X0303799Y0233071D02*
D03*
X0303799Y0234571D02*
D03*
X0300799Y0234571D02*
D03*
X0300799Y0233071D02*
D03*
X0300799Y0231571D02*
D03*
X0300799Y0222571D02*
D03*
X0300799Y0224071D02*
D03*
X0300799Y0225571D02*
D03*
X0303799Y0227071D02*
D03*
X0303799Y0228571D02*
D03*
X0303799Y0230071D02*
D03*
X0300799Y0228571D02*
D03*
X0300799Y0230071D02*
D03*
X0300799Y0227071D02*
D03*
X0302299Y0229571D02*
D03*
X0302299Y0228571D02*
D03*
X0302299Y0227571D02*
D03*
X0295799Y0233071D02*
D03*
X0295799Y0232071D02*
D03*
X0293799Y0231071D02*
D03*
X0294799Y0231071D02*
D03*
X0295799Y0231071D02*
D03*
X0295799Y0234071D02*
D03*
X0294799Y0234071D02*
D03*
X0293799Y0234071D02*
D03*
X0247499Y0217171D02*
D03*
X0252299Y0216871D02*
D03*
X0252299Y0216171D02*
D03*
X0246599Y0217171D02*
D03*
X0250799Y0210071D02*
D03*
X0250799Y0209071D02*
D03*
X0250799Y0208071D02*
D03*
X0249299Y0208071D02*
D03*
X0249299Y0209071D02*
D03*
X0241399Y0229271D02*
D03*
X0242049Y0224571D02*
D03*
X0238826Y0219871D02*
D03*
X0239749Y0223446D02*
D03*
X0239599Y0219371D02*
D03*
X0242849Y0221171D02*
D03*
X0246499Y0221596D02*
D03*
X0244099Y0231771D02*
D03*
X0244099Y0230971D02*
D03*
X0250499Y0230171D02*
D03*
X0251299Y0230171D02*
D03*
X0247699Y0230171D02*
D03*
X0248499Y0230171D02*
D03*
X0256999Y0226871D02*
D03*
X0261648Y0225171D02*
D03*
X0262999Y0223371D02*
D03*
X0260999Y0221971D02*
D03*
X0260999Y0220571D02*
D03*
X0261049Y0219171D02*
D03*
X0260999Y0217771D02*
D03*
X0257999Y0213971D02*
D03*
X0256599Y0213971D02*
D03*
X0263299Y0245494D02*
D03*
X0267299Y0241821D02*
D03*
X0292449Y0233871D02*
D03*
X0314349Y0234871D02*
D03*
X0313049Y0240071D02*
D03*
X0312049Y0239071D02*
D03*
X0312049Y0241071D02*
D03*
X0314299Y0214071D02*
D03*
X0314299Y0213071D02*
D03*
X0285299Y0211071D02*
D03*
X0285299Y0212071D02*
D03*
X0290799Y0222671D02*
D03*
X0290799Y0223471D02*
D03*
X0290799Y0225471D02*
D03*
X0290799Y0224671D02*
D03*
X0286999Y0222921D02*
D03*
X0285599Y0222921D02*
D03*
X0290049Y0226771D02*
D03*
X0291449Y0226871D02*
D03*
X0290049Y0228171D02*
D03*
X0290049Y0229571D02*
D03*
X0290049Y0230971D02*
D03*
X0292449Y0231571D02*
D03*
X0291449Y0232571D02*
D03*
X0291549Y0233771D02*
D03*
X0290799Y0235571D02*
D03*
X0278898Y0240871D02*
D03*
X0278898Y0239871D02*
D03*
X0270299Y0240871D02*
D03*
X0270299Y0239871D02*
D03*
X0270499Y0238321D02*
D03*
X0271148Y0233321D02*
D03*
X0271799Y0229571D02*
D03*
X0269648Y0231371D02*
D03*
X0270299Y0229571D02*
D03*
X0275499Y0230596D02*
D03*
X0268699Y0227571D02*
D03*
X0238649Y0230601D02*
D03*
X0236749Y0229541D02*
D03*
X0239599Y0222246D02*
D03*
X0238826Y0224571D02*
D03*
X0239599Y0220846D02*
D03*
X0239599Y0221546D02*
D03*
X0236599Y0222946D02*
D03*
X0236599Y0223646D02*
D03*
X0236599Y0220846D02*
D03*
X0236599Y0222246D02*
D03*
X0233099Y0218521D02*
D03*
X0240599Y0217021D02*
D03*
X0236599Y0221546D02*
D03*
X0273599Y0220371D02*
D03*
X0273599Y0221771D02*
D03*
X0273599Y0224571D02*
D03*
X0282898Y0213271D02*
D03*
X0281799Y0223821D02*
D03*
X0267099Y0237271D02*
D03*
X0267799Y0237271D02*
D03*
X0268499Y0237271D02*
D03*
X0265698Y0237271D02*
D03*
X0266398Y0237271D02*
D03*
X0269299Y0236371D02*
D03*
X0269299Y0235571D02*
D03*
X0269398Y0230571D02*
D03*
X0269398Y0229771D02*
D03*
X0266398Y0228871D02*
D03*
X0265698Y0228871D02*
D03*
X0268499Y0228871D02*
D03*
X0267799Y0228871D02*
D03*
X0246499Y0218996D02*
D03*
X0246499Y0222896D02*
D03*
X0246499Y0224196D02*
D03*
X0246499Y0220296D02*
D03*
X0255499Y0219646D02*
D03*
X0271499Y0226071D02*
D03*
X0275499Y0229296D02*
D03*
X0275499Y0233196D02*
D03*
X0275499Y0231896D02*
D03*
X0275499Y0227996D02*
D03*
X0284499Y0228646D02*
D03*
X0286099Y0236071D02*
D03*
X0267099Y0228871D02*
D03*
X0219799Y0244921D02*
D03*
X0222999Y0245071D02*
D03*
X0221999Y0245071D02*
D03*
X0223999Y0245071D02*
D03*
X0225599Y0245071D02*
D03*
X0227499Y0245071D02*
D03*
X0217299Y0224571D02*
D03*
X0220799Y0217121D02*
D03*
X0226999Y0216171D02*
D03*
X0226999Y0216971D02*
D03*
X0226549Y0218571D02*
D03*
X0225799Y0212671D02*
D03*
X0255899Y0207071D02*
D03*
X0256898Y0206071D02*
D03*
X0257898Y0206071D02*
D03*
X0258898Y0206071D02*
D03*
X0257898Y0207071D02*
D03*
X0258898Y0207071D02*
D03*
X0256898Y0207071D02*
D03*
X0229799Y0248821D02*
D03*
X0229799Y0247821D02*
D03*
X0229799Y0246821D02*
D03*
X0232799Y0252571D02*
D03*
X0234799Y0252571D02*
D03*
X0236799Y0252571D02*
D03*
X0251299Y0248071D02*
D03*
X0252299Y0249741D02*
D03*
X0247299Y0248071D02*
D03*
X0246299Y0248071D02*
D03*
X0256869Y0237071D02*
D03*
X0255199Y0238741D02*
D03*
X0253528Y0237071D02*
D03*
X0253528Y0238741D02*
D03*
X0256869Y0238741D02*
D03*
X0253799Y0217271D02*
D03*
X0282799Y0226271D02*
D03*
X0222799Y0222421D02*
D03*
X0219299Y0242371D02*
D03*
X0244299Y0224946D02*
D03*
X0273499Y0233946D02*
D03*
X0263799Y0237371D02*
D03*
X0262799Y0237371D02*
D03*
X0250299Y0248071D02*
D03*
X0278299Y0212901D02*
D03*
X0237469Y0240521D02*
D03*
X0256869Y0240871D02*
D03*
X0283499Y0238871D02*
D03*
X0282499Y0238871D02*
D03*
X0286299Y0238871D02*
D03*
X0285299Y0238871D02*
D03*
X0283699Y0213271D02*
D03*
X0282898Y0215871D02*
D03*
X0283699Y0215871D02*
D03*
X0309499Y0245571D02*
D03*
X0291299Y0238071D02*
D03*
X0293799Y0238071D02*
D03*
X0296299Y0238071D02*
D03*
X0298799Y0238071D02*
D03*
X0301299Y0238071D02*
D03*
X0303799Y0238071D02*
D03*
X0306299Y0238071D02*
D03*
X0308799Y0238071D02*
D03*
X0308799Y0240071D02*
D03*
X0308799Y0242071D02*
D03*
X0306299Y0242071D02*
D03*
X0303799Y0242071D02*
D03*
X0291299Y0242071D02*
D03*
X0291299Y0240071D02*
D03*
X0293799Y0240071D02*
D03*
X0293799Y0242071D02*
D03*
X0296299Y0240071D02*
D03*
X0298799Y0240071D02*
D03*
X0281299Y0222071D02*
D03*
X0280299Y0222071D02*
D03*
X0226999Y0214571D02*
D03*
X0226999Y0213771D02*
D03*
D115*
X0307299Y0219071D02*
D03*
D116*
X0310799Y0228571D02*
D03*
X0302299Y0228571D02*
D03*
D117*
X0308799Y0225571D02*
D03*
D118*
X0250799Y0222571D02*
D03*
X0279799Y0231571D02*
D03*
D119*
X0233549Y0227771D02*
D03*
D120*
X0240897Y0232371D02*
D03*
X0242299Y0214773D02*
D03*
D121*
X0267299Y0237821D02*
D03*
D122*
X0234299Y0222246D02*
D03*
D123*
X0298799Y0218071D02*
X0298799Y0226071D01*
X0295599Y0226071D02*
X0298799Y0226071D01*
X0295599Y0218071D02*
X0295599Y0226071D01*
X0295599Y0218071D02*
X0298799Y0218071D01*
X0297599Y0218071D02*
X0297599Y0226071D01*
D124*
X0275599Y0222521D02*
D03*
M02*
