M48
;Layer_Color=9474304
;FILE_FORMAT=4:3
METRIC,LZ
;TYPE=PLATED
T1F00S00C0.200
T2F00S00C0.300
T3F00S00C0.900
T5F00S00C1.000
T6F00S00C1.100
;TYPE=NON_PLATED
T9F00S00C2.000
T10F00S00C3.300
%
T01
X0025025Y001075
Y0011655
X0026Y0012107
Y0011202
Y0010297
X0026975Y001075
Y0011655
X002505Y0027825
X0024145
X0023693Y00288
X0024598
X0025503
X002505Y0029775
X0024145
X0018655Y0025175
X001775
X0018202Y00242
X0017297
X001775Y0023225
X0018655
X0019107Y00242
T02
X00625Y0001
X00665
X00705
X00745
X00785
X00825
X00865
X00905
X00935
X0099Y00065
Y00105
X0098
Y00095
X0099Y00145
Y00185
Y00225
Y00305
X009805Y00313
X0095Y00305
X0093
Y00285
Y00265
X0095
Y00285
X0092Y00255
Y00245
Y00235
X0091
Y00245
Y00255
X009
Y00245
Y00235
X00875
Y0025
Y00265
Y0028
Y00295
Y0031
X00845
Y00295
Y0028
Y00265
Y0025
Y00235
Y0022
Y00205
Y0019
X00875Y0019
Y00205
Y0022
X0086Y0024
Y0025
Y0026
X00795Y00275
Y00285
Y00295
Y00305
X00785
X00775
X007615Y00303
X007525Y00302
X007515Y0029
X007615Y0028
X00775Y00275
X00785Y00275
X007375Y00274
Y0026
Y00246
Y00232
X007515Y00233
X00745Y00219
Y00211
Y00199
Y00191
X00707Y001935
X00693
X00655Y002025
X0065Y00185
X0064
X00635Y00241
Y00254
Y00267
Y0028
Y00293
Y00306
Y00319
X00648
Y00306
Y00293
Y0028
Y00267
Y00254
Y00241
X00622
Y00254
Y00267
Y0028
Y00293
Y00306
Y00319
X00698Y00325
X00745Y0032
X00682Y0025075
X00665Y00227
X00666Y00123
X00674
Y00097
X00666
X0069Y00085
Y00075
X0062Y000933
X00795Y00139
Y00155
Y00175
Y00195
Y00205
Y00215
Y00225
X00815Y00179
Y00159
X0089Y00163
X00905
X0092
X00935
X00573Y00168
Y00182
Y0021
X00552Y00225
X00555Y0026
X0054
X00531Y00262
Y0027
X005335Y00278
X005485Y002975
X00572Y0030375
X00592Y0029625
Y0028325
X00592Y0027025
Y0025725
X00592Y0024425
X00524Y0024
X00522Y00253
X00515
X00508
X00501
X00494
X004535Y00216
X00467Y00198
X00447Y00184
Y0017
X004475Y00156
X00447Y00142
X00417Y00104
X00403
X00375Y00137
X0036Y00133
Y00126
X00358Y00151
X00345
Y00164
Y00177
Y0019
Y00203
Y00216
Y00229
X00358
Y00216
Y00203
Y0019
Y00177
Y00164
X00332
Y00151
Y00177
Y0019
Y00203
Y00216
Y00229
X00342Y00266
X0035
X00322
X00314
X00278Y00274
Y00282
X00251Y00257
X002235Y002703
X0022527Y0021
X002345Y0019875
X00233Y0018675
X00233Y0017975
Y0017275
X00233Y00158
X0022527Y00163
X00243Y001345
X00303Y00136
X00312
X00302Y0015425
X00302Y0016725
Y0018025
X00302Y0019325
Y0020625
X0028Y0021375
X002575Y0021
X002655Y00176
X00392Y0016075
X00407Y00233
X00406Y00035
Y00025
X00416
X00426
Y00035
X00416
X00396Y00035
X00385Y0001
X00425
X00465
X00505
X00545
X00585
X00535Y0008947
X00525
X00514Y0010247
X0054653
X0053Y0032
Y00328
X00345Y00065
Y00055
Y00045
X0033
Y00055
X00345Y0001
X00305
X00265
X00225
X00185
X00145
X00105
X00065
X0001Y00065
Y00105
Y00145
Y00185
Y0021
Y00225
Y00265
Y00305
X00065Y001885
X00045Y001355
X00107Y00134
Y00126
Y0011
Y00102
X00095Y00091
X001025Y0015
X00168Y001495
X00203Y0017275
Y0017975
Y0018675
Y0019375
Y0020075
X002045Y002597
X00205Y0049
X00185
X00165
X00105
X00065
X00067Y00415
X00057
X00077
X00093
X00112
X00135Y004325
Y004425
Y004525
X00035Y004135
X0003Y00388
X0001Y00385
Y00345
Y00434
X002117Y003695
X003Y00445
X0031
X0034
X0035
X0036Y004617
X00345Y0049
X0038
X00415
X00455
X00495
X00535
X00575
X0057Y00415
X00555
X0054
Y004
X00525
X0051
Y00415
X00525
X0051Y003825
X0054Y00373
Y00363
X00542Y003475
X00522Y00337
X00515
X00508
X00501
X00494
X00475Y00338
X00465
X00449Y00334
X0043
X004057Y00335
Y003517
X00389
X003723
Y00335
X004057Y00373
X0043Y00375
Y0036
Y0039
Y00405
X00445
X0046
X0047Y0041923
X00585Y00415
X006
X00305Y0049
X00255
X00615
X00655
X00695
X00735
X00775
X00815
X00855
X00895
X00935
X00932Y0042
X00925Y00385
Y00365
Y00345
X009
X00875
X0085
X00825
Y00365
X008
Y00345
X00775
Y00365
Y00385
X0075
Y00365
Y00345
X007Y00353
X0069
X00672
X00662
X00626Y00363
Y00373
X0063Y00415
X00615
X00875Y00385
X009
X009575Y00375
X009675Y00365
X009575Y00355
X0099Y00345
Y00385
Y00435
T03
X006158Y00025
X006412
X006666
X005904
X00565
X005396
X005142
X004888
X004634
T05
X007125Y0002475
X007375
X007625
X007875
T06
X004325Y00464
X004675
X005325
X005675
X006325
X006675
X007325
X007675
T09
X00876Y00033
Y00467
T10
X0097Y0003
X0003
Y0047
X0097
M30
