%FSTAX43Y43*%
%MOMM*%
G71*
G01*
G75*
G04 Layer_Physical_Order=1*
G04 Layer_Color=255*
%ADD10R,2.500X3.300*%
%ADD11R,1.500X1.900*%
%ADD12R,1.600X0.300*%
%ADD13R,3.400X9.700*%
%ADD14R,0.400X0.455*%
%ADD15R,1.050X1.100*%
%ADD16R,0.400X0.850*%
%ADD17C,1.500*%
%ADD18R,1.400X0.700*%
%ADD19R,3.800X4.500*%
%ADD20R,0.900X0.900*%
%ADD21R,1.700X1.700*%
%ADD22R,1.000X1.400*%
%ADD23R,1.700X1.700*%
%ADD24R,1.300X1.900*%
%ADD25R,0.650X1.600*%
%ADD26R,1.000X5.500*%
%ADD27R,1.600X3.000*%
%ADD28R,4.000X7.000*%
%ADD29R,0.300X0.800*%
%ADD30R,3.300X2.500*%
%ADD31R,1.000X1.500*%
%ADD32R,1.900X1.500*%
%ADD33R,3.000X2.500*%
%ADD34R,3.500X1.500*%
%ADD35R,0.900X1.200*%
%ADD36R,0.900X0.900*%
%ADD37R,0.455X0.400*%
%ADD38R,1.100X1.050*%
%ADD39R,0.850X0.400*%
%ADD40R,1.499X3.404*%
%ADD41R,0.600X0.600*%
%ADD42R,0.400X0.700*%
G04:AMPARAMS|DCode=43|XSize=2.51mm|YSize=2.55mm|CornerRadius=0.063mm|HoleSize=0mm|Usage=FLASHONLY|Rotation=270.000|XOffset=0mm|YOffset=0mm|HoleType=Round|Shape=RoundedRectangle|*
%AMROUNDEDRECTD43*
21,1,2.510,2.425,0,0,270.0*
21,1,2.385,2.550,0,0,270.0*
1,1,0.126,-1.212,-1.192*
1,1,0.126,-1.212,1.192*
1,1,0.126,1.212,1.192*
1,1,0.126,1.212,-1.192*
%
%ADD43ROUNDEDRECTD43*%
%ADD44R,0.753X3.600*%
%ADD45R,3.404X1.499*%
%ADD46R,0.700X0.400*%
G04:AMPARAMS|DCode=47|XSize=2.51mm|YSize=2.55mm|CornerRadius=0.063mm|HoleSize=0mm|Usage=FLASHONLY|Rotation=0.000|XOffset=0mm|YOffset=0mm|HoleType=Round|Shape=RoundedRectangle|*
%AMROUNDEDRECTD47*
21,1,2.510,2.425,0,0,0.0*
21,1,2.385,2.550,0,0,0.0*
1,1,0.126,1.192,-1.212*
1,1,0.126,-1.192,-1.212*
1,1,0.126,-1.192,1.212*
1,1,0.126,1.192,1.212*
%
%ADD47ROUNDEDRECTD47*%
%ADD48R,2.500X1.000*%
%ADD49R,1.400X1.000*%
%ADD50R,0.700X1.400*%
%ADD51R,4.500X3.800*%
%ADD52R,0.600X0.600*%
%ADD53R,4.700X1.250*%
%ADD54C,1.000*%
%ADD55C,0.600*%
%ADD56C,0.500*%
%ADD57C,0.300*%
%ADD58C,1.500*%
%ADD59C,0.900*%
%ADD60C,0.400*%
%ADD61C,1.700*%
%ADD62R,11.700X1.200*%
%ADD63R,4.000X11.800*%
%ADD64R,2.500X1.250*%
%ADD65R,2.500X7.100*%
%ADD66R,5.300X3.150*%
%ADD67R,6.100X1.000*%
%ADD68R,2.500X2.100*%
%ADD69R,13.900X1.900*%
%ADD70R,6.600X1.900*%
%ADD71R,3.200X8.500*%
%ADD72R,1.400X10.500*%
%ADD73R,3.300X1.500*%
%ADD74R,1.500X9.100*%
%ADD75R,1.100X3.875*%
%ADD76R,7.900X4.400*%
%ADD77R,3.200X0.600*%
%ADD78R,3.875X1.600*%
%ADD79R,15.400X1.900*%
%ADD80R,2.500X9.900*%
%ADD81R,3.400X4.200*%
%ADD82R,8.300X5.400*%
%ADD83R,24.000X2.700*%
%ADD84R,3.000X2.800*%
%ADD85R,2.900X11.200*%
%ADD86R,1.400X3.600*%
%ADD87R,4.200X1.450*%
%ADD88R,3.400X0.800*%
%ADD89R,1.000X9.300*%
%ADD90R,4.200X0.900*%
%ADD91R,3.400X5.700*%
%ADD92R,7.100X3.400*%
%ADD93R,4.400X8.250*%
%ADD94R,3.800X7.000*%
%ADD95R,4.400X13.600*%
%ADD96R,1.800X7.200*%
%ADD97R,5.100X10.400*%
%ADD98R,5.100X4.000*%
%ADD99R,7.200X5.500*%
%ADD100R,8.400X1.300*%
%ADD101R,6.100X3.100*%
%ADD102C,0.200*%
%ADD103R,2.000X2.000*%
%ADD104C,2.000*%
%ADD105C,0.500*%
%ADD106O,5.080X3.500*%
%ADD107O,3.000X4.000*%
%ADD108O,4.000X3.000*%
%ADD109C,0.700*%
%ADD110O,2.000X4.000*%
%ADD111C,1.700*%
%ADD112C,1.600*%
%ADD113R,1.600X1.600*%
%ADD114C,0.600*%
G36*
X0310374Y0252844D02*
X0310296Y0252753D01*
X0309992Y0252256D01*
X0309769Y0251718D01*
X0309633Y0251152D01*
X0309587Y0250571D01*
X0309633Y024999D01*
X0309769Y0249424D01*
X0309992Y0248886D01*
X0310296Y0248389D01*
X0310674Y0247947D01*
X0311117Y0247568D01*
X0311614Y0247264D01*
X0312152Y0247041D01*
X0312718Y0246905D01*
X0313299Y024686D01*
X0313879Y0246905D01*
X0314445Y0247041D01*
X0314983Y0247264D01*
X031548Y0247568D01*
X0315571Y0247646D01*
X0315687Y0247593D01*
X0315687Y0233271D01*
X0315299Y0233271D01*
X0315299Y0233621D01*
X0314349Y0233621D01*
X0314349Y0233871D01*
X0314099Y0233871D01*
X0314099Y0234821D01*
X0313699Y0234821D01*
X0313659Y0234882D01*
X0313494Y0234992D01*
X0313299Y0235031D01*
X0308898Y0235031D01*
X0308703Y0234992D01*
X0308538Y0234882D01*
X0308428Y0234716D01*
X0308389Y0234521D01*
X0308389Y0234413D01*
X0308266Y0234383D01*
X0308252Y0234408D01*
X0308064Y0234637D01*
X0307836Y0234824D01*
X0307575Y0234964D01*
X0307293Y0235049D01*
X0306999Y0235078D01*
X0306704Y0235049D01*
X0306422Y0234964D01*
X0306161Y0234824D01*
X0305933Y0234637D01*
X0305745Y0234408D01*
X0305606Y0234148D01*
X030552Y0233865D01*
X0305491Y0233571D01*
X0305491Y0231571D01*
X030552Y0231277D01*
X0305606Y0230994D01*
X0305745Y0230734D01*
X0305933Y0230505D01*
X0306161Y0230318D01*
X0306367Y0230208D01*
X0306335Y0230081D01*
X0305999Y0230081D01*
X0305803Y0230042D01*
X0305638Y0229932D01*
X0305528Y0229766D01*
X0305489Y0229571D01*
X0305489Y0222571D01*
X0305528Y0222376D01*
X0305638Y0222211D01*
X0305803Y02221D01*
X0305999Y0222061D01*
X0309409Y0222061D01*
X0309498Y0221971D01*
X0309498Y0221132D01*
X0303898Y0221132D01*
X0303572Y0221089D01*
X0303268Y0220963D01*
X0303007Y0220763D01*
X0302807Y0220501D01*
X0302681Y0220197D01*
X0302638Y0219871D01*
X0302638Y0219279D01*
X0302243Y021916D01*
X0301852Y0218951D01*
X030151Y021867D01*
X0301229Y0218327D01*
X030102Y0217936D01*
X0300891Y0217512D01*
X0300848Y0217071D01*
X0300891Y021663D01*
X030102Y0216206D01*
X0301229Y0215815D01*
X030151Y0215472D01*
X0301852Y0215191D01*
X0302243Y0214982D01*
X0302667Y0214854D01*
X0303109Y021481D01*
X0304689Y021481D01*
X030513Y0214854D01*
X0305554Y0214982D01*
X0305945Y0215191D01*
X0306287Y0215472D01*
X0306568Y0215815D01*
X0306777Y0216206D01*
X0306778Y0216209D01*
X0307354Y0216209D01*
X0307397Y021609D01*
X0307277Y0215992D01*
X0307028Y0215688D01*
X0306842Y021534D01*
X0306727Y0214963D01*
X0306689Y0214571D01*
X0306689Y0214321D01*
X0310708Y0214321D01*
X0310708Y0214571D01*
X031067Y0214963D01*
X0310555Y021534D01*
X031037Y0215688D01*
X031012Y0215992D01*
X031Y021609D01*
X0310043Y0216209D01*
X0311299Y0216209D01*
X0311299Y0214471D01*
X0311449Y0214471D01*
X0311449Y0213821D01*
X0314148Y0213821D01*
X0314148Y0214471D01*
X0314299Y0214471D01*
X0314299Y0216671D01*
X0314148Y0216671D01*
X0314148Y0217483D01*
X031416Y0217571D01*
X031416Y0218871D01*
X0314949Y0218871D01*
X0314949Y0222371D01*
X0314949Y0222371D01*
X0314898Y0222421D01*
X0314898Y0225771D01*
X0314949Y0225771D01*
X0314949Y0228871D01*
X0315687Y0228871D01*
X0315687Y0209549D01*
X0315571Y0209496D01*
X031548Y0209574D01*
X0314983Y0209878D01*
X0314445Y0210101D01*
X0313879Y0210237D01*
X0313299Y0210282D01*
X0312718Y0210237D01*
X0312152Y0210101D01*
X0311614Y0209878D01*
X0311117Y0209574D01*
X0310674Y0209195D01*
X0310296Y0208753D01*
X0309992Y0208256D01*
X0309769Y0207718D01*
X0309633Y0207152D01*
X0309587Y0206571D01*
X0309633Y020599D01*
X0309769Y0205424D01*
X0309992Y0204886D01*
X0310296Y0204389D01*
X0310374Y0204298D01*
X0310321Y0204183D01*
X0222276Y0204183D01*
X0222223Y0204298D01*
X0222301Y0204389D01*
X0222605Y0204886D01*
X0222828Y0205424D01*
X0222964Y020599D01*
X022301Y0206571D01*
X0222964Y0207152D01*
X0222828Y0207718D01*
X0222605Y0208256D01*
X0222301Y0208753D01*
X0221923Y0209195D01*
X022148Y0209574D01*
X0220983Y0209878D01*
X0220445Y0210101D01*
X0219879Y0210237D01*
X0219299Y0210282D01*
X0218718Y0210237D01*
X0218152Y0210101D01*
X0217614Y0209878D01*
X0217117Y0209574D01*
X0217026Y0209496D01*
X021691Y0209549D01*
X021691Y0247593D01*
X0217026Y0247646D01*
X0217117Y0247568D01*
X0217614Y0247264D01*
X0218152Y0247041D01*
X0218718Y0246905D01*
X0219299Y024686D01*
X0219879Y0246905D01*
X0220445Y0247041D01*
X0220983Y0247264D01*
X022148Y0247568D01*
X0221923Y0247947D01*
X0222301Y0248389D01*
X0222605Y0248886D01*
X0222828Y0249424D01*
X0222964Y024999D01*
X022301Y0250571D01*
X0222964Y0251152D01*
X0222828Y0251718D01*
X0222605Y0252256D01*
X0222301Y0252753D01*
X0222223Y0252844D01*
X0222276Y0252959D01*
X0227099Y0252959D01*
X0227099Y0249071D01*
X0228907Y0249071D01*
X0229008Y0248944D01*
X0228992Y0248821D01*
X0229019Y0248612D01*
X02291Y0248418D01*
X0229174Y0248321D01*
X02291Y0248224D01*
X0229019Y024803D01*
X0228992Y0247821D01*
X0229019Y0247612D01*
X02291Y0247418D01*
X0229174Y0247321D01*
X02291Y0247224D01*
X0229019Y024703D01*
X0228992Y0246821D01*
X0229019Y0246612D01*
X02291Y0246418D01*
X0229228Y024625D01*
X0229395Y0246122D01*
X022959Y0246042D01*
X0229799Y0246014D01*
X0229799Y0245571D01*
X0231672Y0245571D01*
X0231799Y0245571D01*
X0231799Y0245571D01*
X0231799Y0245571D01*
X0231926Y0245571D01*
X0232549Y0245571D01*
X0232549Y0248821D01*
X0232549Y0252071D01*
X0231926Y0252071D01*
X0231799Y0252071D01*
X0231799Y0252071D01*
X0231672Y0252071D01*
X0229799Y0252071D01*
X0229699Y0252136D01*
X0229699Y0252959D01*
X0237899Y0252959D01*
X0237899Y0252136D01*
X0237799Y0252071D01*
X0237772Y0252071D01*
X0237049Y0252071D01*
X0237049Y0248821D01*
X0237049Y0245571D01*
X0237799Y0245571D01*
X0237799Y0249006D01*
X0237799Y0249006D01*
X0237899Y0249071D01*
X0237926Y0249071D01*
X0240499Y0249071D01*
X0240499Y0252959D01*
X0243849Y0252959D01*
X0243849Y0250816D01*
X0245474Y0250816D01*
X0245474Y0249991D01*
X0246299Y0249991D01*
X0246299Y0249741D01*
X0246549Y0249741D01*
X0246549Y0248441D01*
X0247049Y0248441D01*
X0247049Y0249741D01*
X0247049Y0251041D01*
X0246149Y0251041D01*
X0246149Y0252959D01*
X0251449Y0252959D01*
X0251449Y0251041D01*
X0247473Y0251041D01*
X0247473Y0249741D01*
X0247473Y0248441D01*
X0249492Y0248441D01*
X0249492Y0248071D01*
X0249519Y0247862D01*
X02496Y0247668D01*
X0249728Y02475D01*
X0249895Y0247372D01*
X025009Y0247292D01*
X0250299Y0247264D01*
X0250507Y0247292D01*
X0250702Y0247372D01*
X0250869Y02475D01*
X0250997Y0247668D01*
X0251078Y0247862D01*
X0251105Y0248071D01*
X0251105Y0248441D01*
X0252124Y0248441D01*
X0252124Y0249491D01*
X0251299Y0249491D01*
X0251299Y0249991D01*
X0252124Y0249991D01*
X0252124Y0250816D01*
X0253749Y0250816D01*
X0253749Y0252959D01*
X0310321Y0252959D01*
X0310374Y0252844D01*
X0310374Y0252844D02*
G37*
%LPC*%
G36*
X0308449Y0213821D02*
X0306689Y0213821D01*
X0306689Y0213571D01*
X0306727Y0213179D01*
X0306842Y0212802D01*
X0307028Y0212455D01*
X0307277Y021215D01*
X0307582Y02119D01*
X0307929Y0211714D01*
X0308306Y02116D01*
X0308449Y0211586D01*
X0308449Y0213821D01*
X0308449Y0213821D02*
G37*
G36*
X0312999Y0241021D02*
X0312299Y0241021D01*
X0312299Y0240321D01*
X0312999Y0240321D01*
X0312999Y0241021D01*
X0312999Y0241021D02*
G37*
G36*
X0304398Y0213081D02*
X0304148Y0213081D01*
X0304148Y0211321D01*
X0306384Y0211321D01*
X030637Y0211463D01*
X0306255Y021184D01*
X0306069Y0212188D01*
X030582Y0212492D01*
X0305515Y0212742D01*
X0305168Y0212928D01*
X0304791Y0213042D01*
X0304398Y0213081D01*
X0304398Y0213081D02*
G37*
G36*
X0297449Y0212699D02*
X0297449Y0211721D01*
X0298426Y0211721D01*
X0298416Y0211797D01*
X029829Y0212101D01*
X029809Y0212363D01*
X0297829Y0212563D01*
X0297525Y0212689D01*
X0297449Y0212699D01*
X0297449Y0212699D02*
G37*
G36*
X0290799Y0236771D02*
X0290049Y0236771D01*
X0290049Y0235821D01*
X0290799Y0235821D01*
X0290799Y0236771D01*
X0290799Y0236771D02*
G37*
G36*
X0312999Y0239821D02*
X0312299Y0239821D01*
X0312299Y0239121D01*
X0312999Y0239121D01*
X0312999Y0239821D01*
X0312999Y0239821D02*
G37*
G36*
X0310708Y0213821D02*
X0308949Y0213821D01*
X0308949Y0211586D01*
X0309091Y02116D01*
X0309468Y0211714D01*
X0309815Y02119D01*
X031012Y021215D01*
X031037Y0212455D01*
X0310555Y0212802D01*
X031067Y0213179D01*
X0310708Y0213571D01*
X0310708Y0213821D01*
X0310708Y0213821D02*
G37*
G36*
X0254949Y0242099D02*
X0254872Y0242089D01*
X0254568Y0241963D01*
X0254307Y0241763D01*
X0254107Y0241501D01*
X0253981Y0241197D01*
X0253971Y0241121D01*
X0254949Y0241121D01*
X0254949Y0242099D01*
X0254949Y0242099D02*
G37*
G36*
X0299349Y0245556D02*
X0299349Y0243321D01*
X0301108Y0243321D01*
X0301108Y0243571D01*
X030107Y0243963D01*
X0300955Y024434D01*
X030077Y0244688D01*
X030052Y0244992D01*
X0300215Y0245242D01*
X0299868Y0245428D01*
X0299491Y0245542D01*
X0299349Y0245556D01*
X0299349Y0245556D02*
G37*
G36*
X0314026Y0211421D02*
X0313049Y0211421D01*
X0313049Y0210443D01*
X0313125Y0210453D01*
X0313429Y0210579D01*
X031369Y021078D01*
X031389Y0211041D01*
X0314016Y0211345D01*
X0314026Y0211421D01*
X0314026Y0211421D02*
G37*
G36*
X0303648Y0245821D02*
X0301413Y0245821D01*
X0301427Y0245679D01*
X0301542Y0245302D01*
X0301728Y0244955D01*
X0301977Y024465D01*
X0302282Y02444D01*
X0302629Y0244214D01*
X0303006Y02441D01*
X0303398Y0244061D01*
X0303648Y0244061D01*
X0303648Y0245821D01*
X0303648Y0245821D02*
G37*
G36*
X0298849Y0245556D02*
X0298706Y0245542D01*
X0298329Y0245428D01*
X0297982Y0245242D01*
X0297677Y0244992D01*
X0297428Y0244688D01*
X0297242Y024434D01*
X0297127Y0243963D01*
X0297089Y0243571D01*
X0297089Y0243321D01*
X0298849Y0243321D01*
X0298849Y0245556D01*
X0298849Y0245556D02*
G37*
G36*
X0255449Y0242099D02*
X0255449Y0241121D01*
X0256426Y0241121D01*
X0256416Y0241197D01*
X025629Y0241501D01*
X025609Y0241763D01*
X0255829Y0241963D01*
X0255525Y0242089D01*
X0255449Y0242099D01*
X0255449Y0242099D02*
G37*
G36*
X0303648Y0213081D02*
X0303398Y0213081D01*
X0303006Y0213042D01*
X0302629Y0212928D01*
X0302282Y0212742D01*
X0301977Y0212492D01*
X0301728Y0212188D01*
X0301542Y021184D01*
X0301427Y0211463D01*
X0301413Y0211321D01*
X0303648Y0211321D01*
X0303648Y0213081D01*
X0303648Y0213081D02*
G37*
G36*
X0224749Y0243671D02*
X0223249Y0243671D01*
X0223249Y0242921D01*
X0224399Y0242921D01*
X0224399Y0242621D01*
X0225349Y0242621D01*
X0225349Y0243371D01*
X0224749Y0243371D01*
X0224749Y0243671D01*
X0224749Y0243671D02*
G37*
G36*
X0315299Y0234821D02*
X0314599Y0234821D01*
X0314599Y0234121D01*
X0315299Y0234121D01*
X0315299Y0234821D01*
X0315299Y0234821D02*
G37*
G36*
X0279526Y0214321D02*
X0278549Y0214321D01*
X0278549Y0213343D01*
X0278625Y0213353D01*
X0278929Y0213479D01*
X027919Y021368D01*
X027939Y0213941D01*
X0279516Y0214245D01*
X0279526Y0214321D01*
X0279526Y0214321D02*
G37*
G36*
X0304499Y0235881D02*
X0300099Y0235881D01*
X0299903Y0235842D01*
X0299738Y0235732D01*
X0299628Y0235566D01*
X0299589Y0235371D01*
X0299589Y0221771D01*
X0299628Y0221576D01*
X0299738Y0221411D01*
X0299903Y02213D01*
X0300099Y0221261D01*
X0304499Y0221261D01*
X0304694Y02213D01*
X0304859Y0221411D01*
X030497Y0221576D01*
X0305008Y0221771D01*
X0305008Y0235371D01*
X030497Y0235566D01*
X0304859Y0235732D01*
X0304694Y0235842D01*
X0304499Y0235881D01*
X0304499Y0235881D02*
G37*
G36*
X0262999Y0223121D02*
X0262299Y0223121D01*
X0262299Y0222421D01*
X0262999Y0222421D01*
X0262999Y0223121D01*
X0262999Y0223121D02*
G37*
G36*
X0291749Y0222821D02*
X0290999Y0222821D01*
X0290999Y0221871D01*
X0291749Y0221871D01*
X0291749Y0222821D01*
X0291749Y0222821D02*
G37*
G36*
X0278549Y0215799D02*
X0278549Y0214821D01*
X0279526Y0214821D01*
X0279516Y0214897D01*
X027939Y0215201D01*
X027919Y0215463D01*
X0278929Y0215663D01*
X0278625Y0215789D01*
X0278549Y0215799D01*
X0278549Y0215799D02*
G37*
G36*
X0278049Y0215799D02*
X0277972Y0215789D01*
X0277668Y0215663D01*
X0277407Y0215463D01*
X0277207Y0215201D01*
X0277081Y0214897D01*
X0277071Y0214821D01*
X0278049Y0214821D01*
X0278049Y0215799D01*
X0278049Y0215799D02*
G37*
G36*
X0226499Y0219521D02*
X0225799Y0219521D01*
X0225799Y0218821D01*
X0226499Y0218821D01*
X0226499Y0219521D01*
X0226499Y0219521D02*
G37*
G36*
X0221849Y0216871D02*
X0221149Y0216871D01*
X0221149Y0216171D01*
X0221849Y0216171D01*
X0221849Y0216871D01*
X0221849Y0216871D02*
G37*
G36*
X0314148Y0213321D02*
X0311449Y0213321D01*
X0311449Y0212221D01*
X0311559Y0212221D01*
X031163Y0212115D01*
X0311581Y0211997D01*
X0311571Y0211921D01*
X0314026Y0211921D01*
X0314016Y0211997D01*
X0313967Y0212115D01*
X0314038Y0212221D01*
X0314148Y0212221D01*
X0314148Y0213321D01*
X0314148Y0213321D02*
G37*
G36*
X0292199Y0227821D02*
X0291499Y0227821D01*
X0291499Y0227121D01*
X0292199Y0227121D01*
X0292199Y0227821D01*
X0292199Y0227821D02*
G37*
G36*
X0298599Y0235081D02*
X0293499Y0235081D01*
X0293303Y0235042D01*
X0293138Y0234932D01*
X0293028Y0234766D01*
X0292989Y0234571D01*
X0292989Y0233611D01*
X0292899Y0233521D01*
X0292699Y0233521D01*
X0292699Y0232571D01*
X0292699Y0231621D01*
X0292989Y0231621D01*
X0292989Y0230571D01*
X0293028Y0230376D01*
X0293138Y0230211D01*
X0293303Y02301D01*
X0293499Y0230061D01*
X0298599Y0230061D01*
X0298794Y02301D01*
X0298959Y0230211D01*
X0299069Y0230376D01*
X0299108Y0230571D01*
X0299108Y0234571D01*
X0299069Y0234766D01*
X0298959Y0234932D01*
X0298794Y0235042D01*
X0298599Y0235081D01*
X0298599Y0235081D02*
G37*
G36*
X0286549Y0212921D02*
X0285449Y0212921D01*
X0285449Y0211821D01*
X0286549Y0211821D01*
X0286549Y0212921D01*
X0286549Y0212921D02*
G37*
G36*
X0221549Y0224321D02*
X0220999Y0224321D01*
X0220999Y0223771D01*
X0221549Y0223771D01*
X0221549Y0224321D01*
X0221549Y0224321D02*
G37*
G36*
X0262999Y0224321D02*
X0262299Y0224321D01*
X0262299Y0223621D01*
X0262999Y0223621D01*
X0262999Y0224321D01*
X0262999Y0224321D02*
G37*
G36*
X0278049Y0214321D02*
X0277071Y0214321D01*
X0277081Y0214245D01*
X0277207Y0213941D01*
X0277407Y021368D01*
X0277668Y0213479D01*
X0277972Y0213353D01*
X0278049Y0213343D01*
X0278049Y0214321D01*
X0278049Y0214321D02*
G37*
G36*
X0221549Y0225371D02*
X0220999Y0225371D01*
X0220999Y0224821D01*
X0221549Y0224821D01*
X0221549Y0225371D01*
X0221549Y0225371D02*
G37*
G36*
X0289799Y0251454D02*
X0289799Y0250221D01*
X0291031Y0250221D01*
X0291027Y0250265D01*
X0290941Y0250548D01*
X0290802Y0250808D01*
X0290614Y0251037D01*
X0290386Y0251224D01*
X0290125Y0251364D01*
X0289843Y0251449D01*
X0289799Y0251454D01*
X0289799Y0251454D02*
G37*
G36*
X0289299Y0251454D02*
X0289254Y0251449D01*
X0288972Y0251364D01*
X0288711Y0251224D01*
X0288483Y0251037D01*
X0288295Y0250808D01*
X0288156Y0250548D01*
X028807Y0250265D01*
X0288066Y0250221D01*
X0289299Y0250221D01*
X0289299Y0251454D01*
X0289299Y0251454D02*
G37*
G36*
X0289299Y0249721D02*
X0288066Y0249721D01*
X028807Y0249677D01*
X0288156Y0249394D01*
X0288295Y0249134D01*
X0288483Y0248905D01*
X0288711Y0248718D01*
X0288972Y0248579D01*
X0289254Y0248493D01*
X0289299Y0248488D01*
X0289299Y0249721D01*
X0289299Y0249721D02*
G37*
G36*
X0281031Y0249721D02*
X0279799Y0249721D01*
X0279799Y0248488D01*
X0279843Y0248493D01*
X0280125Y0248579D01*
X0280386Y0248718D01*
X0280614Y0248905D01*
X0280802Y0249134D01*
X0280941Y0249394D01*
X0281027Y0249677D01*
X0281031Y0249721D01*
X0281031Y0249721D02*
G37*
G36*
X0233799Y0252071D02*
X0233799Y0252071D01*
X0233799Y0252071D01*
X0233672Y0252071D01*
X0233049Y0252071D01*
X0233049Y0248821D01*
X0233049Y0245571D01*
X0233672Y0245571D01*
X0233799Y0245571D01*
X0233799Y0245571D01*
X0233799Y0245571D01*
X0233926Y0245571D01*
X0234549Y0245571D01*
X0234549Y0248821D01*
X0234549Y0252071D01*
X0233926Y0252071D01*
X0233799Y0252071D01*
X0233799Y0252071D02*
G37*
G36*
X0294549Y0251471D02*
X0291549Y0251471D01*
X0291549Y0248471D01*
X0294549Y0248471D01*
X0294549Y0251471D01*
X0294549Y0251471D02*
G37*
G36*
X0279299Y0249721D02*
X0278066Y0249721D01*
X027807Y0249677D01*
X0278156Y0249394D01*
X0278295Y0249134D01*
X0278483Y0248905D01*
X0278711Y0248718D01*
X0278972Y0248579D01*
X0279254Y0248493D01*
X0279299Y0248488D01*
X0279299Y0249721D01*
X0279299Y0249721D02*
G37*
G36*
X0279799Y0251454D02*
X0279799Y0250221D01*
X0281031Y0250221D01*
X0281027Y0250265D01*
X0280941Y0250548D01*
X0280802Y0250808D01*
X0280614Y0251037D01*
X0280386Y0251224D01*
X0280125Y0251364D01*
X0279843Y0251449D01*
X0279799Y0251454D01*
X0279799Y0251454D02*
G37*
G36*
X0287299Y0207324D02*
X0287209Y0207313D01*
X0286893Y0207182D01*
X0286621Y0206973D01*
X0286413Y0206702D01*
X0286282Y0206385D01*
X028627Y0206296D01*
X0287299Y0206296D01*
X0287299Y0207324D01*
X0287299Y0207324D02*
G37*
G36*
X0287299Y0205796D02*
X028627Y0205796D01*
X0286282Y0205707D01*
X0286413Y020539D01*
X0286621Y0205119D01*
X0286893Y020491D01*
X0287209Y0204779D01*
X0287299Y0204768D01*
X0287299Y0205796D01*
X0287299Y0205796D02*
G37*
G36*
X0303898Y0208378D02*
X0303604Y0208349D01*
X0303322Y0208264D01*
X0303061Y0208124D01*
X0302833Y0207937D01*
X0302645Y0207708D01*
X0302506Y0207448D01*
X030242Y0207165D01*
X0302391Y0206871D01*
X030242Y0206577D01*
X0302506Y0206294D01*
X0302645Y0206034D01*
X0302833Y0205805D01*
X0303061Y0205618D01*
X0303322Y0205479D01*
X0303604Y0205393D01*
X0303898Y0205364D01*
X0304193Y0205393D01*
X0304475Y0205479D01*
X0304736Y0205618D01*
X0304964Y0205805D01*
X0305152Y0206034D01*
X0305291Y0206294D01*
X0305377Y0206577D01*
X0305406Y0206871D01*
X0305377Y0207165D01*
X0305291Y0207448D01*
X0305152Y0207708D01*
X0304964Y0207937D01*
X0304736Y0208124D01*
X0304475Y0208264D01*
X0304193Y0208349D01*
X0303898Y0208378D01*
X0303898Y0208378D02*
G37*
G36*
X0272799Y0207433D02*
X0272446Y0207386D01*
X0272118Y020725D01*
X0271836Y0207034D01*
X0271619Y0206752D01*
X0271592Y0206686D01*
X0271465Y0206686D01*
X0271438Y0206752D01*
X0271221Y0207034D01*
X0270939Y020725D01*
X0270611Y0207386D01*
X0270259Y0207433D01*
X0269906Y0207386D01*
X0269578Y020725D01*
X0269296Y0207034D01*
X0269079Y0206752D01*
X0269052Y0206686D01*
X0268925Y0206686D01*
X0268898Y0206752D01*
X0268681Y0207034D01*
X0268399Y020725D01*
X0268071Y0207386D01*
X0267719Y0207433D01*
X0267366Y0207386D01*
X0267038Y020725D01*
X0266756Y0207034D01*
X0266539Y0206752D01*
X0266512Y0206686D01*
X0266385Y0206686D01*
X0266358Y0206752D01*
X0266141Y0207034D01*
X0265859Y020725D01*
X0265531Y0207386D01*
X0265178Y0207433D01*
X0264826Y0207386D01*
X0264498Y020725D01*
X0264216Y0207034D01*
X0263999Y0206752D01*
X0263972Y0206686D01*
X0263845Y0206686D01*
X0263818Y0206752D01*
X0263601Y0207034D01*
X0263319Y020725D01*
X0262991Y0207386D01*
X0262639Y0207433D01*
X0262286Y0207386D01*
X0261958Y020725D01*
X0261676Y0207034D01*
X0261459Y0206752D01*
X0261323Y0206423D01*
X0261277Y0206071D01*
X0261323Y0205719D01*
X0261459Y020539D01*
X0261676Y0205108D01*
X0261958Y0204892D01*
X0262286Y0204756D01*
X0262639Y0204709D01*
X0262991Y0204756D01*
X0263319Y0204892D01*
X0263601Y0205108D01*
X0263818Y020539D01*
X0263845Y0205456D01*
X0263972Y0205456D01*
X0263999Y020539D01*
X0264216Y0205108D01*
X0264498Y0204892D01*
X0264826Y0204756D01*
X0265178Y0204709D01*
X0265531Y0204756D01*
X0265859Y0204892D01*
X0266141Y0205108D01*
X0266358Y020539D01*
X0266385Y0205456D01*
X0266512Y0205456D01*
X0266539Y020539D01*
X0266756Y0205108D01*
X0267038Y0204892D01*
X0267366Y0204756D01*
X0267719Y0204709D01*
X0268071Y0204756D01*
X0268399Y0204892D01*
X0268681Y0205108D01*
X0268898Y020539D01*
X0268925Y0205456D01*
X0269052Y0205456D01*
X0269079Y020539D01*
X0269296Y0205108D01*
X0269578Y0204892D01*
X0269906Y0204756D01*
X0270259Y0204709D01*
X0270611Y0204756D01*
X0270939Y0204892D01*
X0271221Y0205108D01*
X0271438Y020539D01*
X0271465Y0205456D01*
X0271592Y0205456D01*
X0271619Y020539D01*
X0271836Y0205108D01*
X0272118Y0204892D01*
X0272446Y0204756D01*
X0272799Y0204709D01*
X0273151Y0204756D01*
X0273479Y0204892D01*
X0273761Y0205108D01*
X0273978Y020539D01*
X0274005Y0205456D01*
X0274132Y0205456D01*
X0274159Y020539D01*
X0274376Y0205108D01*
X0274658Y0204892D01*
X0274986Y0204756D01*
X0275089Y0204742D01*
X0275089Y0206071D01*
X0275089Y02074D01*
X0274986Y0207386D01*
X0274658Y020725D01*
X0274376Y0207034D01*
X0274159Y0206752D01*
X0274132Y0206686D01*
X0274005Y0206686D01*
X0273978Y0206752D01*
X0273761Y0207034D01*
X0273479Y020725D01*
X0273151Y0207386D01*
X0272799Y0207433D01*
X0272799Y0207433D02*
G37*
G36*
X0291031Y0249721D02*
X0289799Y0249721D01*
X0289799Y0248488D01*
X0289843Y0248493D01*
X0290125Y0248579D01*
X0290386Y0248718D01*
X0290614Y0248905D01*
X0290802Y0249134D01*
X0290941Y0249394D01*
X0291027Y0249677D01*
X0291031Y0249721D01*
X0291031Y0249721D02*
G37*
G36*
X0303898Y0251778D02*
X0303604Y0251749D01*
X0303322Y0251664D01*
X0303061Y0251524D01*
X0302833Y0251337D01*
X0302645Y0251108D01*
X0302506Y0250848D01*
X030242Y0250565D01*
X0302391Y0250271D01*
X030242Y0249977D01*
X0302506Y0249694D01*
X0302645Y0249434D01*
X0302833Y0249205D01*
X0303061Y0249018D01*
X0303322Y0248878D01*
X0303604Y0248793D01*
X0303898Y0248764D01*
X0304193Y0248793D01*
X0304475Y0248878D01*
X0304736Y0249018D01*
X0304964Y0249205D01*
X0305152Y0249434D01*
X0305291Y0249694D01*
X0305377Y0249977D01*
X0305406Y0250271D01*
X0305377Y0250565D01*
X0305291Y0250848D01*
X0305152Y0251108D01*
X0304964Y0251337D01*
X0304736Y0251524D01*
X0304475Y0251664D01*
X0304193Y0251749D01*
X0303898Y0251778D01*
X0303898Y0251778D02*
G37*
G36*
X0279299Y0251454D02*
X0279254Y0251449D01*
X0278972Y0251364D01*
X0278711Y0251224D01*
X0278483Y0251037D01*
X0278295Y0250808D01*
X0278156Y0250548D01*
X027807Y0250265D01*
X0278066Y0250221D01*
X0279299Y0250221D01*
X0279299Y0251454D01*
X0279299Y0251454D02*
G37*
G36*
X0284549Y0251471D02*
X0281549Y0251471D01*
X0281549Y0248471D01*
X0284549Y0248471D01*
X0284549Y0251471D01*
X0284549Y0251471D02*
G37*
G36*
X0275998Y0252281D02*
X0275998Y0252281D01*
X0273852Y0252281D01*
X0273823Y0252275D01*
X0273811Y0252277D01*
X0273799Y0252276D01*
X0273786Y0252277D01*
X0273774Y0252275D01*
X0273745Y0252281D01*
X0269852Y0252281D01*
X0269823Y0252275D01*
X0269812Y0252277D01*
X0269799Y0252276D01*
X0269785Y0252277D01*
X0269774Y0252275D01*
X0269745Y0252281D01*
X0265851Y0252281D01*
X0265823Y0252275D01*
X0265812Y0252276D01*
X0265799Y0252276D01*
X0265785Y0252276D01*
X0265774Y0252275D01*
X0265746Y0252281D01*
X0261851Y0252281D01*
X0261822Y0252275D01*
X0261813Y0252276D01*
X0261799Y0252275D01*
X0261784Y0252276D01*
X0261775Y0252275D01*
X0261746Y0252281D01*
X025785Y0252281D01*
X0257822Y0252275D01*
X0257814Y0252276D01*
X0257799Y0252275D01*
X0257784Y0252276D01*
X0257775Y0252275D01*
X0257747Y0252281D01*
X0257398Y0252281D01*
X025734Y0252269D01*
X0257203Y0252242D01*
X0257203Y0252242D01*
X0257203Y0252242D01*
X0257038Y0252131D01*
X0249087Y0244181D01*
X0233099Y0244181D01*
X0232903Y0244142D01*
X0232738Y0244031D01*
X0230955Y0242249D01*
X0230955Y0242249D01*
X0230955Y0242249D01*
X0230911Y0242183D01*
X0230845Y0242083D01*
X0230845Y0242083D01*
X0230845Y0242083D01*
X0230832Y0242018D01*
X0230806Y0241888D01*
X0230803Y0241861D01*
X0230729Y0241771D01*
X0230426Y0241771D01*
X0230299Y0241771D01*
X0230299Y0241771D01*
X0230298Y0241771D01*
X0230298Y0241771D01*
X0230298Y0241771D01*
X0228449Y0241771D01*
X0228449Y0242971D01*
X0227749Y0242971D01*
X0227749Y0242021D01*
X0227249Y0242021D01*
X0227249Y0242971D01*
X0226799Y0242971D01*
X0226799Y0243371D01*
X0225849Y0243371D01*
X0225849Y0242371D01*
X0225599Y0242371D01*
X0225599Y0242121D01*
X0224399Y0242121D01*
X0224399Y0241481D01*
X0221749Y0241481D01*
X0221749Y0242471D01*
X0221749Y0242921D01*
X0222749Y0242921D01*
X0222749Y0243921D01*
X0222749Y0244921D01*
X0221749Y0244921D01*
X0221749Y0245871D01*
X0221049Y0245871D01*
X0221049Y0244921D01*
X0220799Y0244921D01*
X0220799Y0244671D01*
X0219849Y0244671D01*
X0219849Y0243971D01*
X0219849Y0243101D01*
X0219735Y0243045D01*
X0219702Y024307D01*
X0219507Y024315D01*
X0219299Y0243178D01*
X021909Y024315D01*
X0218895Y024307D01*
X0218728Y0242942D01*
X02186Y0242774D01*
X0218519Y024258D01*
X0218492Y0242371D01*
X0218499Y0242319D01*
X0218499Y0241481D01*
X0217799Y0241481D01*
X0217603Y0241442D01*
X0217438Y0241331D01*
X0217328Y0241166D01*
X0217289Y0240971D01*
X0217289Y0240671D01*
X0217289Y0239771D01*
X0217289Y0228871D01*
X0217299Y0228822D01*
X0217299Y0228471D01*
X0217497Y0228471D01*
X0217603Y02284D01*
X0217799Y0228361D01*
X0218199Y0228361D01*
X0218199Y0225971D01*
X0227149Y0225971D01*
X0227202Y0225844D01*
X0227088Y0225731D01*
X0224999Y0225731D01*
X0224803Y0225692D01*
X0224638Y0225581D01*
X0224598Y0225521D01*
X0223099Y0225521D01*
X0223099Y0225371D01*
X0221998Y0225371D01*
X0221998Y0224571D01*
X0221998Y0223771D01*
X0222178Y0223771D01*
X0222192Y0223736D01*
X0222231Y0223643D01*
X0222335Y0223507D01*
X0222529Y0223313D01*
X02225Y0223163D01*
X0222395Y022312D01*
X0222228Y0222992D01*
X02221Y0222824D01*
X0222019Y022263D01*
X0221992Y0222421D01*
X0222019Y0222212D01*
X02221Y0222018D01*
X0222228Y022185D01*
X0222395Y0221722D01*
X022259Y0221642D01*
X0222799Y0221614D01*
X0222803Y0221615D01*
X0222855Y0221569D01*
X0222898Y0221499D01*
X0222898Y0220764D01*
X0222893Y0220721D01*
X0222893Y0220342D01*
X0222121Y0219571D01*
X0221149Y0219571D01*
X0221149Y0217671D01*
X0221149Y0217371D01*
X0222099Y0217371D01*
X0222099Y0217121D01*
X0222349Y0217121D01*
X0222349Y0216171D01*
X0222799Y0216171D01*
X0222799Y0215371D01*
X0222799Y0212921D01*
X0224672Y0212921D01*
X0224798Y0212921D01*
X0224799Y0212921D01*
X0224799Y0212921D01*
X0224799Y0212921D01*
X0224799Y0212921D01*
X0224992Y0212921D01*
X0224992Y0212671D01*
X0225019Y0212462D01*
X02251Y0212268D01*
X0225228Y02121D01*
X0225395Y0211972D01*
X022559Y0211892D01*
X0225799Y0211864D01*
X0226007Y0211892D01*
X0226202Y0211972D01*
X0226369Y02121D01*
X0226497Y0212268D01*
X0226578Y0212462D01*
X0226605Y0212671D01*
X0226605Y0212921D01*
X0226799Y0212921D01*
X0226799Y0212921D01*
X0226867Y0212981D01*
X0226999Y0212964D01*
X0227207Y0212992D01*
X0227402Y0213072D01*
X0227569Y02132D01*
X0227697Y0213368D01*
X0227778Y0213562D01*
X0227805Y0213771D01*
X0227778Y021398D01*
X0227699Y0214171D01*
X0227778Y0214362D01*
X0227805Y0214571D01*
X0227778Y021478D01*
X0227697Y0214974D01*
X0227569Y0215142D01*
X0227402Y021527D01*
X0227207Y021535D01*
X0226999Y0215378D01*
X0226924Y0215368D01*
X0226799Y021548D01*
X0226799Y0216321D01*
X0225799Y0216321D01*
X0225799Y0216821D01*
X0226799Y0216821D01*
X0226799Y0217771D01*
X0226499Y0217771D01*
X0226499Y0218321D01*
X0225549Y0218321D01*
X0225549Y0218571D01*
X0225299Y0218571D01*
X0225299Y0219521D01*
X0225204Y0219521D01*
X0225204Y0219821D01*
X0225699Y0219821D01*
X0225699Y0221521D01*
X0225699Y0221561D01*
X0230299Y0221561D01*
X023035Y0221572D01*
X0230449Y0221491D01*
X0230449Y0219821D01*
X0230489Y0219821D01*
X0230489Y0212271D01*
X0230528Y0212076D01*
X0230638Y0211911D01*
X0230803Y02118D01*
X0230999Y0211761D01*
X0238809Y0211761D01*
X0238899Y0211671D01*
X0238899Y0211481D01*
X0238099Y0211481D01*
X0237903Y0211442D01*
X0237738Y0211331D01*
X0237628Y0211166D01*
X0237589Y0210971D01*
X0237589Y0207171D01*
X0237589Y0206771D01*
X0237589Y0205271D01*
X0237628Y0205076D01*
X0237738Y0204911D01*
X0237903Y02048D01*
X0238099Y0204761D01*
X0253499Y0204761D01*
X0253694Y02048D01*
X0253725Y0204821D01*
X0254772Y0204821D01*
X0254898Y0204821D01*
X0254898Y0204821D01*
X0254899Y0204821D01*
X0254899Y0204821D01*
X0254899Y0204821D01*
X0256898Y0204821D01*
X0256898Y0205264D01*
X0258898Y0205264D01*
X0259107Y0205292D01*
X0259302Y0205372D01*
X0259469Y02055D01*
X0259597Y0205668D01*
X0259678Y0205862D01*
X0259705Y0206071D01*
X0259705Y0207071D01*
X0259683Y0207244D01*
X0259761Y0207371D01*
X0260199Y0207371D01*
X0260199Y0208421D01*
X0261799Y0208421D01*
X0261799Y0212721D01*
X0260357Y0212721D01*
X0260357Y0214821D01*
X0260349Y0214883D01*
X0260349Y0215371D01*
X0260349Y0216821D01*
X0260999Y0216821D01*
X0260999Y0217521D01*
X0260049Y0217521D01*
X0260049Y0218021D01*
X0260999Y0218021D01*
X0260999Y0218221D01*
X0260999Y0218921D01*
X0260049Y0218921D01*
X0260049Y0219421D01*
X0260999Y0219421D01*
X0260999Y0219621D01*
X0260999Y0220321D01*
X0260049Y0220321D01*
X0260049Y0220821D01*
X0260999Y0220821D01*
X0260999Y0221021D01*
X0260999Y0221721D01*
X0260049Y0221721D01*
X0260049Y0222221D01*
X0260999Y0222221D01*
X0260999Y0222421D01*
X0261799Y0222421D01*
X0261799Y0223371D01*
X0261799Y0224321D01*
X0261699Y0224321D01*
X0261699Y0224921D01*
X0260699Y0224921D01*
X0260699Y0225421D01*
X0261699Y0225421D01*
X0261699Y0225567D01*
X0265449Y0225567D01*
X0265449Y0225521D01*
X026798Y0225521D01*
X0268049Y0225423D01*
X0268049Y0222671D01*
X0266499Y0222671D01*
X0266499Y0214071D01*
X0268049Y0214071D01*
X0268049Y0212769D01*
X0270548Y0212769D01*
X0270548Y0214071D01*
X0275099Y0214071D01*
X0275099Y0218779D01*
X0275216Y0218827D01*
X0275385Y0218658D01*
X0275499Y0218571D01*
X0275499Y0218171D01*
X0277372Y0218171D01*
X0277499Y0218171D01*
X0277499Y0218171D01*
X0277499Y0218171D01*
X0277499Y0218171D01*
X0277499Y0218171D01*
X0278249Y0218171D01*
X0278249Y0219371D01*
X0278749Y0219371D01*
X0278749Y0218171D01*
X0279398Y0218171D01*
X0279398Y0217421D01*
X028029Y0217421D01*
X028029Y0214571D01*
X0280299Y0214505D01*
X0280299Y0213321D01*
X0282048Y0213321D01*
X0282092Y0213271D01*
X0282119Y0213062D01*
X02822Y0212868D01*
X0282328Y02127D01*
X0282495Y0212572D01*
X028269Y0212492D01*
X0282898Y0212464D01*
X0283107Y0212492D01*
X0283299Y0212571D01*
X028349Y0212492D01*
X0283699Y0212464D01*
X0283907Y0212492D01*
X0284102Y0212572D01*
X0284269Y02127D01*
X0284397Y0212868D01*
X0284478Y0213062D01*
X0284505Y0213271D01*
X028448Y0213463D01*
X0284516Y02135D01*
X0284591Y0213538D01*
X0284668Y0213479D01*
X0284972Y0213353D01*
X0285299Y021331D01*
X0285625Y0213353D01*
X0285929Y0213479D01*
X028619Y021368D01*
X028639Y0213941D01*
X0286516Y0214245D01*
X0286559Y0214571D01*
X0286516Y0214897D01*
X028639Y0215201D01*
X028619Y0215463D01*
X0285929Y0215663D01*
X0285625Y0215789D01*
X0285299Y0215832D01*
X0284972Y0215789D01*
X0284668Y0215663D01*
X0284591Y0215604D01*
X0284516Y0215642D01*
X028448Y0215679D01*
X0284505Y0215871D01*
X0284478Y021608D01*
X028441Y0216244D01*
X0284467Y0216371D01*
X0288199Y0216371D01*
X0288199Y0217421D01*
X0289099Y0217421D01*
X0289099Y0214121D01*
X0289389Y0214121D01*
X0289389Y0213071D01*
X0287699Y0213071D01*
X0287699Y0212921D01*
X0287049Y0212921D01*
X0287049Y0211571D01*
X0287049Y0210221D01*
X0287699Y0210221D01*
X0287699Y0210071D01*
X0289389Y0210071D01*
X0289389Y0209371D01*
X0289428Y0209176D01*
X0289538Y0209011D01*
X0289703Y02089D01*
X0289898Y0208861D01*
X0293182Y0208861D01*
X0293689Y0208354D01*
X0293689Y0206904D01*
X0293562Y0206861D01*
X0293476Y0206973D01*
X0293204Y0207182D01*
X0292888Y0207313D01*
X0292549Y0207357D01*
X0292209Y0207313D01*
X0291893Y0207182D01*
X0291621Y0206973D01*
X0291413Y0206702D01*
X0291362Y0206579D01*
X0291235Y0206579D01*
X0291184Y0206702D01*
X0290976Y0206973D01*
X0290704Y0207182D01*
X0290388Y0207313D01*
X0290049Y0207357D01*
X0289709Y0207313D01*
X0289393Y0207182D01*
X0289121Y0206973D01*
X0288913Y0206702D01*
X0288862Y0206579D01*
X0288735Y0206579D01*
X0288684Y0206702D01*
X0288476Y0206973D01*
X0288204Y0207182D01*
X0287888Y0207313D01*
X0287799Y0207324D01*
X0287799Y0206046D01*
X0287799Y0204768D01*
X0287888Y0204779D01*
X0288204Y020491D01*
X0288476Y0205119D01*
X0288684Y020539D01*
X0288735Y0205513D01*
X0288862Y0205513D01*
X0288913Y020539D01*
X0289121Y0205119D01*
X0289393Y020491D01*
X0289709Y0204779D01*
X0290049Y0204735D01*
X0290388Y0204779D01*
X0290704Y020491D01*
X0290976Y0205119D01*
X0291184Y020539D01*
X0291235Y0205513D01*
X0291362Y0205513D01*
X0291413Y020539D01*
X0291621Y0205119D01*
X0291893Y020491D01*
X0292209Y0204779D01*
X0292549Y0204735D01*
X0292888Y0204779D01*
X0293204Y020491D01*
X0293476Y0205119D01*
X0293566Y0205237D01*
X0293702Y0205205D01*
X0293728Y0205076D01*
X0293749Y0205045D01*
X0293749Y0204746D01*
X0296349Y0204746D01*
X0296349Y0204904D01*
X0296359Y0204911D01*
X029647Y0205076D01*
X0296508Y0205271D01*
X0296508Y0209371D01*
X0296508Y0209371D01*
X0296508Y0210273D01*
X0296635Y0210351D01*
X0296872Y0210253D01*
X0296949Y0210243D01*
X0296949Y0211471D01*
X0296949Y0212699D01*
X0296872Y0212689D01*
X0296616Y0212583D01*
X0296475Y0212636D01*
X029647Y0212666D01*
X0296359Y0212831D01*
X0296359Y0212831D01*
X0296359Y0212831D01*
X0296194Y0212942D01*
X0296184Y0212944D01*
X0296196Y0213071D01*
X0297898Y0213071D01*
X0297898Y0214121D01*
X0299499Y0214121D01*
X0299499Y0218421D01*
X0299108Y0218421D01*
X0299108Y0227371D01*
X0299069Y0227566D01*
X0298959Y0227732D01*
X0298794Y0227842D01*
X0298599Y0227881D01*
X0293499Y0227881D01*
X0293303Y0227842D01*
X0293272Y0227821D01*
X0292699Y0227821D01*
X0292699Y0226871D01*
X0292449Y0226871D01*
X0292449Y0226621D01*
X0291499Y0226621D01*
X0291499Y0226271D01*
X0290999Y0226271D01*
X0290999Y0225321D01*
X0291999Y0225321D01*
X0291999Y0224821D01*
X0290999Y0224821D01*
X0290999Y0223871D01*
X0290999Y0223321D01*
X0291999Y0223321D01*
X0291999Y0223071D01*
X0292249Y0223071D01*
X0292249Y0221871D01*
X0292989Y0221871D01*
X0292989Y0219371D01*
X0290699Y0219371D01*
X0290699Y0218481D01*
X0289898Y0218481D01*
X0289897Y021848D01*
X0289799Y0218561D01*
X0289799Y0221721D01*
X0289357Y0221721D01*
X0289357Y0223821D01*
X0289349Y0223883D01*
X0289349Y0224371D01*
X0289349Y0225821D01*
X0289999Y0225821D01*
X0289999Y0226521D01*
X0289049Y0226521D01*
X0289049Y0227021D01*
X0289999Y0227021D01*
X0289999Y0227221D01*
X0289999Y0227921D01*
X0289049Y0227921D01*
X0289049Y0228421D01*
X0289999Y0228421D01*
X0289999Y0228621D01*
X0289999Y0229321D01*
X0289049Y0229321D01*
X0289049Y0229821D01*
X0289999Y0229821D01*
X0289999Y0230021D01*
X0289999Y0230721D01*
X0289049Y0230721D01*
X0289049Y0231221D01*
X0289999Y0231221D01*
X0289999Y0231421D01*
X0289999Y0232731D01*
X0290088Y0232821D01*
X0290299Y0232821D01*
X0290299Y0233771D01*
X0290799Y0233771D01*
X0290799Y0232821D01*
X0291372Y0232821D01*
X0291499Y0232821D01*
X0291499Y0232694D01*
X0291499Y0232694D01*
X0291499Y0231621D01*
X0292199Y0231621D01*
X0292199Y0232571D01*
X0292199Y0233521D01*
X0291626Y0233521D01*
X0291499Y0233521D01*
X0291499Y0233648D01*
X0291499Y0234721D01*
X0290799Y0234721D01*
X0290799Y0235321D01*
X0289799Y0235321D01*
X0289799Y0235571D01*
X0289549Y0235571D01*
X0289549Y0236771D01*
X0288926Y0236771D01*
X0288799Y0236771D01*
X0288799Y0236771D01*
X0288798Y0236771D01*
X0288798Y0236771D01*
X0288798Y0236771D01*
X028822Y0236771D01*
X0288171Y0236888D01*
X0288676Y0237393D01*
X0288828Y0237592D01*
X0288924Y0237823D01*
X0288957Y0238071D01*
X0288957Y0239053D01*
X0289084Y0239092D01*
X0289138Y0239011D01*
X0290938Y0237211D01*
X0291103Y02371D01*
X0291298Y0237061D01*
X0291298Y0237061D01*
X0310198Y0237061D01*
X031034Y0237089D01*
X0310394Y02371D01*
X0310394Y02371D01*
X0310394Y02371D01*
X0310449Y0237137D01*
X0310559Y023721D01*
X0311359Y023801D01*
X0311359Y0238011D01*
X0311359Y0238011D01*
X031147Y0238176D01*
X0311508Y0238371D01*
X0311508Y0239121D01*
X0311799Y0239121D01*
X0311799Y0240071D01*
X0311799Y0241021D01*
X0311508Y0241021D01*
X0311508Y0241396D01*
X0311508Y0241771D01*
X0311507Y0241779D01*
X0311507Y0242621D01*
X0312999Y0242621D01*
X0312999Y0244521D01*
X0312999Y0244521D01*
X0312999Y0244621D01*
X0312999Y0244621D01*
X0312999Y0246521D01*
X0310799Y0246521D01*
X0310799Y0245571D01*
X0310549Y0245571D01*
X0310549Y0245321D01*
X0309599Y0245321D01*
X0309599Y0244621D01*
X0309599Y0244621D01*
X0309599Y0244621D01*
X0309599Y0244533D01*
X0309599Y0244521D01*
X0309599Y024451D01*
X0309599Y0244494D01*
X0309599Y0244494D01*
X0309599Y0244494D01*
X0309599Y0244494D01*
X0309599Y0243633D01*
X030959Y0243571D01*
X030959Y0242981D01*
X0302099Y0242981D01*
X0301903Y0242942D01*
X0301738Y0242831D01*
X0301209Y0242303D01*
X0301087Y0242361D01*
X0301108Y0242571D01*
X0301108Y0242821D01*
X0297089Y0242821D01*
X0297089Y0242571D01*
X0297121Y024225D01*
X0296999Y0242192D01*
X0292359Y0246832D01*
X0292359Y0246832D01*
X0292359Y0246832D01*
X0292293Y0246876D01*
X0292194Y0246942D01*
X0292194Y0246942D01*
X0292194Y0246942D01*
X0292115Y0246958D01*
X0291999Y0246981D01*
X0291999Y0246981D01*
X0291999Y0246981D01*
X0290399Y0246981D01*
X0290399Y0246981D01*
X0290301Y0246962D01*
X0290203Y0246942D01*
X0290203Y0246942D01*
X0290203Y0246942D01*
X0290148Y0246905D01*
X0290038Y0246832D01*
X0289138Y0245932D01*
X0289113Y0245894D01*
X0288978Y0245921D01*
X028897Y0245966D01*
X0288859Y0246132D01*
X0288694Y0246242D01*
X0288499Y0246281D01*
X0264499Y0246281D01*
X0264303Y0246242D01*
X0264272Y0246221D01*
X0263633Y0246221D01*
X0263507Y0246273D01*
X0263299Y02463D01*
X026309Y0246273D01*
X0262895Y0246192D01*
X0262728Y0246064D01*
X02626Y0245897D01*
X0262519Y0245702D01*
X0262492Y0245494D01*
X0262494Y0245476D01*
X026241Y0245381D01*
X0258799Y0245381D01*
X0258603Y0245342D01*
X0258438Y0245232D01*
X0258328Y0245066D01*
X0258289Y0244871D01*
X0258289Y0235871D01*
X0256199Y0235871D01*
X0256199Y0236021D01*
X0256157Y0236021D01*
X0256157Y0236264D01*
X0256869Y0236264D01*
X0257078Y0236292D01*
X0257272Y0236372D01*
X0257439Y02365D01*
X0257568Y0236668D01*
X0257648Y0236862D01*
X0257676Y0237071D01*
X0257648Y023728D01*
X0257568Y0237474D01*
X0257439Y0237642D01*
X0257272Y023777D01*
X0257102Y023784D01*
X0257092Y023789D01*
X0257092Y0237922D01*
X0257102Y0237972D01*
X0257272Y0238042D01*
X0257439Y0238171D01*
X0257568Y0238338D01*
X0257648Y0238532D01*
X0257676Y0238741D01*
X0257648Y023895D01*
X0257568Y0239145D01*
X0257439Y0239312D01*
X0257272Y023944D01*
X0257078Y0239521D01*
X0256869Y0239548D01*
X0255603Y0239548D01*
X0255578Y0239675D01*
X0255829Y0239779D01*
X025609Y023998D01*
X025629Y0240241D01*
X0256416Y0240545D01*
X0256426Y0240621D01*
X0253971Y0240621D01*
X0253981Y0240545D01*
X0254107Y0240241D01*
X0254307Y023998D01*
X0254568Y0239779D01*
X0254819Y0239675D01*
X0254794Y0239548D01*
X0253528Y0239548D01*
X0253319Y0239521D01*
X0253125Y023944D01*
X0253112Y023943D01*
X0252999Y0239487D01*
X0252999Y0239521D01*
X0252299Y0239521D01*
X0252299Y0238571D01*
X0251799Y0238571D01*
X0251799Y0239521D01*
X0250935Y0239521D01*
X0250887Y0239638D01*
X025801Y0246761D01*
X0275898Y0246761D01*
X0276094Y02468D01*
X0276204Y0246874D01*
X0276259Y0246911D01*
X0276859Y024751D01*
X0276859Y024751D01*
X0276909Y0247585D01*
X0276969Y0247676D01*
X0276969Y0247676D01*
X0276969Y0247676D01*
X0276984Y0247747D01*
X0277008Y0247871D01*
X0277008Y0251271D01*
X0277008Y0251271D01*
X0277008Y0251271D01*
X0276986Y0251383D01*
X027697Y0251466D01*
X027697Y0251466D01*
X027697Y0251466D01*
X0276907Y025156D01*
X0276859Y0251631D01*
X0276859Y0251631D01*
X0276859Y0251631D01*
X0276359Y0252132D01*
X0276193Y0252242D01*
X0276063Y0252268D01*
X0275998Y0252281D01*
X0275998Y0252281D02*
G37*
G36*
X0303648Y0248081D02*
X0303398Y0248081D01*
X0303006Y0248042D01*
X0302629Y0247928D01*
X0302282Y0247742D01*
X0301977Y0247492D01*
X0301728Y0247188D01*
X0301542Y024684D01*
X0301427Y0246463D01*
X0301413Y0246321D01*
X0303648Y0246321D01*
X0303648Y0248081D01*
X0303648Y0248081D02*
G37*
G36*
X0246049Y0249491D02*
X0245474Y0249491D01*
X0245474Y0248441D01*
X0246049Y0248441D01*
X0246049Y0249491D01*
X0246049Y0249491D02*
G37*
G36*
X0304398Y0248081D02*
X0304148Y0248081D01*
X0304148Y0246321D01*
X0306384Y0246321D01*
X030637Y0246463D01*
X0306255Y024684D01*
X0306069Y0247188D01*
X030582Y0247492D01*
X0305515Y0247742D01*
X0305168Y0247928D01*
X0304791Y0248042D01*
X0304398Y0248081D01*
X0304398Y0248081D02*
G37*
G36*
X0224749Y0244921D02*
X0223249Y0244921D01*
X0223249Y0244171D01*
X0224749Y0244171D01*
X0224749Y0244921D01*
X0224749Y0244921D02*
G37*
G36*
X0306384Y0245821D02*
X0304148Y0245821D01*
X0304148Y0244061D01*
X0304398Y0244061D01*
X0304791Y02441D01*
X0305168Y0244214D01*
X0305515Y02444D01*
X030582Y024465D01*
X0306069Y0244955D01*
X0306255Y0245302D01*
X030637Y0245679D01*
X0306384Y0245821D01*
X0306384Y0245821D02*
G37*
G36*
X0310299Y0246521D02*
X0309599Y0246521D01*
X0309599Y0245821D01*
X0310299Y0245821D01*
X0310299Y0246521D01*
X0310299Y0246521D02*
G37*
G36*
X0220549Y0245871D02*
X0219849Y0245871D01*
X0219849Y0245171D01*
X0220549Y0245171D01*
X0220549Y0245871D01*
X0220549Y0245871D02*
G37*
G36*
X0312549Y0211421D02*
X0311571Y0211421D01*
X0311581Y0211345D01*
X0311707Y0211041D01*
X0311907Y021078D01*
X0312168Y0210579D01*
X0312472Y0210453D01*
X0312549Y0210443D01*
X0312549Y0211421D01*
X0312549Y0211421D02*
G37*
G36*
X0235799Y0252071D02*
X0235799Y0252071D01*
X0235799Y0252071D01*
X0235672Y0252071D01*
X0235049Y0252071D01*
X0235049Y0248821D01*
X0235049Y0245571D01*
X0235672Y0245571D01*
X0235799Y0245571D01*
X0235799Y0245571D01*
X0235926Y0245571D01*
X0236549Y0245571D01*
X0236549Y0248821D01*
X0236549Y0252071D01*
X0235926Y0252071D01*
X0235799Y0252071D01*
X0235799Y0252071D02*
G37*
G36*
X0303648Y0210821D02*
X0301413Y0210821D01*
X0301427Y0210679D01*
X0301542Y0210302D01*
X0301728Y0209955D01*
X0301977Y020965D01*
X0302282Y02094D01*
X0302629Y0209214D01*
X0303006Y02091D01*
X0303398Y0209061D01*
X0303648Y0209061D01*
X0303648Y0210821D01*
X0303648Y0210821D02*
G37*
G36*
X0280419Y0207433D02*
X0280066Y0207386D01*
X0279738Y020725D01*
X0279456Y0207034D01*
X0279239Y0206752D01*
X0279212Y0206686D01*
X0279085Y0206686D01*
X0279058Y0206752D01*
X0278841Y0207034D01*
X0278559Y020725D01*
X0278231Y0207386D01*
X0277879Y0207433D01*
X0277526Y0207386D01*
X0277198Y020725D01*
X0276916Y0207034D01*
X0276699Y0206752D01*
X0276672Y0206686D01*
X0276545Y0206686D01*
X0276518Y0206752D01*
X0276301Y0207034D01*
X0276019Y020725D01*
X0275691Y0207386D01*
X0275589Y02074D01*
X0275589Y0206071D01*
X0275589Y0204742D01*
X0275691Y0204756D01*
X0276019Y0204892D01*
X0276301Y0205108D01*
X0276518Y020539D01*
X0276545Y0205456D01*
X0276672Y0205456D01*
X0276699Y020539D01*
X0276916Y0205108D01*
X0277198Y0204892D01*
X0277526Y0204756D01*
X0277879Y0204709D01*
X0278231Y0204756D01*
X0278559Y0204892D01*
X0278841Y0205108D01*
X0279058Y020539D01*
X0279085Y0205456D01*
X0279212Y0205456D01*
X0279239Y020539D01*
X0279456Y0205108D01*
X0279738Y0204892D01*
X0280066Y0204756D01*
X0280419Y0204709D01*
X0280771Y0204756D01*
X0281099Y0204892D01*
X0281381Y0205108D01*
X0281482Y0205239D01*
X0281609Y0205196D01*
X0281609Y0204721D01*
X0284309Y0204721D01*
X0284309Y0207421D01*
X0281609Y0207421D01*
X0281609Y0206946D01*
X0281482Y0206903D01*
X0281381Y0207034D01*
X0281099Y020725D01*
X0280771Y0207386D01*
X0280419Y0207433D01*
X0280419Y0207433D02*
G37*
G36*
X0306384Y0210821D02*
X0304148Y0210821D01*
X0304148Y0209061D01*
X0304398Y0209061D01*
X0304791Y02091D01*
X0305168Y0209214D01*
X0305515Y02094D01*
X030582Y020965D01*
X0306069Y0209955D01*
X0306255Y0210302D01*
X030637Y0210679D01*
X0306384Y0210821D01*
X0306384Y0210821D02*
G37*
G36*
X0298426Y0211221D02*
X0297449Y0211221D01*
X0297449Y0210243D01*
X0297525Y0210253D01*
X0297829Y0210379D01*
X029809Y021058D01*
X029829Y0210841D01*
X0298416Y0211145D01*
X0298426Y0211221D01*
X0298426Y0211221D02*
G37*
G36*
X0286549Y0211321D02*
X0285449Y0211321D01*
X0285449Y0210221D01*
X0286549Y0210221D01*
X0286549Y0211321D01*
X0286549Y0211321D02*
G37*
%LPD*%
G36*
X0276499Y0251271D02*
X0276498Y0247871D01*
X0275898Y0247271D01*
X0257798Y0247271D01*
X0250049Y0239521D01*
X0249599Y0239521D01*
X0249599Y0239071D01*
X0249398Y0238871D01*
X0236999Y0238871D01*
X0236999Y0239521D01*
X0236808Y0239521D01*
X023675Y0239648D01*
X0236801Y0239714D01*
X0237469Y0239714D01*
X0237678Y0239742D01*
X0237872Y0239822D01*
X0238039Y023995D01*
X0238168Y0240118D01*
X0238248Y0240312D01*
X0238276Y0240521D01*
X0238248Y024073D01*
X0238168Y0240924D01*
X0238039Y0241092D01*
X0237872Y024122D01*
X0237678Y02413D01*
X0237469Y0241328D01*
X0236755Y0241328D01*
X023669Y0241413D01*
X0236429Y0241613D01*
X0236125Y0241739D01*
X0235799Y0241782D01*
X0235472Y0241739D01*
X0235168Y0241613D01*
X0234907Y0241413D01*
X0234707Y0241151D01*
X023459Y0240869D01*
X0234524Y0240857D01*
X0234458Y0240869D01*
X023434Y0241151D01*
X023414Y0241413D01*
X0233879Y0241613D01*
X0233575Y0241739D01*
X0233499Y0241749D01*
X0233499Y0240521D01*
X0232999Y0240521D01*
X0232999Y0241749D01*
X0232922Y0241739D01*
X0232618Y0241613D01*
X0232426Y0241465D01*
X0232299Y0241528D01*
X0232299Y0241771D01*
X0231364Y0241771D01*
X0231316Y0241888D01*
X0233099Y0243671D01*
X0249299Y0243671D01*
X0257398Y0251771D01*
X0257747Y0251771D01*
X0257799Y0251764D01*
X025785Y0251771D01*
X0261746Y0251771D01*
X0261799Y0251764D01*
X0261851Y0251771D01*
X0265746Y0251771D01*
X0265799Y0251764D01*
X0265851Y0251771D01*
X0269745Y0251771D01*
X0269799Y0251764D01*
X0269852Y0251771D01*
X0273745Y0251771D01*
X0273799Y0251764D01*
X0273852Y0251771D01*
X0275998Y0251771D01*
X0276499Y0251271D01*
X0276499Y0251271D02*
G37*
G36*
X0242299Y0224421D02*
X0242899Y0224421D01*
X0242899Y0222346D01*
X0244799Y0222346D01*
X0244799Y0222496D01*
X0245798Y0222496D01*
X02458Y0222493D01*
X0245928Y0222325D01*
X024592Y0222196D01*
X0245847Y0222121D01*
X0244049Y0222121D01*
X0244049Y0221171D01*
X0243799Y0221171D01*
X0243799Y0220921D01*
X0242849Y0220921D01*
X0242849Y0220221D01*
X0242899Y0220221D01*
X0242899Y0218781D01*
X0241499Y0218781D01*
X0241499Y0220471D01*
X0239702Y0220471D01*
X0239702Y0222346D01*
X0241499Y0222346D01*
X0241499Y0224421D01*
X0241799Y0224421D01*
X0241799Y0225371D01*
X0242299Y0225371D01*
X0242299Y0224421D01*
X0242299Y0224421D02*
G37*
G36*
X0291999Y0246471D02*
X0297898Y0240571D01*
X0299Y0240571D01*
X0299099Y0240561D01*
X0299197Y0240571D01*
X0300199Y0240571D01*
X0302099Y0242471D01*
X0310299Y0242471D01*
X0310999Y0241771D01*
X0310999Y0241021D01*
X0310799Y0241021D01*
X0310799Y0240071D01*
X0310799Y0239121D01*
X0310909Y0239121D01*
X0310998Y0239031D01*
X0310998Y0238371D01*
X0310198Y0237571D01*
X0291298Y0237571D01*
X0289498Y0239371D01*
X0289499Y0242521D01*
X0289749Y0242521D01*
X0289749Y0243771D01*
X0289749Y0245021D01*
X0289588Y0245021D01*
X0289499Y0245111D01*
X0289499Y0245571D01*
X0290399Y0246471D01*
X0291999Y0246471D01*
X0291999Y0246471D02*
G37*
G36*
X0255999Y0233431D02*
X0255999Y0228371D01*
X0258209Y0228371D01*
X0258299Y0228281D01*
X0258299Y0226421D01*
X0258192Y0226371D01*
X0257949Y0226371D01*
X0257949Y0226871D01*
X0257249Y0226871D01*
X0257249Y0225921D01*
X0256749Y0225921D01*
X0256749Y0226871D01*
X0256549Y0226871D01*
X0256549Y0226871D01*
X0256355Y0226871D01*
X0256329Y0227067D01*
X0256254Y0227249D01*
X0256133Y0227406D01*
X0256133Y0227406D01*
X0253805Y0229734D01*
X0253805Y0233521D01*
X0254072Y0233521D01*
X0254199Y0233521D01*
X0254199Y0233521D01*
X0254199Y0233521D01*
X0254199Y0233521D01*
X0254199Y0233521D01*
X0255909Y0233521D01*
X0255999Y0233431D01*
X0255999Y0233431D02*
G37*
G36*
X0270349Y0242521D02*
X0270398Y0242521D01*
X0270398Y0241621D01*
X0270349Y0241621D01*
X0270349Y0240621D01*
X0271799Y0240621D01*
X0271799Y0240121D01*
X0270349Y0240121D01*
X0270349Y0239121D01*
X0270599Y0239121D01*
X0270599Y0238571D01*
X0271549Y0238571D01*
X0271549Y0238071D01*
X0270599Y0238071D01*
X0270599Y0237781D01*
X0269459Y0237781D01*
X0269308Y0237931D01*
X0269308Y0240971D01*
X026927Y0241166D01*
X0269159Y0241331D01*
X0268994Y0241442D01*
X0268799Y0241481D01*
X0268138Y0241481D01*
X0268067Y0241586D01*
X0268078Y0241612D01*
X0268105Y0241821D01*
X0268078Y024203D01*
X0267997Y0242224D01*
X0267869Y0242392D01*
X0267814Y0242434D01*
X0267857Y0242561D01*
X0270349Y0242561D01*
X0270349Y0242521D01*
X0270349Y0242521D02*
G37*
G36*
X0251049Y0210571D02*
X0251389Y0210571D01*
X0251389Y0207931D01*
X0251138Y0207681D01*
X02488Y0207681D01*
X02488Y020982D01*
X0247588Y020982D01*
X0247499Y020991D01*
X0247499Y0210161D01*
X0249299Y0210161D01*
X0249494Y02102D01*
X0249659Y0210311D01*
X024977Y0210476D01*
X024977Y0210476D01*
X024977Y0210476D01*
X0249838Y0210571D01*
X0250549Y0210571D01*
X0250549Y0211771D01*
X0251049Y0211771D01*
X0251049Y0210571D01*
X0251049Y0210571D02*
G37*
G36*
X0286049Y0239121D02*
X028704Y0239121D01*
X028704Y0238468D01*
X0286902Y0238329D01*
X0285599Y0238329D01*
X0285351Y0238297D01*
X0285119Y0238201D01*
X0284921Y0238049D01*
X0284021Y0237149D01*
X0283869Y023695D01*
X0283773Y0236719D01*
X028374Y0236471D01*
X028374Y0236446D01*
X0282849Y0236446D01*
X0282849Y0235796D01*
X0282349Y0235796D01*
X0282349Y0236446D01*
X0281999Y0236446D01*
X0281999Y0236921D01*
X0280049Y0236921D01*
X0280049Y0231571D01*
X0279549Y0231571D01*
X0279549Y0236921D01*
X0277599Y0236921D01*
X0277599Y0236446D01*
X0277041Y0236446D01*
X0276999Y0236452D01*
X0276645Y0236452D01*
X0276054Y0237043D01*
X0276054Y0237421D01*
X0276032Y0237591D01*
X0276013Y0237637D01*
X0275966Y0237749D01*
X0275862Y0237885D01*
X0275449Y0238298D01*
X0275449Y0239121D01*
X0277148Y0239121D01*
X0277148Y0240371D01*
X0277648Y0240371D01*
X0277648Y0239121D01*
X0279949Y0239121D01*
X0279949Y0240371D01*
X0280449Y0240371D01*
X0280449Y0239121D01*
X0282749Y0239121D01*
X0282749Y0240371D01*
X0283249Y0240371D01*
X0283249Y0239121D01*
X0285549Y0239121D01*
X0285549Y0240371D01*
X0286049Y0240371D01*
X0286049Y0239121D01*
X0286049Y0239121D02*
G37*
G36*
X0277599Y0226221D02*
X0281849Y0226221D01*
X0281849Y0224771D01*
X0281849Y0224672D01*
X0281799Y0224628D01*
X028159Y02246D01*
X0281395Y022452D01*
X0281228Y0224392D01*
X02811Y0224224D01*
X0281019Y022403D01*
X0280992Y0223821D01*
X0281019Y0223612D01*
X02811Y0223418D01*
X0281228Y022325D01*
X0281395Y0223122D01*
X028159Y0223042D01*
X0281799Y0223014D01*
X028184Y0222977D01*
X028184Y0222824D01*
X0281713Y0222761D01*
X0281702Y022277D01*
X0281507Y022285D01*
X0281299Y0222878D01*
X028109Y022285D01*
X0280895Y022277D01*
X0280799Y0222696D01*
X0280702Y022277D01*
X0280507Y022285D01*
X0280299Y0222878D01*
X028009Y022285D01*
X0279895Y022277D01*
X0279862Y0222745D01*
X0279749Y0222801D01*
X0279749Y0223121D01*
X0279749Y0224321D01*
X0277249Y0224321D01*
X0277249Y0223121D01*
X0277249Y0222021D01*
X0278499Y0222021D01*
X0278499Y0221521D01*
X0277249Y0221521D01*
X0277249Y0220571D01*
X0276349Y0220571D01*
X0276349Y0223121D01*
X0276349Y0226021D01*
X0273849Y0226021D01*
X0273849Y0225775D01*
X0272363Y0225775D01*
X0272283Y0225902D01*
X0272305Y0226071D01*
X0272278Y022628D01*
X0272256Y0226334D01*
X0272326Y0226439D01*
X0273549Y0226439D01*
X0273549Y0226296D01*
X0275449Y0226296D01*
X0275449Y022669D01*
X0276999Y022669D01*
X0277041Y0226696D01*
X0277599Y0226696D01*
X0277599Y0226221D01*
X0277599Y0226221D02*
G37*
G36*
X0241008Y022694D02*
X0240964Y0226906D01*
X0240379Y0226321D01*
X0239599Y0226321D01*
X0239599Y0224546D01*
X0237902Y0224546D01*
X0237902Y0226205D01*
X0238733Y0227036D01*
X0238757Y0227067D01*
X0240965Y0227067D01*
X0241008Y022694D01*
X0241008Y022694D02*
G37*
G36*
X0251149Y0230121D02*
X0252292Y0230121D01*
X0252292Y0229421D01*
X0252318Y0229225D01*
X0252393Y0229043D01*
X0252514Y0228886D01*
X0253836Y0227563D01*
X0253788Y0227446D01*
X0252999Y0227446D01*
X0252999Y0227921D01*
X0251049Y0227921D01*
X0251049Y0222571D01*
X0251049Y0217221D01*
X0252849Y0217221D01*
X0252849Y0215781D01*
X0251899Y0215781D01*
X0251897Y021578D01*
X0251799Y0215861D01*
X0251799Y0216971D01*
X0251049Y0216971D01*
X0251049Y0215771D01*
X0250549Y0215771D01*
X0250549Y0216971D01*
X0249799Y0216971D01*
X0249799Y0216971D01*
X0249799Y0216971D01*
X0249799Y0216971D01*
X0249799Y0216971D01*
X0249672Y0216971D01*
X0248498Y0216971D01*
X0248449Y0216977D01*
X0248399Y0216971D01*
X0247799Y0216971D01*
X0247799Y0216641D01*
X0247738Y0216581D01*
X0246282Y0216581D01*
X0246208Y0216671D01*
X0246208Y0217296D01*
X0246249Y0217296D01*
X0246249Y021769D01*
X0247999Y021769D01*
X0248041Y0217696D01*
X0248599Y0217696D01*
X0248599Y0217221D01*
X0250549Y0217221D01*
X0250549Y0222571D01*
X0250549Y0227921D01*
X0248599Y0227921D01*
X0248599Y0227446D01*
X0248041Y0227446D01*
X0247999Y0227452D01*
X0247345Y0227452D01*
X0246954Y0227843D01*
X0246954Y0228271D01*
X0246932Y0228441D01*
X0246899Y022852D01*
X0246866Y0228599D01*
X0246762Y0228735D01*
X0246249Y0229248D01*
X0246249Y0230121D01*
X0247849Y0230121D01*
X0247849Y0231371D01*
X0248349Y0231371D01*
X0248349Y0230121D01*
X0250649Y0230121D01*
X0250649Y0231371D01*
X0251149Y0231371D01*
X0251149Y0230121D01*
X0251149Y0230121D02*
G37*
G36*
X0243899Y0232621D02*
X0243849Y0232621D01*
X0243849Y0231621D01*
X0245299Y0231621D01*
X0245299Y0231121D01*
X0243849Y0231121D01*
X0243849Y0230221D01*
X0242599Y0230221D01*
X0242599Y0229271D01*
X0242349Y0229271D01*
X0242349Y0229021D01*
X0241399Y0229021D01*
X0241399Y0228721D01*
X0241399Y0228475D01*
X0237599Y0228475D01*
X0237599Y0229329D01*
X0237599Y0229446D01*
X0237599Y0229446D01*
X0237553Y0229562D01*
X0237528Y022975D01*
X0237447Y0229944D01*
X0237319Y0230112D01*
X0237152Y023024D01*
X0236957Y023032D01*
X0236749Y0230348D01*
X023654Y023032D01*
X0236345Y023024D01*
X0236235Y0230156D01*
X0236108Y0230218D01*
X0236108Y0231111D01*
X0236359Y0231361D01*
X0237799Y0231361D01*
X0237799Y0231346D01*
X0237799Y0230813D01*
X0237799Y0230696D01*
X0237799Y0230696D01*
X0237844Y023058D01*
X0237869Y0230392D01*
X023795Y0230198D01*
X0238078Y023003D01*
X0238245Y0229902D01*
X023844Y0229822D01*
X0238649Y0229794D01*
X0238857Y0229822D01*
X0239052Y0229902D01*
X0239219Y023003D01*
X0239347Y0230198D01*
X0239428Y0230392D01*
X0239442Y0230497D01*
X0239577Y02306D01*
X0239651Y0230585D01*
X0242036Y0230585D01*
X0242255Y0230629D01*
X0242441Y0230753D01*
X0242566Y0230939D01*
X024261Y0231159D01*
X024261Y0233312D01*
X0242759Y0233461D01*
X0243899Y0233461D01*
X0243899Y0232621D01*
X0243899Y0232621D02*
G37*
G36*
X0271398Y0233321D02*
X0271999Y0233321D01*
X0271999Y0231346D01*
X0273898Y0231346D01*
X0273898Y0231496D01*
X0274798Y0231496D01*
X02748Y0231493D01*
X0274928Y0231325D01*
X027492Y0231196D01*
X0274847Y0231121D01*
X0273199Y0231121D01*
X0273199Y0230171D01*
X0272949Y0230171D01*
X0272949Y0229921D01*
X0271999Y0229921D01*
X0271999Y0229221D01*
X0271999Y0228053D01*
X0270599Y0228053D01*
X0270599Y0228401D01*
X0270833Y0228636D01*
X0270833Y0228636D01*
X0270894Y0228714D01*
X0270954Y0228793D01*
X0271029Y0228975D01*
X0271055Y0229171D01*
X0271055Y0229171D01*
X0271055Y0229307D01*
X0271078Y0229362D01*
X0271105Y0229571D01*
X0271078Y022978D01*
X0270997Y0229974D01*
X0270869Y0230142D01*
X0270702Y023027D01*
X0270507Y023035D01*
X0270299Y0230378D01*
X027009Y023035D01*
X0269895Y023027D01*
X0269728Y0230142D01*
X02696Y0229974D01*
X0269519Y022978D01*
X0269505Y0229672D01*
X0269366Y0229589D01*
X0269349Y0229595D01*
X0269349Y0229921D01*
X0267099Y0229921D01*
X0267099Y0230421D01*
X0269349Y0230421D01*
X0269349Y0230509D01*
X0269476Y0230587D01*
X0269648Y0230564D01*
X0269857Y0230592D01*
X0270052Y0230672D01*
X0270219Y02308D01*
X0270347Y0230968D01*
X0270428Y0231162D01*
X0270452Y0231346D01*
X0270599Y0231346D01*
X0270599Y0233321D01*
X0270898Y0233321D01*
X0270898Y0234271D01*
X0271398Y0234271D01*
X0271398Y0233321D01*
X0271398Y0233321D02*
G37*
%LPC*%
G36*
X0264549Y0249721D02*
X0263299Y0249721D01*
X0263299Y0248471D01*
X0264549Y0248471D01*
X0264549Y0249721D01*
X0264549Y0249721D02*
G37*
G36*
X0272799Y0249721D02*
X0271549Y0249721D01*
X0271549Y0248471D01*
X0272799Y0248471D01*
X0272799Y0249721D01*
X0272799Y0249721D02*
G37*
G36*
X0262799Y0249721D02*
X0261549Y0249721D01*
X0261549Y0248471D01*
X0262799Y0248471D01*
X0262799Y0249721D01*
X0262799Y0249721D02*
G37*
G36*
X0259549Y0251478D02*
X0259254Y0251449D01*
X0258972Y0251364D01*
X0258711Y0251224D01*
X0258483Y0251037D01*
X0258295Y0250808D01*
X0258156Y0250548D01*
X025807Y0250265D01*
X0258041Y0249971D01*
X025807Y0249677D01*
X0258156Y0249394D01*
X0258295Y0249134D01*
X0258483Y0248905D01*
X0258711Y0248718D01*
X0258972Y0248579D01*
X0259254Y0248493D01*
X0259549Y0248464D01*
X0259843Y0248493D01*
X0260125Y0248579D01*
X0260386Y0248718D01*
X0260614Y0248905D01*
X0260802Y0249134D01*
X0260941Y0249394D01*
X0261027Y0249677D01*
X0261056Y0249971D01*
X0261027Y0250265D01*
X0260941Y0250548D01*
X0260802Y0250808D01*
X0260614Y0251037D01*
X0260386Y0251224D01*
X0260125Y0251364D01*
X0259843Y0251449D01*
X0259549Y0251478D01*
X0259549Y0251478D02*
G37*
G36*
X0269549Y0251478D02*
X0269254Y0251449D01*
X0268972Y0251364D01*
X0268711Y0251224D01*
X0268483Y0251037D01*
X0268295Y0250808D01*
X0268156Y0250548D01*
X026807Y0250265D01*
X0268041Y0249971D01*
X026807Y0249677D01*
X0268156Y0249394D01*
X0268295Y0249134D01*
X0268483Y0248905D01*
X0268711Y0248718D01*
X0268972Y0248579D01*
X0269254Y0248493D01*
X0269549Y0248464D01*
X0269843Y0248493D01*
X0270125Y0248579D01*
X0270386Y0248718D01*
X0270614Y0248905D01*
X0270802Y0249134D01*
X0270941Y0249394D01*
X0271027Y0249677D01*
X0271056Y0249971D01*
X0271027Y0250265D01*
X0270941Y0250548D01*
X0270802Y0250808D01*
X0270614Y0251037D01*
X0270386Y0251224D01*
X0270125Y0251364D01*
X0269843Y0251449D01*
X0269549Y0251478D01*
X0269549Y0251478D02*
G37*
G36*
X0272799Y0251471D02*
X0271549Y0251471D01*
X0271549Y0250221D01*
X0272799Y0250221D01*
X0272799Y0251471D01*
X0272799Y0251471D02*
G37*
G36*
X0274549Y0251471D02*
X0273299Y0251471D01*
X0273299Y0250221D01*
X0274549Y0250221D01*
X0274549Y0251471D01*
X0274549Y0251471D02*
G37*
G36*
X0264549Y0251471D02*
X0263299Y0251471D01*
X0263299Y0250221D01*
X0264549Y0250221D01*
X0264549Y0251471D01*
X0264549Y0251471D02*
G37*
G36*
X0274549Y0249721D02*
X0273299Y0249721D01*
X0273299Y0248471D01*
X0274549Y0248471D01*
X0274549Y0249721D01*
X0274549Y0249721D02*
G37*
G36*
X0262799Y0251471D02*
X0261549Y0251471D01*
X0261549Y0250221D01*
X0262799Y0250221D01*
X0262799Y0251471D01*
X0262799Y0251471D02*
G37*
G36*
X0292049Y0244999D02*
X0292049Y0244021D01*
X0293026Y0244021D01*
X0293016Y0244097D01*
X029289Y0244401D01*
X029269Y0244663D01*
X0292429Y0244863D01*
X0292125Y0244989D01*
X0292049Y0244999D01*
X0292049Y0244999D02*
G37*
G36*
X0272699Y0231121D02*
X0271999Y0231121D01*
X0271999Y0230421D01*
X0272699Y0230421D01*
X0272699Y0231121D01*
X0272699Y0231121D02*
G37*
G36*
X0306925Y0239821D02*
X0300872Y0239821D01*
X0300891Y023963D01*
X030102Y0239206D01*
X0301229Y0238815D01*
X030151Y0238472D01*
X0301852Y0238191D01*
X0302243Y0237982D01*
X0302667Y0237854D01*
X0303109Y023781D01*
X0304689Y023781D01*
X030513Y0237854D01*
X0305554Y0237982D01*
X0305945Y0238191D01*
X0306287Y0238472D01*
X0306568Y0238815D01*
X0306777Y0239206D01*
X0306906Y023963D01*
X0306925Y0239821D01*
X0306925Y0239821D02*
G37*
G36*
X0242099Y0230221D02*
X0241399Y0230221D01*
X0241399Y0229521D01*
X0242099Y0229521D01*
X0242099Y0230221D01*
X0242099Y0230221D02*
G37*
G36*
X0243549Y0222121D02*
X0242849Y0222121D01*
X0242849Y0221421D01*
X0243549Y0221421D01*
X0243549Y0222121D01*
X0243549Y0222121D02*
G37*
G36*
X0279749Y0226021D02*
X0277249Y0226021D01*
X0277249Y0224821D01*
X0279749Y0224821D01*
X0279749Y0226021D01*
X0279749Y0226021D02*
G37*
G36*
X0290999Y0245021D02*
X0290249Y0245021D01*
X0290249Y0243771D01*
X0290249Y0242521D01*
X0290999Y0242521D01*
X0290999Y0242666D01*
X0291112Y0242722D01*
X0291168Y0242679D01*
X0291472Y0242553D01*
X0291549Y0242543D01*
X0291549Y0243771D01*
X0291549Y0244999D01*
X0291472Y0244989D01*
X0291168Y0244863D01*
X0291112Y024482D01*
X0290999Y0244876D01*
X0290999Y0245021D01*
X0290999Y0245021D02*
G37*
G36*
X0293026Y0243521D02*
X0292049Y0243521D01*
X0292049Y0242543D01*
X0292125Y0242553D01*
X0292429Y0242679D01*
X029269Y024288D01*
X029289Y0243141D01*
X0293016Y0243445D01*
X0293026Y0243521D01*
X0293026Y0243521D02*
G37*
G36*
X0304689Y0242332D02*
X0303109Y0242332D01*
X0302667Y0242288D01*
X0302243Y024216D01*
X0301852Y0241951D01*
X030151Y024167D01*
X0301229Y0241327D01*
X030102Y0240936D01*
X0300891Y0240512D01*
X0300872Y0240321D01*
X0306925Y0240321D01*
X0306906Y0240512D01*
X0306777Y0240936D01*
X0306568Y0241327D01*
X0306287Y024167D01*
X0305945Y0241951D01*
X0305554Y024216D01*
X030513Y0242288D01*
X0304689Y0242332D01*
X0304689Y0242332D02*
G37*
G36*
X0310299Y0239821D02*
X0309599Y0239821D01*
X0309599Y0239121D01*
X0310299Y0239121D01*
X0310299Y0239821D01*
X0310299Y0239821D02*
G37*
G36*
X0310299Y0241021D02*
X0309599Y0241021D01*
X0309599Y0240321D01*
X0310299Y0240321D01*
X0310299Y0241021D01*
X0310299Y0241021D02*
G37*
%LPD*%
D10*
X0260049Y0210571D02*
D03*
X0253149Y0210571D02*
D03*
X0288049Y0219571D02*
D03*
X0281148Y0219571D02*
D03*
X0297749Y0216271D02*
D03*
X0290849Y0216271D02*
D03*
D11*
X0278499Y0224571D02*
D03*
X0275099Y0224571D02*
D03*
X0278499Y0221771D02*
D03*
X0275099Y0221771D02*
D03*
D12*
X0282599Y0227346D02*
D03*
X0282599Y0227996D02*
D03*
X0282599Y0228646D02*
D03*
X0282599Y0229296D02*
D03*
X0282599Y0229946D02*
D03*
X0282599Y0230596D02*
D03*
X0282599Y0231246D02*
D03*
X0282599Y0231896D02*
D03*
X0282599Y0232546D02*
D03*
X0282599Y0233196D02*
D03*
X0282599Y0233846D02*
D03*
X0282599Y0234496D02*
D03*
X0282599Y0235146D02*
D03*
X0282599Y0235796D02*
D03*
X0276999Y0235796D02*
D03*
X0276999Y0235146D02*
D03*
X0276999Y0234496D02*
D03*
X0276999Y0233846D02*
D03*
X0276999Y0233196D02*
D03*
X0276999Y0232546D02*
D03*
X0276999Y0231896D02*
D03*
X0276999Y0231246D02*
D03*
X0276999Y0230596D02*
D03*
X0276999Y0229946D02*
D03*
X0276999Y0229296D02*
D03*
X0276999Y0228646D02*
D03*
X0276999Y0227996D02*
D03*
X0276999Y0227346D02*
D03*
X0253599Y0218346D02*
D03*
X0253599Y0218996D02*
D03*
X0253599Y0219646D02*
D03*
X0253599Y0220296D02*
D03*
X0253599Y0220946D02*
D03*
X0253599Y0221596D02*
D03*
X0253599Y0222246D02*
D03*
X0253599Y0222896D02*
D03*
X0253599Y0223546D02*
D03*
X0253599Y0224196D02*
D03*
X0253599Y0224846D02*
D03*
X0253599Y0225496D02*
D03*
X0253599Y0226146D02*
D03*
X0253599Y0226796D02*
D03*
X0247999Y0226796D02*
D03*
X0247999Y0226146D02*
D03*
X0247999Y0225496D02*
D03*
X0247999Y0224846D02*
D03*
X0247999Y0224196D02*
D03*
X0247999Y0223546D02*
D03*
X0247999Y0222896D02*
D03*
X0247999Y0222246D02*
D03*
X0247999Y0221596D02*
D03*
X0247999Y0220946D02*
D03*
X0247999Y0220296D02*
D03*
X0247999Y0219646D02*
D03*
X0247999Y0218996D02*
D03*
X0247999Y0218346D02*
D03*
D13*
X0279799Y0231571D02*
D03*
X0250799Y0222571D02*
D03*
D14*
X0265349Y0245494D02*
D03*
X0264699Y0245494D02*
D03*
X0264049Y0245494D02*
D03*
X0264049Y0243649D02*
D03*
X0264699Y0243649D02*
D03*
X0265349Y0243649D02*
D03*
D15*
X0265023Y0244571D02*
D03*
D16*
X0264049Y0244475D02*
D03*
D17*
X0291799Y0243771D02*
D03*
X0312799Y0211671D02*
D03*
X0235799Y0240521D02*
D03*
X0233249Y0240521D02*
D03*
X0255199Y0240871D02*
D03*
X0255199Y0237071D02*
D03*
X0303898Y0219871D02*
D03*
X0297199Y0211471D02*
D03*
X0278299Y0214571D02*
D03*
X0293499Y0211571D02*
D03*
X0285299Y0214571D02*
D03*
D18*
X0266049Y0241976D02*
D03*
X0266049Y0240706D02*
D03*
X0266049Y0239436D02*
D03*
X0266049Y0238166D02*
D03*
X0260549Y0238166D02*
D03*
X0260549Y0239436D02*
D03*
X0260549Y0240706D02*
D03*
X0260549Y0241976D02*
D03*
D19*
X0262349Y0240071D02*
D03*
D20*
X0310549Y0240071D02*
D03*
X0312049Y0240071D02*
D03*
X0314349Y0233871D02*
D03*
X0312849Y0233871D02*
D03*
X0236049Y0237071D02*
D03*
X0234549Y0237071D02*
D03*
X0234549Y0238571D02*
D03*
X0236049Y0238571D02*
D03*
X0250549Y0237071D02*
D03*
X0252049Y0237071D02*
D03*
X0252049Y0238571D02*
D03*
X0250549Y0238571D02*
D03*
X0312049Y0243571D02*
D03*
X0310549Y0243571D02*
D03*
X0310549Y0245571D02*
D03*
X0312049Y0245571D02*
D03*
X0271549Y0238321D02*
D03*
X0273049Y0238321D02*
D03*
X0271549Y0236821D02*
D03*
X0273049Y0236821D02*
D03*
X0274499Y0235371D02*
D03*
X0272999Y0235371D02*
D03*
X0271148Y0234271D02*
D03*
X0269648Y0234271D02*
D03*
X0289049Y0228171D02*
D03*
X0287549Y0228171D02*
D03*
X0289049Y0226771D02*
D03*
X0287549Y0226771D02*
D03*
X0290549Y0233771D02*
D03*
X0289049Y0233771D02*
D03*
X0287549Y0229571D02*
D03*
X0289049Y0229571D02*
D03*
X0287549Y0232371D02*
D03*
X0289049Y0232371D02*
D03*
X0287549Y0230971D02*
D03*
X0289049Y0230971D02*
D03*
X0292449Y0232571D02*
D03*
X0293949Y0232571D02*
D03*
X0292449Y0226871D02*
D03*
X0293949Y0226871D02*
D03*
X0272949Y0230171D02*
D03*
X0274449Y0230171D02*
D03*
X0260049Y0219171D02*
D03*
X0258549Y0219171D02*
D03*
X0260049Y0217771D02*
D03*
X0258549Y0217771D02*
D03*
X0262049Y0223371D02*
D03*
X0260549Y0223371D02*
D03*
X0258549Y0220571D02*
D03*
X0260049Y0220571D02*
D03*
X0258549Y0221971D02*
D03*
X0260049Y0221971D02*
D03*
X0242349Y0229271D02*
D03*
X0243849Y0229271D02*
D03*
X0242349Y0227771D02*
D03*
X0243849Y0227771D02*
D03*
X0245299Y0226371D02*
D03*
X0243799Y0226371D02*
D03*
X0242049Y0225371D02*
D03*
X0240549Y0225371D02*
D03*
X0243799Y0221171D02*
D03*
X0245299Y0221171D02*
D03*
X0225549Y0218571D02*
D03*
X0224049Y0218571D02*
D03*
X0225549Y0224571D02*
D03*
X0224049Y0224571D02*
D03*
D21*
X0286799Y0211571D02*
D03*
X0290799Y0211571D02*
D03*
D22*
X0314799Y0232071D02*
D03*
X0312799Y0232071D02*
D03*
X0314799Y0230071D02*
D03*
X0312799Y0230071D02*
D03*
X0287799Y0235571D02*
D03*
X0289799Y0235571D02*
D03*
X0291999Y0225071D02*
D03*
X0293999Y0225071D02*
D03*
X0291999Y0223071D02*
D03*
X0293999Y0223071D02*
D03*
X0278499Y0219371D02*
D03*
X0276499Y0219371D02*
D03*
X0258699Y0225171D02*
D03*
X0260699Y0225171D02*
D03*
X0250799Y0211771D02*
D03*
X0248799Y0211771D02*
D03*
X0250799Y0213771D02*
D03*
X0248799Y0213771D02*
D03*
X0250799Y0215771D02*
D03*
X0248799Y0215771D02*
D03*
X0225799Y0216571D02*
D03*
X0223799Y0216571D02*
D03*
D23*
X0312799Y0213571D02*
D03*
X0312799Y0217571D02*
D03*
X0282958Y0206071D02*
D03*
D24*
X0244999Y0252266D02*
D03*
X0252599Y0252266D02*
D03*
D25*
X0246299Y0249741D02*
D03*
X0247299Y0249741D02*
D03*
X0248299Y0249741D02*
D03*
X0249299Y0249741D02*
D03*
X0250299Y0249741D02*
D03*
X0251299Y0249741D02*
D03*
D26*
X0230799Y0248821D02*
D03*
X0232799Y0248821D02*
D03*
X0234799Y0248821D02*
D03*
X0236799Y0248821D02*
D03*
D27*
X0228399Y0251071D02*
D03*
X0239199Y0251071D02*
D03*
D28*
X0219799Y0232471D02*
D03*
X0229799Y0232471D02*
D03*
D29*
X0223548Y0220721D02*
D03*
X0224048Y0220721D02*
D03*
X0224549Y0220721D02*
D03*
X0225049Y0220721D02*
D03*
X0225049Y0222421D02*
D03*
X0224549Y0222421D02*
D03*
X0224048Y0222421D02*
D03*
X0223548Y0222421D02*
D03*
D30*
X0312799Y0227521D02*
D03*
X0312799Y0220621D02*
D03*
D31*
X0289999Y0243771D02*
D03*
X0287999Y0243771D02*
D03*
X0283299Y0214571D02*
D03*
X0281299Y0214571D02*
D03*
X0255899Y0206071D02*
D03*
X0253899Y0206071D02*
D03*
X0253199Y0234771D02*
D03*
X0255199Y0234771D02*
D03*
X0229299Y0240521D02*
D03*
X0231299Y0240521D02*
D03*
X0225799Y0214171D02*
D03*
X0223799Y0214171D02*
D03*
D32*
X0271799Y0240371D02*
D03*
X0271799Y0243771D02*
D03*
X0274599Y0240371D02*
D03*
X0274599Y0243771D02*
D03*
X0277398Y0240371D02*
D03*
X0277398Y0243771D02*
D03*
X0280199Y0240371D02*
D03*
X0280199Y0243771D02*
D03*
X0285799Y0240371D02*
D03*
X0285799Y0243771D02*
D03*
X0282999Y0240371D02*
D03*
X0282999Y0243771D02*
D03*
X0245299Y0231371D02*
D03*
X0245299Y0234771D02*
D03*
X0248099Y0231371D02*
D03*
X0248099Y0234771D02*
D03*
X0250899Y0231371D02*
D03*
X0250899Y0234771D02*
D03*
D33*
X0260299Y0234971D02*
D03*
X0260299Y0228171D02*
D03*
D34*
X0267099Y0235971D02*
D03*
X0267099Y0230171D02*
D03*
D35*
X0269648Y0232446D02*
D03*
X0272949Y0232446D02*
D03*
X0269648Y0228371D02*
D03*
X0272949Y0228371D02*
D03*
X0240549Y0223446D02*
D03*
X0243849Y0223446D02*
D03*
X0240549Y0219371D02*
D03*
X0243849Y0219371D02*
D03*
D36*
X0274499Y0238321D02*
D03*
X0274499Y0236821D02*
D03*
X0274499Y0232446D02*
D03*
X0274499Y0233946D02*
D03*
X0286099Y0234921D02*
D03*
X0286099Y0233421D02*
D03*
X0284699Y0233421D02*
D03*
X0284699Y0234921D02*
D03*
X0288398Y0223821D02*
D03*
X0288398Y0225321D02*
D03*
X0285599Y0223821D02*
D03*
X0285599Y0225321D02*
D03*
X0284199Y0223821D02*
D03*
X0284199Y0225321D02*
D03*
X0282799Y0223821D02*
D03*
X0282799Y0225321D02*
D03*
X0286999Y0223821D02*
D03*
X0286999Y0225321D02*
D03*
X0274499Y0228746D02*
D03*
X0274499Y0227246D02*
D03*
X0256999Y0225921D02*
D03*
X0256999Y0224421D02*
D03*
X0255599Y0224421D02*
D03*
X0255599Y0225921D02*
D03*
X0259398Y0214821D02*
D03*
X0259398Y0216321D02*
D03*
X0256599Y0214821D02*
D03*
X0256599Y0216321D02*
D03*
X0255199Y0214821D02*
D03*
X0255199Y0216321D02*
D03*
X0253799Y0214821D02*
D03*
X0253799Y0216321D02*
D03*
X0257999Y0214821D02*
D03*
X0257999Y0216321D02*
D03*
X0245299Y0229271D02*
D03*
X0245299Y0227771D02*
D03*
X0245299Y0223446D02*
D03*
X0245299Y0224946D02*
D03*
X0245299Y0219746D02*
D03*
X0245299Y0218246D02*
D03*
X0220799Y0244921D02*
D03*
X0220799Y0243421D02*
D03*
X0220799Y0242021D02*
D03*
X0220799Y0240521D02*
D03*
X0227499Y0242021D02*
D03*
X0227499Y0240521D02*
D03*
X0222099Y0218621D02*
D03*
X0222099Y0217121D02*
D03*
D37*
X0268021Y0226221D02*
D03*
X0268021Y0226871D02*
D03*
X0268021Y0227521D02*
D03*
X0266176Y0227521D02*
D03*
X0266176Y0226871D02*
D03*
X0266176Y0226221D02*
D03*
X0270721Y0224721D02*
D03*
X0270721Y0225371D02*
D03*
X0270721Y0226021D02*
D03*
X0268876Y0226021D02*
D03*
X0268876Y0225371D02*
D03*
X0268876Y0224721D02*
D03*
D38*
X0267099Y0226546D02*
D03*
X0269799Y0225046D02*
D03*
D39*
X0267003Y0227521D02*
D03*
X0269703Y0226021D02*
D03*
D40*
X0269299Y0214971D02*
D03*
X0269299Y0221771D02*
D03*
D41*
X0259299Y0223371D02*
D03*
X0258299Y0223371D02*
D03*
X0221799Y0224571D02*
D03*
X0222799Y0224571D02*
D03*
D42*
X0243274Y0217021D02*
D03*
X0242624Y0217021D02*
D03*
X0241974Y0217021D02*
D03*
X0241324Y0217021D02*
D03*
D43*
X0242299Y0214826D02*
D03*
D44*
X0238825Y0222246D02*
D03*
X0237372Y0222246D02*
D03*
D45*
X0246599Y0208571D02*
D03*
X0239799Y0208571D02*
D03*
D46*
X0238649Y0233346D02*
D03*
X0238649Y0232696D02*
D03*
X0238649Y0232046D02*
D03*
X0238649Y0231396D02*
D03*
X0236749Y0226796D02*
D03*
X0236749Y0227446D02*
D03*
X0236749Y0228096D02*
D03*
X0236749Y0228746D02*
D03*
D47*
X0240844Y0232371D02*
D03*
X0234554Y0227771D02*
D03*
D48*
X0222999Y0240421D02*
D03*
X0222999Y0243921D02*
D03*
D49*
X0225599Y0242371D02*
D03*
X0225599Y0240371D02*
D03*
D50*
X0233894Y0218521D02*
D03*
X0235164Y0218521D02*
D03*
X0236434Y0218521D02*
D03*
X0237704Y0218521D02*
D03*
X0237704Y0213021D02*
D03*
X0236434Y0213021D02*
D03*
X0235164Y0213021D02*
D03*
X0233894Y0213021D02*
D03*
D51*
X0235799Y0214821D02*
D03*
D52*
X0219299Y0240571D02*
D03*
X0219299Y0241571D02*
D03*
D53*
X0233299Y0220946D02*
D03*
X0233299Y0224196D02*
D03*
D54*
X0286799Y0206796D02*
X0287549Y0206046D01*
X0245299Y0231371D02*
X0250899Y0231371D01*
X0278499Y0219371D02*
X0278499Y0224471D01*
X0279799Y0231571D02*
X0279799Y0231571D01*
X0278999Y0240371D02*
X0279799Y0239571D01*
X0277398Y0240371D02*
X0278999Y0240371D01*
X0279799Y0231571D02*
X0279799Y0232871D01*
X0279799Y0234171D01*
X0279799Y0235471D01*
X0279799Y0239571D01*
X0278699Y0224771D02*
X0278699Y0231571D01*
X0274599Y0240371D02*
X0277398Y0240371D01*
X0271799Y0240371D02*
X0274599Y0240371D01*
X0280199Y0240371D02*
X0285799Y0240371D01*
X0281299Y0214571D02*
X0281299Y0219421D01*
X0281148Y0219571D02*
X0281299Y0219421D01*
X0286799Y0206796D02*
X0286799Y0211571D01*
X0293699Y0209771D02*
X0294599Y0208871D01*
X0291499Y0212771D02*
X0292398Y0211871D01*
X0269299Y0215171D02*
X0275799Y0215171D01*
X0278499Y0217871D01*
X0278499Y0219371D01*
X0275099Y0220371D02*
X0275099Y0221771D01*
X0275099Y0220371D02*
X0276099Y0219371D01*
X0276499Y0219371D01*
D55*
X0221217Y023889D02*
X0222399Y0240071D01*
X0270474Y0227246D02*
X0274499Y0227246D01*
X0225799Y0212671D02*
X0225799Y0213671D01*
X0255899Y0206071D02*
X0255899Y0207071D01*
X0255899Y0206071D02*
X0256898Y0206071D01*
X0257898Y0206071D01*
X0258898Y0206071D01*
X0257898Y0206071D02*
X0257898Y0207071D01*
X0258898Y0206071D02*
X0258898Y0207071D01*
X0256898Y0206071D02*
X0256898Y0207071D01*
X0229799Y0248821D02*
X0230799Y0248821D01*
X0229799Y0247821D02*
X0230799Y0247821D01*
X0229799Y0246821D02*
X0230799Y0246821D01*
X0251299Y0248071D02*
X0251299Y0249741D01*
X0252299Y0249741D01*
X0247299Y0248071D02*
X0247299Y0249741D01*
X0246299Y0248071D02*
X0246299Y0249741D01*
X0255199Y0237071D02*
X0256869Y0237071D01*
X0255199Y0237071D02*
X0255199Y0238741D01*
X0253528Y0237071D02*
X0255199Y0237071D01*
X0253528Y0238741D02*
X0255199Y0238741D01*
X0256869Y0238741D01*
X0244299Y0224946D02*
X0245299Y0224946D01*
X0273499Y0233946D02*
X0274499Y0233946D01*
X0250299Y0248071D02*
X0250299Y0249741D01*
X0278299Y0212901D02*
X0278299Y0214571D01*
X0235799Y0240521D02*
X0237469Y0240521D01*
X0255199Y0240871D02*
X0256869Y0240871D01*
X0269898Y0226671D02*
X0270474Y0227246D01*
X0252049Y0237071D02*
X0253528Y0237071D01*
X0250549Y0237071D02*
X0250549Y0238571D01*
X0255899Y0207071D02*
X0256898Y0207071D01*
X0256898Y0207071D02*
X0257898Y0207071D01*
X0258898Y0207071D01*
D56*
X0232127Y0217243D02*
X0232799Y0216571D01*
X0238199Y0216471D02*
X023887Y0217143D01*
X0239399Y0217171D02*
X024007Y0217843D01*
X0237099Y0219771D02*
X023777Y0219099D01*
X0235827Y0218899D02*
X0236499Y0219571D01*
X0232127Y0219799D02*
X0232799Y0220471D01*
X0235227Y0231299D02*
X0236249Y0232321D01*
X0252377Y0234343D02*
X0253049Y0233671D01*
X0241799Y0233571D02*
X024247Y0234243D01*
X0267699Y0213818D02*
X0270951Y0213818D01*
X0269799Y0212518D02*
X0269799Y0215771D01*
X0268799Y0212518D02*
X0268799Y0215771D01*
X0269299Y0236371D02*
X0269773Y0236846D01*
X0312799Y0229371D02*
X0313999Y0228171D01*
X0309299Y0225471D02*
X0310499Y0226671D01*
X0307898Y0228871D02*
X0309099Y0230071D01*
X0255599Y0225921D02*
X0255599Y0226871D01*
X0253049Y0229421D02*
X0255599Y0226871D01*
X0253049Y0229421D02*
X0253049Y0234771D01*
X0229749Y0228321D02*
X0230699Y0229271D01*
X0231749Y0224321D02*
X0232699Y0225271D01*
X0227049Y0224621D02*
X0227999Y0225571D01*
X0241399Y0229271D02*
X0242349Y0229271D01*
X0237249Y0226621D02*
X0238199Y0227571D01*
X0242049Y0224571D02*
X0242049Y0225371D01*
X0241499Y0226371D02*
X0243799Y0226371D01*
X0240549Y0225421D02*
X0241499Y0226371D01*
X0240549Y0225371D02*
X0240549Y0225421D01*
X0239749Y0223446D02*
X0240549Y0223446D01*
X0243849Y0223446D02*
X0245299Y0223446D01*
X0240549Y0223446D02*
X0240549Y0223446D01*
X0240549Y0225371D01*
X0239599Y0219371D02*
X0240549Y0219371D01*
X0242849Y0221171D02*
X0243799Y0221171D01*
X0244899Y0230971D02*
X0245299Y0231371D01*
X0244099Y0230971D02*
X0244899Y0230971D01*
X0244899Y0231771D02*
X0245299Y0231371D01*
X0244099Y0231771D02*
X0244899Y0231771D01*
X0250899Y0231371D02*
X0251299Y0230971D01*
X0251299Y0230171D02*
X0251299Y0230971D01*
X0250499Y0230971D02*
X0250899Y0231371D01*
X0250499Y0230171D02*
X0250499Y0230971D01*
X0248099Y0231371D02*
X0248499Y0230971D01*
X0248499Y0230171D02*
X0248499Y0230971D01*
X0247699Y0230971D02*
X0248099Y0231371D01*
X0247699Y0230171D02*
X0247699Y0230971D01*
X0256999Y0225921D02*
X0256999Y0226871D01*
X0260699Y0225171D02*
X0261648Y0225171D01*
X0262049Y0223371D02*
X0262999Y0223371D01*
X0260049Y0221971D02*
X0260999Y0221971D01*
X0260049Y0220571D02*
X0260999Y0220571D01*
X0260099Y0219171D02*
X0261049Y0219171D01*
X0260049Y0217771D02*
X0260999Y0217771D01*
X0257999Y0213971D02*
X0257999Y0214821D01*
X0256599Y0213971D02*
X0256599Y0214821D01*
X0292449Y0232571D02*
X0292449Y0233871D01*
X0314349Y0233871D02*
X0314349Y0234871D01*
X0314349Y0233871D02*
X0315349Y0233871D01*
X0312049Y0240071D02*
X0313049Y0240071D01*
X0312049Y0239071D02*
X0312049Y0240071D01*
X0312049Y0241071D01*
X0314349Y0233871D02*
X0314799Y0233421D01*
X0314799Y0232071D02*
X0314799Y0233421D01*
X0314799Y0230071D02*
X0314799Y0232071D01*
X0313299Y0214071D02*
X0314299Y0214071D01*
X0312799Y0213571D02*
X0312799Y0213571D01*
X0313299Y0213071D02*
X0314299Y0213071D01*
X0312799Y0213571D02*
X0312799Y0213571D01*
X0312799Y0211871D02*
X0312799Y0213571D01*
X0285299Y0212071D02*
X0286299Y0212071D01*
X0290799Y0223471D02*
X0291599Y0223471D01*
X0291999Y0223071D01*
X0290799Y0222671D02*
X0291599Y0222671D01*
X0291999Y0223071D01*
X0291599Y0224671D02*
X0291999Y0225071D01*
X0290799Y0224671D02*
X0291599Y0224671D01*
X0291599Y0225471D02*
X0291999Y0225071D01*
X0290799Y0225471D02*
X0291599Y0225471D01*
X0286999Y0222921D02*
X0286999Y0223821D01*
X0286999Y0223821D02*
X0286999Y0223821D01*
X0285599Y0222921D02*
X0285599Y0223821D01*
X0285599Y0223821D02*
X0285599Y0223821D01*
X0292449Y0226871D02*
X0292449Y0226871D01*
X0289049Y0226771D02*
X0290049Y0226771D01*
X0289049Y0226771D02*
X0289049Y0226771D01*
X0291449Y0226871D02*
X0292449Y0226871D01*
X0292449Y0226871D01*
X0289049Y0228171D02*
X0290049Y0228171D01*
X0289049Y0228171D02*
X0289049Y0228171D01*
X0289049Y0229571D02*
X0290049Y0229571D01*
X0289049Y0229571D02*
X0289049Y0229571D01*
X0289049Y0230971D02*
X0290049Y0230971D01*
X0289049Y0230971D02*
X0289049Y0230971D01*
X0292449Y0231571D02*
X0292449Y0232571D01*
X0292449Y0232571D02*
X0292449Y0232571D01*
X0291449Y0232571D02*
X0292449Y0232571D01*
X0292449Y0232571D01*
X0290549Y0233771D02*
X0290549Y0233771D01*
X0291549Y0233771D01*
X0289799Y0235571D02*
X0289799Y0235571D01*
X0290799Y0235571D01*
X0286099Y0236071D02*
X0286099Y0236071D01*
X0286099Y0234921D02*
X0286099Y0236071D01*
X0277849Y0240871D02*
X0278898Y0240871D01*
X0277849Y0239871D02*
X0278898Y0239871D01*
X0270299Y0240871D02*
X0271349Y0240871D01*
X0270299Y0239871D02*
X0271349Y0239871D01*
X0270499Y0238321D02*
X0271549Y0238321D01*
X0271148Y0233321D02*
X0271148Y0234271D01*
X0272349Y0229571D02*
X0272949Y0230171D01*
X0271799Y0229571D02*
X0272349Y0229571D01*
X0269648Y0231371D02*
X0269648Y0232446D01*
X0270299Y0229171D02*
X0270299Y0229571D01*
X0269648Y0228521D02*
X0270299Y0229171D01*
X0269648Y0228371D02*
X0269648Y0228521D01*
X0247309Y0215081D02*
X0248449Y0216221D01*
X0252799Y0206471D02*
X0253788Y0207461D01*
X0251399Y0206871D02*
X0252388Y0207861D01*
X0241199Y0207571D02*
X0242188Y0206581D01*
X0241009Y0210081D02*
X0241999Y0211071D01*
X0240409Y0210581D02*
X0241399Y0211571D01*
X0246599Y0208571D02*
X0250099Y0208571D01*
X0250799Y0209271D01*
X0250799Y0211771D01*
X0250799Y0221271D02*
X0250799Y0222571D01*
X0250799Y0219971D02*
X0250799Y0221271D01*
X0250799Y0218671D02*
X0250799Y0219971D01*
X0250799Y0215771D02*
X0250799Y0218671D01*
X0250799Y0213771D02*
X0250799Y0215771D01*
X0250799Y0211771D02*
X0250799Y0213771D01*
X0248799Y0213771D02*
X0248799Y0215771D01*
X0248799Y0211771D02*
X0248799Y0213771D01*
X0273599Y0220371D02*
X0274599Y0220371D01*
X0273599Y0221771D02*
X0274599Y0221771D01*
X0273599Y0224571D02*
X0274599Y0224571D01*
X0282799Y0223821D02*
X0282799Y0223821D01*
X0281799Y0223821D02*
X0282799Y0223821D01*
X0261179Y0237152D02*
X0262099Y0238071D01*
X0260979Y022749D02*
X0261898Y0226571D01*
X0262379Y022769D02*
X0263299Y0226771D01*
X0264299Y0228771D02*
X0265218Y0227852D01*
X0264379Y0234952D02*
X0265299Y0235871D01*
X0268499Y0237671D02*
X0269418Y0236752D01*
X0270599Y0235371D02*
X0272999Y0235371D01*
X0269648Y0234421D02*
X0270599Y0235371D01*
X0269648Y0234271D02*
X0269648Y0234421D01*
X0267099Y0235971D02*
X0267099Y0237271D01*
X0267799Y0235971D02*
X0267799Y0237271D01*
X0268499Y0237271D02*
X0268499Y0235971D01*
X0266398Y0235971D02*
X0266398Y0237271D01*
X0265698Y0235971D02*
X0265698Y0237271D01*
X0268099Y0236371D02*
X0269299Y0236371D01*
X0268099Y0235571D02*
X0269299Y0235571D01*
X0268099Y0230571D02*
X0269398Y0230571D01*
X0268099Y0229771D02*
X0269398Y0229771D01*
X0265698Y0228871D02*
X0265698Y0230171D01*
X0266398Y0228871D02*
X0266398Y0230171D01*
X0268499Y0228871D02*
X0268499Y0230171D01*
X0267799Y0228871D02*
X0267799Y0230171D01*
X0267099Y0228871D02*
X0267099Y0230171D01*
X0265023Y0244571D02*
X0265324Y0244271D01*
X0271799Y0244271D01*
X0271799Y0243771D02*
X0274599Y0243771D01*
X0277398Y0243771D01*
X0277398Y0243771D01*
X0279549Y0243771D01*
X0259398Y0210721D02*
X0260049Y0210071D01*
X0253149Y0210071D02*
X0253799Y0210721D01*
X0253799Y0214821D01*
X0255199Y0214821D01*
X0269648Y0232446D02*
X0269648Y0234271D01*
X0272949Y0232446D02*
X0274499Y0232446D01*
X0285599Y0223821D02*
X0287099Y0223821D01*
X0222999Y0243921D02*
X0222999Y0245071D01*
X0223999Y0243921D02*
X0223999Y0245071D01*
X0221999Y0243921D02*
X0221999Y0245071D01*
X0225599Y0242371D02*
X0225599Y0245071D01*
X0227499Y0242021D02*
X0227499Y0245071D01*
X0225849Y0216171D02*
X0226999Y0216171D01*
X0225849Y0216971D02*
X0226999Y0216971D01*
X0232799Y0248821D02*
X0232799Y0252571D01*
X0234799Y0248821D02*
X0234799Y0252571D01*
X0236799Y0248821D02*
X0236799Y0252571D01*
X0253799Y0216321D02*
X0253799Y0217271D01*
X0282799Y0225321D02*
X0282799Y0226271D01*
X0238826Y0223771D02*
X0238826Y0224571D01*
X0238826Y0219871D02*
X0238826Y0220671D01*
X0238799Y0220846D02*
X0239599Y0220846D01*
X0238799Y0221546D02*
X0239599Y0221546D01*
X0263799Y0237371D02*
X0263799Y0238571D01*
X0262799Y0237371D02*
X0262799Y0238571D01*
X0283499Y0238871D02*
X0283499Y0239921D01*
X0282499Y0238871D02*
X0282499Y0239921D01*
X0286299Y0238871D02*
X0286299Y0239921D01*
X0285299Y0238871D02*
X0285299Y0239921D01*
X0288049Y0219571D02*
X0288398Y0219921D01*
X0282898Y0213271D02*
X0283099Y0213471D01*
X0283099Y0214171D01*
X0283499Y0213471D02*
X0283499Y0214171D01*
X0283499Y0213471D02*
X0283699Y0213271D01*
X0282898Y0215871D02*
X0283099Y0215671D01*
X0283099Y0214971D01*
X0283499Y0214971D02*
X0283499Y0215671D01*
X0283699Y0215871D01*
X0281148Y0219571D02*
X0281148Y0219921D01*
X0312049Y0243571D02*
X0312049Y0245571D01*
X0252049Y0238571D02*
X0252049Y0239921D01*
X0252999Y0240871D01*
X0255199Y0240871D01*
X0233699Y0237071D02*
X0234549Y0237071D01*
X0233249Y0237521D02*
X0233699Y0237071D01*
X0233249Y0237521D02*
X0233249Y0240521D01*
X0236049Y0237071D02*
X0236049Y0238571D01*
X0234549Y0238571D02*
X0234549Y0239271D01*
X0235799Y0240521D01*
X0286299Y0212071D02*
X0286799Y0211571D01*
X0286299Y0211071D02*
X0286799Y0211571D01*
X0285299Y0211071D02*
X0286299Y0211071D01*
X0309499Y0245571D02*
X0310549Y0245571D01*
X0280299Y0221071D02*
X0280299Y0222071D01*
X0281299Y0221071D02*
X0281299Y0222071D01*
X0225849Y0214571D02*
X0226999Y0214571D01*
X0225849Y0213771D02*
X0226999Y0213771D01*
D57*
X0266049Y0241976D02*
X0266204Y0241821D01*
X0219299Y0241571D02*
X0219749Y0242021D01*
X0220799Y0242021D01*
X0220799Y0243221D01*
X0225049Y0220721D02*
X0225049Y0221421D01*
X0224899Y0221571D02*
X0225049Y0221421D01*
X0222299Y0221571D02*
X0224899Y0221571D01*
X0221799Y0222071D02*
X0222299Y0221571D01*
X0221799Y0222071D02*
X0221799Y0224571D01*
X0222799Y0223971D02*
X0222799Y0224571D01*
X0222799Y0223971D02*
X0223099Y0223671D01*
X0223799Y0223671D01*
X0224048Y0223421D01*
X0224048Y0222421D02*
X0224048Y0223421D01*
X0225049Y0224071D02*
X0225549Y0224571D01*
X0225049Y0222421D02*
X0225049Y0224071D01*
X0224049Y0224571D02*
X0224549Y0224071D01*
X0224549Y0222421D02*
X0224549Y0224071D01*
X0225549Y0216821D02*
X0225799Y0216571D01*
X0225549Y0216821D02*
X0225549Y0218571D01*
X0225049Y0219071D02*
X0225549Y0218571D01*
X0225049Y0219071D02*
X0225049Y0220721D01*
X0222099Y0218621D02*
X0223548Y0220071D01*
X0223548Y0220721D01*
X0224049Y0218571D02*
X0224549Y0219071D01*
X0224549Y0220721D01*
X0243849Y0229271D02*
X0245299Y0229271D01*
X0246299Y0228271D01*
X0246299Y0227571D02*
X0246299Y0228271D01*
X0246299Y0227571D02*
X0247074Y0226796D01*
X0247999Y0226796D01*
X0243849Y0227771D02*
X0245299Y0227771D01*
X0246199Y0226871D01*
X0246199Y0226471D02*
X0246199Y0226871D01*
X0246199Y0226471D02*
X0246524Y0226146D01*
X0247999Y0226146D01*
X0245299Y0226371D02*
X0246174Y0225496D01*
X0247999Y0225496D01*
X0246499Y0221596D02*
X0247999Y0221596D01*
X0251874Y0226796D02*
X0253599Y0226796D01*
X0251874Y0226146D02*
X0253599Y0226146D01*
X0251874Y0224196D02*
X0253599Y0224196D01*
X0251874Y0220946D02*
X0253599Y0220946D01*
X0263299Y0245494D02*
X0264049Y0245494D01*
X0266204Y0241821D02*
X0267299Y0241821D01*
X0270974Y0231246D02*
X0276999Y0231246D01*
X0270299Y0230571D02*
X0270974Y0231246D01*
X0269398Y0230571D02*
X0270299Y0230571D01*
X0268021Y0227521D02*
X0268071Y0227571D01*
X0268699Y0227571D01*
X0280924Y0229946D02*
X0282599Y0229946D01*
X0280924Y0233196D02*
X0282599Y0233196D01*
X0280924Y0235146D02*
X0282599Y0235146D01*
X0280924Y0235796D02*
X0282599Y0235796D01*
X0257499Y0217771D02*
X0258549Y0217771D01*
X0256299Y0218971D02*
X0257499Y0217771D01*
X0256299Y0218971D02*
X0256299Y0219871D01*
X0253599Y0218996D02*
X0255324Y0218996D01*
X0238649Y0230601D02*
X0238649Y0231396D01*
X0236749Y0228746D02*
X0236749Y0229541D01*
X0233099Y0218521D02*
X0233894Y0218521D01*
X0239025Y0222246D02*
X0247999Y0222246D01*
X0240599Y0217021D02*
X0241324Y0217021D01*
X0267949Y0236821D02*
X0271549Y0236821D01*
X0267099Y0235971D02*
X0267949Y0236821D01*
X0245299Y0224946D02*
X0245399Y0224846D01*
X0247999Y0224846D01*
X0245299Y0223446D02*
X0245399Y0223546D01*
X0247999Y0223546D01*
X0245299Y0221171D02*
X0245524Y0220946D01*
X0247999Y0220946D01*
X0243849Y0219746D02*
X0243849Y0219746D01*
X0245299Y0219746D01*
X0245399Y0219646D01*
X0247999Y0219646D01*
X0245299Y0218246D02*
X0245399Y0218346D01*
X0247999Y0218346D01*
X0246499Y0218996D02*
X0247999Y0218996D01*
X0246499Y0222896D02*
X0247999Y0222896D01*
X0246499Y0224196D02*
X0247999Y0224196D01*
X0246499Y0220296D02*
X0247999Y0220296D01*
X0258398Y0224871D02*
X0258699Y0225171D01*
X0258398Y0223471D02*
X0258398Y0224871D01*
X0258299Y0223371D02*
X0258398Y0223471D01*
X0259299Y0223371D02*
X0260549Y0223371D01*
X0255174Y0225496D02*
X0255599Y0225921D01*
X0253599Y0225496D02*
X0255174Y0225496D01*
X0256999Y0224421D02*
X0256999Y0224421D01*
X0255599Y0224421D02*
X0256999Y0224421D01*
X0255174Y0224846D02*
X0255599Y0224421D01*
X0253599Y0224846D02*
X0255174Y0224846D01*
X0258124Y0223546D02*
X0258299Y0223371D01*
X0253599Y0223546D02*
X0258124Y0223546D01*
X0253599Y0222896D02*
X0255974Y0222896D01*
X0256898Y0221971D01*
X0258549Y0221971D01*
X0257398Y0220571D02*
X0258549Y0220571D01*
X0255724Y0222246D02*
X0257398Y0220571D01*
X0253599Y0222246D02*
X0255724Y0222246D01*
X0255874Y0220296D02*
X0256299Y0219871D01*
X0257299Y0219171D02*
X0258549Y0219171D01*
X0256898Y0219571D02*
X0257299Y0219171D01*
X0256898Y0219571D02*
X0256898Y0220171D01*
X0255474Y0221596D02*
X0256898Y0220171D01*
X0253599Y0221596D02*
X0255474Y0221596D01*
X0253599Y0220296D02*
X0255874Y0220296D01*
X0253599Y0219646D02*
X0255499Y0219646D01*
X0259398Y0216321D02*
X0259398Y0216321D01*
X0257999Y0216321D02*
X0259398Y0216321D01*
X0255324Y0218996D02*
X0257999Y0216321D01*
X0255199Y0216321D02*
X0256599Y0216321D01*
X0253599Y0218346D02*
X0254724Y0218346D01*
X0255199Y0217871D01*
X0255199Y0216321D02*
X0255199Y0217871D01*
X0287549Y0232371D02*
X0287799Y0232621D01*
X0287799Y0235571D01*
X0282599Y0232546D02*
X0287374Y0232546D01*
X0287549Y0232371D01*
X0282599Y0231896D02*
X0284898Y0231896D01*
X0285824Y0230971D01*
X0287549Y0230971D01*
X0282599Y0231246D02*
X0284624Y0231246D01*
X0286299Y0229571D01*
X0287549Y0229571D01*
X0282599Y0230596D02*
X0284374Y0230596D01*
X0286799Y0228171D01*
X0287549Y0228171D01*
X0287398Y0226771D02*
X0287549Y0226771D01*
X0284874Y0229296D02*
X0287398Y0226771D01*
X0284199Y0225321D02*
X0285599Y0225321D01*
X0283939Y0227346D02*
X0284199Y0227087D01*
X0284199Y0225321D02*
X0284199Y0227087D01*
X0265349Y0243649D02*
X0265349Y0243649D01*
X0264699Y0243649D02*
X0265349Y0243649D01*
X0260799Y0238521D02*
X0262349Y0240071D01*
X0264049Y0241771D01*
X0264049Y0243649D01*
X0264049Y0243649D02*
X0264049Y0243649D01*
X0264049Y0243649D02*
X0264049Y0244475D01*
X0260799Y0234971D02*
X0260799Y0238521D01*
X0266699Y0235971D02*
X0267099Y0235971D01*
X0266049Y0236621D02*
X0266699Y0235971D01*
X0266049Y0236621D02*
X0266049Y0238166D01*
X0266049Y0239436D01*
X0266049Y0240706D01*
X0266376Y0227521D02*
X0266376Y0227521D01*
X0267203Y0227521D01*
X0276174Y0235146D02*
X0276999Y0235146D01*
X0274499Y0236821D02*
X0276174Y0235146D01*
X0276374Y0235796D02*
X0276999Y0235796D01*
X0275398Y0236771D02*
X0276374Y0235796D01*
X0275398Y0236771D02*
X0275398Y0237421D01*
X0274499Y0238321D02*
X0275398Y0237421D01*
X0273049Y0238321D02*
X0274499Y0238321D01*
X0273049Y0236821D02*
X0274499Y0236821D01*
X0275499Y0230596D02*
X0276999Y0230596D01*
X0274449Y0230171D02*
X0274674Y0229946D01*
X0276999Y0229946D01*
X0274499Y0232446D02*
X0274499Y0232446D01*
X0274499Y0233946D02*
X0274599Y0233846D01*
X0274499Y0232446D02*
X0274599Y0232546D01*
X0266376Y0226221D02*
X0266376Y0226221D01*
X0266376Y0226871D01*
X0268221Y0226871D02*
X0268221Y0226871D01*
X0268221Y0226221D02*
X0268221Y0226871D01*
X0268221Y0226221D02*
X0268221Y0226221D01*
X0269876Y0226221D02*
X0269876Y0226221D01*
X0275499Y0229296D02*
X0275499Y0229296D01*
X0276999Y0229296D01*
X0274499Y0227246D02*
X0274599Y0227346D01*
X0274499Y0228746D02*
X0274599Y0228646D01*
X0286999Y0225321D02*
X0286999Y0225387D01*
X0284273Y0234496D02*
X0284699Y0234921D01*
X0282599Y0234496D02*
X0284273Y0234496D01*
X0284273Y0233846D02*
X0284699Y0233421D01*
X0282599Y0233846D02*
X0284273Y0233846D01*
X0286099Y0233421D02*
X0286099Y0233421D01*
X0284699Y0233421D02*
X0286099Y0233421D01*
X0287549Y0235321D02*
X0287799Y0235571D01*
X0289049Y0232371D02*
X0289049Y0233771D01*
X0275499Y0233196D02*
X0276999Y0233196D01*
X0274599Y0233846D02*
X0276999Y0233846D01*
X0274599Y0232546D02*
X0276999Y0232546D01*
X0276999Y0234496D02*
X0276999Y02345D01*
X0274499Y0235371D02*
X0274599Y0235371D01*
X027547Y02345D01*
X0276999Y02345D01*
X0275499Y0231896D02*
X0276999Y0231896D01*
X0274599Y0227346D02*
X0276999Y0227346D01*
X0274599Y0228646D02*
X0276999Y0228646D01*
X0275499Y0227996D02*
X0276999Y0227996D01*
X0286999Y0225321D02*
X0288398Y0225321D01*
X0282599Y0228646D02*
X0284499Y0228646D01*
X0282599Y0227346D02*
X0283939Y0227346D01*
X0269876Y0226221D02*
X0269876Y0226575D01*
X0219799Y0244921D02*
X0220799Y0244921D01*
X0217299Y0224571D02*
X0221799Y0224571D01*
X0220799Y0217121D02*
X0222099Y0217121D01*
X0225549Y0218571D02*
X0226549Y0218571D01*
X0285314Y0227071D02*
X0286999Y0225387D01*
X0286999Y0225321D02*
X0286999Y0225387D01*
X0282599Y0229296D02*
X0284874Y0229296D01*
X0284992Y0227071D02*
X0285314Y0227071D01*
X0282599Y0227996D02*
X0284067Y0227996D01*
X0284992Y0227071D01*
X0222799Y0222421D02*
X0223548Y0222421D01*
X0219299Y0241571D02*
X0219299Y0242371D01*
X0270721Y0226021D02*
X0271499Y0226021D01*
D58*
X0303898Y0219871D02*
X0312299Y0219871D01*
X0303898Y0217071D02*
X0303898Y0219871D01*
X0296398Y0239171D02*
X0302999Y0239171D01*
X0291799Y0243771D02*
X0296398Y0239171D01*
D59*
X0223799Y0214171D02*
X0223799Y0216571D01*
X0223799Y0218321D02*
X0224049Y0218571D01*
X0223799Y0216571D02*
X0223799Y0218321D01*
X0288398Y0219921D02*
X0288398Y0223821D01*
X0282799Y0223821D02*
X0284199Y0223821D01*
X0282799Y0206231D02*
X0282958Y0206071D01*
X0253149Y0210071D02*
X0253149Y0210071D01*
X0253149Y0205771D02*
X0253149Y0210071D01*
X0259398Y0210721D02*
X0259398Y0214821D01*
X0289999Y0243771D02*
X0291799Y0243771D01*
X0255199Y0234771D02*
X0255199Y0237071D01*
X0231299Y0240521D02*
X0233249Y0240521D01*
X0302999Y0239171D02*
X0303898Y0240071D01*
X0287299Y0237371D02*
X0287999Y0238071D01*
X0287999Y0243771D01*
X0284699Y0234921D02*
X0284699Y0236471D01*
X0285599Y0237371D01*
X0287299Y0237371D01*
X0283299Y0214571D02*
X0285299Y0214571D01*
X0283299Y0214571D02*
X0285299Y0214571D01*
X0281148Y0219921D02*
X0282799Y0221571D01*
X0282799Y0223821D01*
X0310549Y0240071D02*
X0310549Y0243571D01*
X0300918Y02406D02*
X0302718Y02406D01*
X0301398Y0241071D02*
X0303199Y0241071D01*
X0301699Y0241371D02*
X0303499Y0241371D01*
X0302199Y0241871D02*
X0303999Y0241871D01*
X0305799Y0241871D01*
X0302999Y0241971D02*
X0304799Y0241971D01*
X0304099Y0238171D02*
X0305898Y0238171D01*
X0301852Y0238191D02*
X0303652Y0238191D01*
X0294699Y0218471D02*
X0297456Y0215713D01*
D60*
X0272949Y0228371D02*
X0273324Y0228746D01*
X0274499Y0228746D01*
X0315398Y0228771D02*
X0315398Y0233571D01*
D61*
X0307898Y0211071D02*
X0308699Y0211871D01*
X0303898Y0211071D02*
X0307898Y0211071D01*
X0304398Y0217571D02*
X0312799Y0217571D01*
X0303898Y0217071D02*
X0304398Y0217571D01*
X0312799Y0217571D02*
X0312799Y0220621D01*
X0308699Y0213571D02*
X0312799Y0213571D01*
X0308699Y0211871D02*
X0308699Y0213571D01*
D62*
X0223649Y0240371D02*
D03*
D63*
X0219799Y0234771D02*
D03*
D64*
X0226349Y0224596D02*
D03*
D65*
X0229049Y0225721D02*
D03*
D66*
X0227649Y0223646D02*
D03*
D67*
X0239749Y0227771D02*
D03*
D68*
X0240849Y0233321D02*
D03*
D69*
X0246549Y0234921D02*
D03*
D70*
X0235699Y0232821D02*
D03*
D71*
X0233999Y0227921D02*
D03*
D72*
X0236999Y0223021D02*
D03*
D73*
X0236449Y0218521D02*
D03*
D74*
X0231749Y0216821D02*
D03*
D75*
X0239149Y0216334D02*
D03*
D76*
X0235749Y0214471D02*
D03*
D77*
X0240399Y0217971D02*
D03*
D78*
X0243761Y0217471D02*
D03*
D79*
X0245799Y0206221D02*
D03*
D80*
X0253149Y0210321D02*
D03*
D81*
X0239799Y0208871D02*
D03*
D82*
X0245149Y0213371D02*
D03*
D83*
X0276499Y0244421D02*
D03*
D84*
X0262699Y0243471D02*
D03*
D85*
X0260249Y0239271D02*
D03*
D86*
X0262199Y0227571D02*
D03*
D87*
X0265799Y0235996D02*
D03*
D88*
X0265699Y0227771D02*
D03*
D89*
X0264199Y0232021D02*
D03*
D90*
X0269898Y0236821D02*
D03*
D91*
X0267099Y0238121D02*
D03*
D92*
X0307449Y0240071D02*
D03*
D93*
X0311099Y0230396D02*
D03*
D94*
X0307898Y0226071D02*
D03*
D95*
X0302299Y0228571D02*
D03*
D96*
X0295099Y0208871D02*
D03*
X0290799Y0214371D02*
D03*
D97*
X0296049Y0222171D02*
D03*
D98*
X0296049Y0232571D02*
D03*
D99*
X0272199Y0222821D02*
D03*
D100*
X0265999Y0226421D02*
D03*
D101*
X0292949Y0210921D02*
D03*
D102*
X0313299Y0203571D02*
G03*
X0316299Y0206571I0J0003D01*
G01*
X0316299Y0250571D02*
G03*
X0313299Y0253571I-0003J0D01*
G01*
X0219299Y0253571D02*
G03*
X0216299Y0250571I0J-0003D01*
G01*
X0216299Y0206571D02*
G03*
X0219299Y0203571I0003J0D01*
G01*
X0219299Y0253571D02*
X0313299Y0253571D01*
X0316299Y0206571D02*
X0316299Y0250571D01*
X0219299Y0203571D02*
X0313299Y0203571D01*
X0216299Y0206571D02*
X0216299Y0250571D01*
D103*
X0263049Y0249971D02*
D03*
X0273049Y0249971D02*
D03*
X0283049Y0249971D02*
D03*
X0293049Y0249971D02*
D03*
D104*
X0259549Y0249971D02*
D03*
X0269549Y0249971D02*
D03*
X0279549Y0249971D02*
D03*
X0289549Y0249971D02*
D03*
D105*
X0279799Y0231571D02*
D03*
X0279799Y0230271D02*
D03*
X0279799Y0228971D02*
D03*
X0279799Y0227671D02*
D03*
X0279799Y0232871D02*
D03*
X0279799Y0234171D02*
D03*
X0279799Y0235471D02*
D03*
X0281099Y0227671D02*
D03*
X0278499Y0227671D02*
D03*
X0281099Y0228971D02*
D03*
X0278499Y0228971D02*
D03*
X0278499Y0230271D02*
D03*
X0281099Y0230271D02*
D03*
X0281099Y0231571D02*
D03*
X0278499Y0231571D02*
D03*
X0281099Y0232871D02*
D03*
X0278499Y0232871D02*
D03*
X0281099Y0234171D02*
D03*
X0278499Y0234171D02*
D03*
X0281099Y0235471D02*
D03*
X0278499Y0235471D02*
D03*
X0219299Y0206571D02*
D03*
X0313299Y0206571D02*
D03*
X0313299Y0250571D02*
D03*
X0219299Y0250571D02*
D03*
X0250799Y0222571D02*
D03*
X0250799Y0221271D02*
D03*
X0250799Y0219971D02*
D03*
X0250799Y0218671D02*
D03*
X0250799Y0223871D02*
D03*
X0250799Y0225171D02*
D03*
X0250799Y0226471D02*
D03*
X0252099Y0218671D02*
D03*
X0249499Y0218671D02*
D03*
X0252099Y0219971D02*
D03*
X0249499Y0219971D02*
D03*
X0249499Y0221271D02*
D03*
X0252099Y0221271D02*
D03*
X0252099Y0222571D02*
D03*
X0249499Y0222571D02*
D03*
X0252099Y0223871D02*
D03*
X0249499Y0223871D02*
D03*
X0252099Y0225171D02*
D03*
X0249499Y0225171D02*
D03*
X0252099Y0226471D02*
D03*
X0249499Y0226471D02*
D03*
X0241324Y0214321D02*
D03*
X0241324Y0215226D02*
D03*
X0243274Y0215226D02*
D03*
X0243274Y0214321D02*
D03*
X0242299Y0213868D02*
D03*
X0242299Y0214773D02*
D03*
X0242299Y0215678D02*
D03*
X0241349Y0231396D02*
D03*
X0240444Y0231396D02*
D03*
X0240444Y0233346D02*
D03*
X0241349Y0233346D02*
D03*
X0241802Y0232371D02*
D03*
X0240897Y0232371D02*
D03*
X0239992Y0232371D02*
D03*
X0234049Y0228746D02*
D03*
X0234954Y0228746D02*
D03*
X0234954Y0226796D02*
D03*
X0234049Y0226796D02*
D03*
X0233596Y0227771D02*
D03*
X0234501Y0227771D02*
D03*
X0235406Y0227771D02*
D03*
D106*
X0303898Y0240071D02*
D03*
X0303898Y0217071D02*
D03*
D107*
X0299099Y0243071D02*
D03*
X0308699Y0214071D02*
D03*
D108*
X0303898Y0246071D02*
D03*
X0303898Y0211071D02*
D03*
D109*
X0303898Y0250271D02*
D03*
X0303898Y0206871D02*
D03*
D110*
X0306999Y0232571D02*
D03*
X0297599Y0232571D02*
D03*
X0302299Y0232571D02*
D03*
X0306999Y0224571D02*
D03*
X0297599Y0224571D02*
D03*
X0302299Y0224571D02*
D03*
D111*
X0262639Y0206071D02*
D03*
X0280419Y0206071D02*
D03*
X0277879Y0206071D02*
D03*
X0275339Y0206071D02*
D03*
X0270259Y0206071D02*
D03*
X0272799Y0206071D02*
D03*
X0267719Y0206071D02*
D03*
X0265178Y0206071D02*
D03*
D112*
X0290049Y0206046D02*
D03*
X0287549Y0206046D02*
D03*
X0292549Y0206046D02*
D03*
D113*
X0295049Y0206046D02*
D03*
D114*
X0270951Y0213818D02*
D03*
X0267699Y0213818D02*
D03*
X0269799Y0212518D02*
D03*
X0268799Y0212518D02*
D03*
X0217299Y0242071D02*
D03*
X0217299Y0238071D02*
D03*
X0217299Y0234071D02*
D03*
X0217299Y0230071D02*
D03*
X0217299Y0226071D02*
D03*
X0217299Y0222071D02*
D03*
X0217299Y0218071D02*
D03*
X0217299Y0214071D02*
D03*
X0217299Y0246971D02*
D03*
X0226799Y0252571D02*
D03*
X0222799Y0252571D02*
D03*
X0217299Y0210071D02*
D03*
X0250799Y0252571D02*
D03*
X0241799Y0252571D02*
D03*
X0246799Y0252571D02*
D03*
X0261799Y0252571D02*
D03*
X0254299Y0252571D02*
D03*
X0257799Y0252571D02*
D03*
X0273799Y0252571D02*
D03*
X0265799Y0252571D02*
D03*
X0269799Y0252571D02*
D03*
X0285799Y0252571D02*
D03*
X0277799Y0252571D02*
D03*
X0281799Y0252571D02*
D03*
X0297799Y0252571D02*
D03*
X0289799Y0252571D02*
D03*
X0293799Y0252571D02*
D03*
X0309799Y0252571D02*
D03*
X0301799Y0252571D02*
D03*
X0305799Y0252571D02*
D03*
X0315299Y0238071D02*
D03*
X0315299Y0247071D02*
D03*
X0315299Y0242071D02*
D03*
X0315299Y0226071D02*
D03*
X0315299Y0234071D02*
D03*
X0315299Y0214071D02*
D03*
X0315299Y0222071D02*
D03*
X0315299Y0218071D02*
D03*
X0309799Y0204571D02*
D03*
X0315299Y0210071D02*
D03*
X0298798Y0204571D02*
D03*
X0306798Y0204571D02*
D03*
X0302798Y0204571D02*
D03*
X0286798Y0204571D02*
D03*
X0294798Y0204571D02*
D03*
X0290798Y0204571D02*
D03*
X0274798Y0204571D02*
D03*
X0282798Y0204571D02*
D03*
X0278798Y0204571D02*
D03*
X0262798Y0204571D02*
D03*
X0270798Y0204571D02*
D03*
X0266798Y0204571D02*
D03*
X0250798Y0204571D02*
D03*
X0258798Y0204571D02*
D03*
X0254798Y0204571D02*
D03*
X0238799Y0204571D02*
D03*
X0246798Y0204571D02*
D03*
X0242799Y0204571D02*
D03*
X0230799Y0204571D02*
D03*
X0234799Y0204571D02*
D03*
X0226799Y0204571D02*
D03*
X0222799Y0204571D02*
D03*
X0267298Y0243571D02*
D03*
X0268798Y0243571D02*
D03*
X0270298Y0243571D02*
D03*
X0267298Y0245071D02*
D03*
X0268798Y0245071D02*
D03*
X0270298Y0245071D02*
D03*
X0271798Y0245071D02*
D03*
X0273298Y0245071D02*
D03*
X0274799Y0245071D02*
D03*
X0276299Y0245071D02*
D03*
X0277799Y0245071D02*
D03*
X0279299Y0245071D02*
D03*
X0259299Y0239571D02*
D03*
X0259299Y0241071D02*
D03*
X0259299Y0242571D02*
D03*
X0262299Y0244071D02*
D03*
X0260799Y0244071D02*
D03*
X0259299Y0244071D02*
D03*
X0261199Y0236971D02*
D03*
X0259299Y0236971D02*
D03*
X0309799Y0219871D02*
D03*
X0308299Y0219871D02*
D03*
X0306799Y0219871D02*
D03*
X0305299Y0219871D02*
D03*
X0297799Y0221471D02*
D03*
X0297799Y0219471D02*
D03*
X0295799Y0217471D02*
D03*
X0295799Y0219071D02*
D03*
X0295799Y0221071D02*
D03*
X0295799Y0226071D02*
D03*
X0295799Y0223071D02*
D03*
X0295799Y0224071D02*
D03*
X0295799Y0225071D02*
D03*
X0309299Y0230071D02*
D03*
X0309299Y0232071D02*
D03*
X0309299Y0234071D02*
D03*
X0311299Y0230071D02*
D03*
X0311299Y0232071D02*
D03*
X0311299Y0234071D02*
D03*
X0307299Y0227071D02*
D03*
X0308299Y0227071D02*
D03*
X0307299Y0228071D02*
D03*
X0308299Y0228071D02*
D03*
X0308299Y0229071D02*
D03*
X0307299Y0229071D02*
D03*
X0306299Y0229071D02*
D03*
X0306299Y0228071D02*
D03*
X0306299Y0227071D02*
D03*
X0303799Y0225571D02*
D03*
X0303799Y0224071D02*
D03*
X0303799Y0222571D02*
D03*
X0303799Y0231571D02*
D03*
X0303799Y0233071D02*
D03*
X0303799Y0234571D02*
D03*
X0300799Y0234571D02*
D03*
X0300799Y0233071D02*
D03*
X0300799Y0231571D02*
D03*
X0300799Y0222571D02*
D03*
X0300799Y0224071D02*
D03*
X0300799Y0225571D02*
D03*
X0303799Y0227071D02*
D03*
X0303799Y0228571D02*
D03*
X0303799Y0230071D02*
D03*
X0300799Y0228571D02*
D03*
X0300799Y0230071D02*
D03*
X0300799Y0227071D02*
D03*
X0302299Y0229571D02*
D03*
X0302299Y0228571D02*
D03*
X0302299Y0227571D02*
D03*
X0295799Y0233071D02*
D03*
X0295799Y0232071D02*
D03*
X0293799Y0231071D02*
D03*
X0294799Y0231071D02*
D03*
X0295799Y0231071D02*
D03*
X0295799Y0234071D02*
D03*
X0294799Y0234071D02*
D03*
X0293799Y0234071D02*
D03*
X0247499Y0217171D02*
D03*
X0252299Y0216871D02*
D03*
X0252299Y0216171D02*
D03*
X0246599Y0217171D02*
D03*
X0250799Y0210071D02*
D03*
X0250799Y0209071D02*
D03*
X0250799Y0208071D02*
D03*
X0249299Y0208071D02*
D03*
X0249299Y0209071D02*
D03*
X0241399Y0229271D02*
D03*
X0242049Y0224571D02*
D03*
X0238826Y0219871D02*
D03*
X0239749Y0223446D02*
D03*
X0239599Y0219371D02*
D03*
X0242849Y0221171D02*
D03*
X0246499Y0221596D02*
D03*
X0244099Y0231771D02*
D03*
X0244099Y0230971D02*
D03*
X0250499Y0230171D02*
D03*
X0251299Y0230171D02*
D03*
X0247699Y0230171D02*
D03*
X0248499Y0230171D02*
D03*
X0256999Y0226871D02*
D03*
X0261648Y0225171D02*
D03*
X0262999Y0223371D02*
D03*
X0260999Y0221971D02*
D03*
X0260999Y0220571D02*
D03*
X0261049Y0219171D02*
D03*
X0260999Y0217771D02*
D03*
X0257999Y0213971D02*
D03*
X0256599Y0213971D02*
D03*
X0263299Y0245494D02*
D03*
X0267299Y0241821D02*
D03*
X0292449Y0233871D02*
D03*
X0314349Y0234871D02*
D03*
X0313049Y0240071D02*
D03*
X0312049Y0239071D02*
D03*
X0312049Y0241071D02*
D03*
X0314299Y0214071D02*
D03*
X0314299Y0213071D02*
D03*
X0285299Y0211071D02*
D03*
X0285299Y0212071D02*
D03*
X0290799Y0222671D02*
D03*
X0290799Y0223471D02*
D03*
X0290799Y0225471D02*
D03*
X0290799Y0224671D02*
D03*
X0286999Y0222921D02*
D03*
X0285599Y0222921D02*
D03*
X0290049Y0226771D02*
D03*
X0291449Y0226871D02*
D03*
X0290049Y0228171D02*
D03*
X0290049Y0229571D02*
D03*
X0290049Y0230971D02*
D03*
X0292449Y0231571D02*
D03*
X0291449Y0232571D02*
D03*
X0291549Y0233771D02*
D03*
X0290799Y0235571D02*
D03*
X0278898Y0240871D02*
D03*
X0278898Y0239871D02*
D03*
X0270299Y0240871D02*
D03*
X0270299Y0239871D02*
D03*
X0270499Y0238321D02*
D03*
X0271148Y0233321D02*
D03*
X0271799Y0229571D02*
D03*
X0269648Y0231371D02*
D03*
X0270299Y0229571D02*
D03*
X0275499Y0230596D02*
D03*
X0268699Y0227571D02*
D03*
X0238649Y0230601D02*
D03*
X0236749Y0229541D02*
D03*
X0239599Y0222246D02*
D03*
X0238826Y0224571D02*
D03*
X0239599Y0220846D02*
D03*
X0239599Y0221546D02*
D03*
X0236599Y0222946D02*
D03*
X0236599Y0223646D02*
D03*
X0236599Y0220846D02*
D03*
X0236599Y0222246D02*
D03*
X0233099Y0218521D02*
D03*
X0240599Y0217021D02*
D03*
X0236599Y0221546D02*
D03*
X0273599Y0220371D02*
D03*
X0273599Y0221771D02*
D03*
X0273599Y0224571D02*
D03*
X0282898Y0213271D02*
D03*
X0281799Y0223821D02*
D03*
X0267099Y0237271D02*
D03*
X0267799Y0237271D02*
D03*
X0268499Y0237271D02*
D03*
X0265698Y0237271D02*
D03*
X0266398Y0237271D02*
D03*
X0269299Y0236371D02*
D03*
X0269299Y0235571D02*
D03*
X0269398Y0230571D02*
D03*
X0269398Y0229771D02*
D03*
X0266398Y0228871D02*
D03*
X0265698Y0228871D02*
D03*
X0268499Y0228871D02*
D03*
X0267799Y0228871D02*
D03*
X0246499Y0218996D02*
D03*
X0246499Y0222896D02*
D03*
X0246499Y0224196D02*
D03*
X0246499Y0220296D02*
D03*
X0255499Y0219646D02*
D03*
X0271499Y0226071D02*
D03*
X0275499Y0229296D02*
D03*
X0275499Y0233196D02*
D03*
X0275499Y0231896D02*
D03*
X0275499Y0227996D02*
D03*
X0284499Y0228646D02*
D03*
X0286099Y0236071D02*
D03*
X0267099Y0228871D02*
D03*
X0219799Y0244921D02*
D03*
X0222999Y0245071D02*
D03*
X0221999Y0245071D02*
D03*
X0223999Y0245071D02*
D03*
X0225599Y0245071D02*
D03*
X0227499Y0245071D02*
D03*
X0217299Y0224571D02*
D03*
X0220799Y0217121D02*
D03*
X0226999Y0216171D02*
D03*
X0226999Y0216971D02*
D03*
X0226549Y0218571D02*
D03*
X0225799Y0212671D02*
D03*
X0255899Y0207071D02*
D03*
X0256898Y0206071D02*
D03*
X0257898Y0206071D02*
D03*
X0258898Y0206071D02*
D03*
X0257898Y0207071D02*
D03*
X0258898Y0207071D02*
D03*
X0256898Y0207071D02*
D03*
X0229799Y0248821D02*
D03*
X0229799Y0247821D02*
D03*
X0229799Y0246821D02*
D03*
X0232799Y0252571D02*
D03*
X0234799Y0252571D02*
D03*
X0236799Y0252571D02*
D03*
X0251299Y0248071D02*
D03*
X0252299Y0249741D02*
D03*
X0247299Y0248071D02*
D03*
X0246299Y0248071D02*
D03*
X0256869Y0237071D02*
D03*
X0255199Y0238741D02*
D03*
X0253528Y0237071D02*
D03*
X0253528Y0238741D02*
D03*
X0256869Y0238741D02*
D03*
X0253799Y0217271D02*
D03*
X0282799Y0226271D02*
D03*
X0222799Y0222421D02*
D03*
X0219299Y0242371D02*
D03*
X0244299Y0224946D02*
D03*
X0273499Y0233946D02*
D03*
X0263799Y0237371D02*
D03*
X0262799Y0237371D02*
D03*
X0250299Y0248071D02*
D03*
X0278299Y0212901D02*
D03*
X0237469Y0240521D02*
D03*
X0256869Y0240871D02*
D03*
X0283499Y0238871D02*
D03*
X0282499Y0238871D02*
D03*
X0286299Y0238871D02*
D03*
X0285299Y0238871D02*
D03*
X0283699Y0213271D02*
D03*
X0282898Y0215871D02*
D03*
X0283699Y0215871D02*
D03*
X0309499Y0245571D02*
D03*
X0291299Y0238071D02*
D03*
X0293799Y0238071D02*
D03*
X0296299Y0238071D02*
D03*
X0298799Y0238071D02*
D03*
X0301299Y0238071D02*
D03*
X0303799Y0238071D02*
D03*
X0306299Y0238071D02*
D03*
X0308799Y0238071D02*
D03*
X0308799Y0240071D02*
D03*
X0308799Y0242071D02*
D03*
X0306299Y0242071D02*
D03*
X0303799Y0242071D02*
D03*
X0291299Y0242071D02*
D03*
X0291299Y0240071D02*
D03*
X0293799Y0240071D02*
D03*
X0293799Y0242071D02*
D03*
X0296299Y0240071D02*
D03*
X0298799Y0240071D02*
D03*
X0281299Y0222071D02*
D03*
X0280299Y0222071D02*
D03*
X0226999Y0214571D02*
D03*
X0226999Y0213771D02*
D03*
M02*
