M48
;Layer_Color=9474304
;FILE_FORMAT=4:3
METRIC,LZ
;TYPE=PLATED
T4F00S00C0.900
T7F00S00C1.200
T8F00S00C1.500
;TYPE=NON_PLATED
%
G90
G05
T04
G00X00813Y002
M15
G01Y0022
M16
G00X0086Y002
M15
G01Y0022
M16
G00X00907Y002
M15
G01Y0022
M16
G00X00907Y0028
M15
G01Y003
M16
G00X0086Y0028
M15
G01Y003
M16
G00X00813Y0028
M15
G01Y003
M16
T07
G00X00867Y00075
M15
G01X00885
M16
G00X00924Y00096
M15
G01Y00114
M16
G00X00885Y00425
M15
G01X00867
M16
G00X00828Y00404
M15
G01Y00386
M16
T08
G00X008635Y00135
M15
G01X008885
M16
G00X008885Y00365
M15
G01X008635
M16
M17
M30
